{
.formatVersion = 3;
axes = (
{
name = Weight;
tag = wght;
}
);
classes = (
{
code = "A B C D E F G H I J K L M N O P Q R S T U V W X Y Z Adieresis Eacute Odieresis Udieresis Ocircumflex Ccedilla Agrave OE Acircumflex Ecircumflex Edieresis Egrave Icircumflex Idieresis Ucircumflex Ugrave E_S A_E A_O C_H C_Q F_V L_E L_U N_N R_S U_L X_C X_S";
name = liga_rlig;
}
);
familyName = Banana;
customParameters = (
{
name = glyphOrder;
value = (
.notdef,
A,
B,
C,
D,
E,
F,
I,
G,
H,
J,
K,
L,
M,
N,
O,
P,
Q,
R,
S,
T,
U,
V,
W,
X,
Y,
Z,
space,
registered,
two,
a,
b,
c,
d,
e,
f,
g,
h,
i,
j,
k,
l,
m,
n,
o,
p,
q,
r,
s,
t,
u,
v,
w,
x,
y,
z,
zero,
one,
three,
four,
five,
six,
seven,
eight,
nine,
Agrave,
Aacute,
Acircumflex,
Atilde,
Adieresis,
Aring,
AE,
Ccedilla,
Egrave,
Eacute,
Ecircumflex,
Edieresis,
Igrave,
Iacute,
Icircumflex,
Idieresis,
Eth,
Ntilde,
Ograve,
Oacute,
Ocircumflex,
Otilde,
Odieresis,
Oslash,
Ugrave,
Uacute,
Ucircumflex,
Udieresis,
Yacute,
Thorn,
agrave,
aacute,
acircumflex,
atilde,
adieresis,
aring,
ae,
ccedilla,
egrave,
eacute,
ecircumflex,
edieresis,
igrave,
iacute,
icircumflex,
idieresis,
ntilde,
ograve,
oacute,
ocircumflex,
otilde,
odieresis,
oslash,
ugrave,
uacute,
ucircumflex,
udieresis,
yacute,
thorn,
ydieresis,
exclam,
question,
comma,
semicolon,
period,
colon,
slash,
equal,
plus,
parenright,
parenleft,
hyphen,
grave,
cedilla,
acute,
dieresis,
circumflex,
dotlessi,
quotesingle,
tilde,
guillemotleft,
guillemotright,
guilsinglright,
guilsinglleft,
ellipsis,
Ydieresis,
backslash,
periodcentered,
bullet,
Euro,
at,
euro_banana,
utilde,
Utilde,
Scircumflex,
scircumflex,
sacute,
Sacute,
oe,
OE,
Racute,
racute,
nacute,
Nacute,
Jcircumflex,
jcircumflex,
Lacute,
lacute,
Hcircumflex,
hcircumflex,
Gcircumflex,
gcircumflex,
Ccircumflex,
ccircumflex,
cacute,
Cacute,
Ycircumflex,
ycircumflex,
wcircumflex,
Wcircumflex,
wacute,
Wacute,
Wdieresis,
wdieresis,
wgrave,
Wgrave,
underscore,
divide,
less,
greater,
exclamdown,
questiondown,
caron,
Zcaron,
scaron,
Scaron,
zcaron,

glyphs = (
{
glyphname = A;
layers = (
{
attr = {
color = 1;
};
layerId = "787108DE-7A61-4466-9FE6-B6E3F273E4CB";
shapes = (
{
attr = {
fill = 1;
fillColor = (0);
strokeWidth = 10;
strokeColor = (0,255);
lineCapEnd = 1;
lineCapStart = 1;
};
closed = 0;
nodes = (
(31.023,-1.023,l),
(41.256,16.373,o),
(50.466,33.769,o),
(57.629,52.188,cs),
(115.957,193.404,o),
(84.235,352.015,o),
(110.841,502.44,cs),
(130.283,610.91,o),
(187.588,714.263,o),
(296.058,714.263,cs),
(404.528,714.263,o),
(462.856,610.91,o),
(481.275,502.44,cs),
(507.881,352.015,o),
(477.182,193.404,o),
(534.487,52.188,cs),
(541.65,33.769,o),
(550.86,16.373,o),
(561.093,-1.023,c)
);
},
{
attr = {
fill = 1;
fillColor = (0);
strokeWidth = 10;
strokeColor = (0,255);
lineCapEnd = 1;
lineCapStart = 1;
};
closed = 0;
nodes = (
(57.629,284.477,l),
(534.487,284.477,l)
);
}
);
width = 592;
},
{
attr = {
color = 1;
};
layerId = "A0B93036-4938-4FDF-B53E-670010F591C3";
shapes = (
{
attr = {
fill = 1;
fillColor = (0);
strokeWidth = 50;
strokeHeight = 100;
strokeColor = (0,255);
lineCapEnd = 1;
lineCapStart = 1;
};
closed = 0;
nodes = (
(31.023,-1.023,l),
(41.256,16.373,o),
(50.466,33.769,o),
(57.629,52.188,cs),
(115.957,193.404,o),
(84.235,352.015,o),
(110.841,502.44,cs),
(130.283,610.91,o),
(187.588,714.263,o),
(296.058,714.263,cs),
(404.528,714.263,o),
(462.856,610.91,o),
(481.275,502.44,cs),
(507.881,352.015,o),
(477.182,193.404,o),
(534.487,52.188,cs),
(541.65,33.769,o),
(550.86,16.373,o),
(561.093,-1.023,c)
);
},
{
attr = {
fill = 1;
fillColor = (0);
strokeWidth = 50;
strokeHeight = 100;
strokeColor = (0,255);
lineCapEnd = 1;
lineCapStart = 1;
};
closed = 0;
nodes = (
(57.629,284.477,l),
(534.487,284.477,l)
);
}
);
width = 592;
}
);
unicode = 65;
},
{
glyphname = B;
layers = (
{
attr = {
color = 1;
};
layerId = "787108DE-7A61-4466-9FE6-B6E3F273E4CB";
shapes = (
{
attr = {
fill = 1;
fillColor = (0);
strokeWidth = 10;
strokeColor = (0,255);
lineCapEnd = 1;
lineCapStart = 1;
};
closed = 0;
nodes = (
(48.28,461.536,l),
(11.32,614.656,o),
(138.04,720.256,o),
(264.76,720.256,cs),
(337.624,720.256,o),
(409.432,685.408,o),
(451.672,604.096,cs),
(531.928,445.696,o),
(393.592,297.856,o),
(249.976,299.968,cs),
(197.176,301.024,o),
(144.376,322.144,o),
(100.024,369.664,c),
(100.024,372.832,l),
(148.6,428.8,o),
(210.904,453.088,o),
(272.152,454.144,cs),
(413.656,456.256,o),
(551.992,332.704,o),
(523.48,174.304,cs),
(512.92,113.056,o),
(443.224,29.632,o),
(350.296,-20,o),
(294.328,-20,qs),
(243.64,-20,o),
(145.432,22.24,o),
(66.232,106.72,o),
(48.28,171.136,q)
);
},
{
attr = {
fill = 1;
fillColor = (0);
strokeWidth = 10;
strokeColor = (0,255);
lineCapEnd = 1;
lineCapStart = 1;
};
closed = 0;
nodes = (
(44.056,43.36,l),
(39.946,33.379,o),
(43.018,21.112,o),
(50.186,12.187,cs),
(55.91,5.06,o),
(64.247,0.064,o),
(73.624,0.064,cs),
(82.606,0.064,o),
(90.531,5.144,o),
(95.786,12.366,cs),
(102.269,21.275,o),
(104.69,33.445,o),
(100.024,43.36,c),
(100.024,651.616,l)
);
}
);
width = 559;
},
{
attr = {
color = 1;
};
layerId = "A0B93036-4938-4FDF-B53E-670010F591C3";
shapes = (
{
attr = {
fill = 1;
fillColor = (0);
strokeWidth = 50;
strokeHeight = 100;
strokeColor = (0,255);
lineCapEnd = 1;
lineCapStart = 1;
};
closed = 0;
nodes = (
(48.28,461.536,l),
(11.32,614.656,o),
(138.04,720.256,o),
(264.76,720.256,cs),
(337.624,720.256,o),
(409.432,685.408,o),
(451.672,604.096,cs),
(531.928,445.696,o),
(393.592,297.856,o),
(249.976,299.968,cs),
(197.176,301.024,o),
(144.376,322.144,o),
(100.024,369.664,c),
(100.024,372.832,l),
(148.6,428.8,o),
(210.904,453.088,o),
(272.152,454.144,cs),
(413.656,456.256,o),
(551.992,332.704,o),
(523.48,174.304,cs),
(512.92,113.056,o),
(443.224,29.632,o),
(350.296,-20,o),
(294.328,-20,qs),
(243.64,-20,o),
(145.432,22.24,o),
(66.232,106.72,o),
(48.28,171.136,q)
);
},
{
attr = {
fill = 1;
fillColor = (0);
strokeWidth = 50;
strokeHeight = 100;
strokeColor = (0,255);
lineCapEnd = 1;
lineCapStart = 1;
};
closed = 0;
nodes = (
(44.056,43.36,l),
(39.946,33.379,o),
(43.018,21.112,o),
(50.186,12.187,cs),
(55.91,5.06,o),
(64.247,0.064,o),
(73.624,0.064,cs),
(82.606,0.064,o),
(90.531,5.144,o),
(95.786,12.366,cs),
(102.269,21.275,o),
(104.69,33.445,o),
(100.024,43.36,c),
(100.024,651.616,l)
);
}
);
width = 559;
}
);
unicode = 66;
},
{
glyphname = C;
layers = (
{
attr = {
color = 1;
};
layerId = "787108DE-7A61-4466-9FE6-B6E3F273E4CB";
shapes = (
{
attr = {
fill = 1;
strokeWidth = 10;
strokeColor = (0,255);
lineCapEnd = 1;
lineCapStart = 1;
};
closed = 0;
nodes = (
(518.374,605.362,l),
(468.84,673.69,o),
(399.088,717.84,o),
(313.161,717.84,cs),
(142.319,717.84,o),
(31.12,541.238,o),
(31.12,350.971,cs),
(31.12,159.653,o),
(142.319,-16.949,o),
(313.161,-16.949,cs),
(399.088,-16.949,o),
(468.84,27.202,o),
(518.374,95.53,c)
);
}
);
width = 559;
},
{
layerId = "A0B93036-4938-4FDF-B53E-670010F591C3";
shapes = (
{
attr = {
strokeWidth = 50;
strokeHeight = 100;
lineCapEnd = 1;
lineCapStart = 1;
};
closed = 0;
nodes = (
(518.374,605.362,l),
(468.84,673.69,o),
(399.088,717.84,o),
(313.161,717.84,cs),
(142.319,717.84,o),
(31.12,541.238,o),
(31.12,350.971,cs),
(31.12,159.653,o),
(142.319,-16.949,o),
(313.161,-16.949,cs),
(399.088,-16.949,o),
(468.84,27.202,o),
(518.374,95.53,c)
);
}
);
width = 559;
}
);
unicode = 67;
},
{
glyphname = D;
leftMetricsKey = B;
layers = (
{
attr = {
color = 1;
};
layerId = "787108DE-7A61-4466-9FE6-B6E3F273E4CB";
shapes = (
{
attr = {
fill = 1;
strokeWidth = 10;
strokeColor = (0,255);
lineCapEnd = 1;
lineCapStart = 1;
};
closed = 0;
nodes = (
(50,43,l),
(45.544,32.603,o),
(46.726,21.716,o),
(51.846,13.373,cs),
(57.068,4.864,o),
(66.387,-1,o),
(78,-1,cs),
(89.203,-1,o),
(98.592,4.965,o),
(103.919,13.592,cs),
(109.053,21.907,o),
(110.417,32.694,o),
(106,43,c),
(106,690,l)
);
},
{
attr = {
fill = 1;
strokeWidth = 10;
strokeColor = (0,255);
lineCapEnd = 1;
lineCapStart = 1;
};
closed = 0;
nodes = (
(49,403,l),
(10,567,o),
(136,719,o),
(308,719,cs),
(483,719,o),
(593,544,o),
(595,359,cs),
(597,171,o),
(521,34,o),
(359,-7,cs),
(271,-29,o),
(161,-4,o),
(106,51,c)
);
}
);
width = 626;
},
{
layerId = "A0B93036-4938-4FDF-B53E-670010F591C3";
shapes = (
{
attr = {
strokeWidth = 50;
strokeHeight = 100;
lineCapEnd = 1;
lineCapStart = 1;
};
closed = 0;
nodes = (
(50,43,l),
(45.544,32.603,o),
(46.726,21.716,o),
(51.846,13.373,cs),
(57.068,4.864,o),
(66.387,-1,o),
(78,-1,cs),
(89.203,-1,o),
(98.592,4.965,o),
(103.919,13.592,cs),
(109.053,21.907,o),
(110.417,32.694,o),
(106,43,c),
(106,690,l)
);
},
{
attr = {
strokeWidth = 50;
strokeHeight = 100;
lineCapEnd = 1;
lineCapStart = 1;
};
closed = 0;
nodes = (
(49,403,l),
(10,567,o),
(136,719,o),
(308,719,cs),
(483,719,o),
(593,544,o),
(595,359,cs),
(597,171,o),
(521,34,o),
(359,-7,cs),
(271,-29,o),
(161,-4,o),
(106,51,c)
);
}
);
width = 626;
}
);
unicode = 68;
},
{
glyphname = E;
layers = (
{
attr = {
color = 1;
};
layerId = "787108DE-7A61-4466-9FE6-B6E3F273E4CB";
shapes = (
{
attr = {
fill = 1;
strokeWidth = 10;
strokeColor = (0,255);
lineCapEnd = 1;
lineCapStart = 1;
};
closed = 0;
nodes = (
(535.344,714.53,l),
(508.358,601.399,o),
(372.393,555.731,o),
(284.172,630.46,cs),
(246.807,661.597,o),
(221.898,714.53,o),
(172.079,714.53,cs),
(111.88,714.53,o),
(84.895,643.953,o),
(89.047,575.451,cs),
(97.35,409.387,o),
(183.495,249.551,o),
(144.055,87.638,cs),
(136.79,54.426,o),
(120.184,22.251,o),
(89.047,17.061,cs),
(62.061,12.91,o),
(36.114,31.592,o),
(33,59.615,cs),
(18.469,172.746,o),
(167.927,117.737,o),
(305.968,25.364,cs),
(396.265,-34.834,o),
(526.002,6.682,o),
(562.329,109.434,c)
);
},
{
attr = {
fill = 1;
strokeWidth = 10;
strokeColor = (0,255);
lineCapEnd = 1;
lineCapStart = 1;
};
closed = 0;
nodes = (
(77.63,376.175,l),
(446.084,376.175,l)
);
}
);
width = 604;
},
{
layerId = "A0B93036-4938-4FDF-B53E-670010F591C3";
shapes = (
{
attr = {
strokeWidth = 50;
strokeHeight = 100;
lineCapEnd = 1;
lineCapStart = 1;
};
closed = 0;
nodes = (
(535.344,714.53,l),
(508.358,601.399,o),
(372.393,555.731,o),
(284.172,630.46,cs),
(246.807,661.597,o),
(221.898,714.53,o),
(172.079,714.53,cs),
(111.88,714.53,o),
(84.895,643.953,o),
(89.047,575.451,cs),
(97.35,409.387,o),
(183.495,249.551,o),
(144.055,87.638,cs),
(136.79,54.426,o),
(120.184,22.251,o),
(89.047,17.061,cs),
(62.061,12.91,o),
(36.114,31.592,o),
(33,59.615,cs),
(18.469,172.746,o),
(167.927,117.737,o),
(305.968,25.364,cs),
(396.265,-34.834,o),
(526.002,6.682,o),
(562.329,109.434,c)
);
},
{
attr = {
strokeWidth = 50;
strokeHeight = 100;
lineCapEnd = 1;
lineCapStart = 1;
};
closed = 0;
nodes = (
(77.63,376.175,l),
(446.084,376.175,l)
);
}
);
width = 604;
}
);
unicode = 69;
},
{
glyphname = F;
layers = (
{
attr = {
color = 1;
};
layerId = "787108DE-7A61-4466-9FE6-B6E3F273E4CB";
shapes = (
{
attr = {
fill = 1;
strokeWidth = 10;
strokeColor = (0,255);
lineCapEnd = 1;
lineCapStart = 1;
};
closed = 0;
nodes = (
(117.966,44.006,l),
(110.585,32.084,o),
(112.653,18.902,o),
(119.976,10.226,cs),
(125.853,3.262,o),
(135.116,-0.799,o),
(145.597,1.023,cs),
(154.821,2.561,o),
(161.479,8.459,o),
(166.085,16.407,cs),
(170.678,24.333,o),
(173.231,34.297,o),
(174.253,44.006,c),
(199.838,227.195,o),
(40.187,386.845,o),
(60.655,571.057,cs),
(69.866,654.976,o),
(128.2,728.661,o),
(202.908,713.31,cs),
(251.008,704.099,o),
(277.616,655.999,o),
(316.505,627.344,cs),
(409.635,561.847,o),
(538.583,604.829,o),
(573.379,713.31,c)
);
},
{
attr = {
fill = 1;
strokeWidth = 10;
strokeColor = (0,255);
lineCapEnd = 1;
lineCapStart = 1;
};
closed = 0;
nodes = (
(40.187,389.915,l),
(412.705,389.915,l)
);
}
);
width = 555;
},
{
layerId = "A0B93036-4938-4FDF-B53E-670010F591C3";
shapes = (
{
attr = {
strokeWidth = 50;
strokeHeight = 100;
lineCapEnd = 1;
lineCapStart = 1;
};
closed = 0;
nodes = (
(117.966,44.006,l),
(110.585,32.084,o),
(112.653,18.902,o),
(119.976,10.226,cs),
(125.853,3.262,o),
(135.116,-0.799,o),
(145.597,1.023,cs),
(154.821,2.561,o),
(161.479,8.459,o),
(166.085,16.407,cs),
(170.678,24.333,o),
(173.231,34.297,o),
(174.253,44.006,c),
(199.838,227.195,o),
(40.187,386.845,o),
(60.655,571.057,cs),
(69.866,654.976,o),
(128.2,728.661,o),
(202.908,713.31,cs),
(251.008,704.099,o),
(277.616,655.999,o),
(316.505,627.344,cs),
(409.635,561.847,o),
(538.583,604.829,o),
(573.379,713.31,c)
);
},
{
attr = {
strokeWidth = 50;
strokeHeight = 100;
lineCapEnd = 1;
lineCapStart = 1;
};
closed = 0;
nodes = (
(40.187,389.915,l),
(412.705,389.915,l)
);
}
);
width = 555;
}
);
unicode = 70;
},
{
glyphname = I;
layers = (
{
attr = {
color = 1;
};
layerId = "787108DE-7A61-4466-9FE6-B6E3F273E4CB";
shapes = (
{
attr = {
fill = 1;
strokeWidth = 10;
strokeColor = (0,255);
lineCapEnd = 1;
lineCapStart = 1;
};
closed = 0;
nodes = (
(81,44,l),
(79,20,o),
(99,0,o),
(123,2,cs),
(149,4,o),
(165,30,o),
(165,58,cs),
(165,256,o),
(81,446,o),
(81,644,cs),
(81,672,o),
(97,698,o),
(123,700,cs),
(147,702,o),
(167,682,o),
(165,658,c)
);
}
);
width = 246;
},
{
layerId = "A0B93036-4938-4FDF-B53E-670010F591C3";
shapes = (
{
attr = {
strokeWidth = 50;
strokeHeight = 100;
lineCapEnd = 1;
lineCapStart = 1;
};
closed = 0;
nodes = (
(81,44,l),
(79,20,o),
(99,0,o),
(123,2,cs),
(149,4,o),
(165,30,o),
(165,58,cs),
(165,256,o),
(81,446,o),
(81,644,cs),
(81,672,o),
(97,698,o),
(123,700,cs),
(147,702,o),
(167,682,o),
(165,658,c)
);
}
);
width = 246;
}
);
unicode = 73;
},
{
glyphname = G;
layers = (
{
attr = {
color = 1;
};
layerId = "787108DE-7A61-4466-9FE6-B6E3F273E4CB";
shapes = (
{
attr = {
fill = 1;
strokeWidth = 10;
strokeColor = (0,255);
lineCapEnd = 1;
lineCapStart = 1;
};
closed = 0;
nodes = (
(569,570.587,l),
(516,676.427,o),
(408,734.639,o),
(299,717.705,cs),
(141,693.362,o),
(35,530.368,o),
(31,349.382,cs),
(27,162.045,o),
(137,-9.416,o),
(299,-17.883,cs),
(428,-25.292,o),
(552,78.431,o),
(582,217.082,cs),
(601,302.812,o),
(564,379.017,o),
(501,379.017,cs),
(442,379.017,o),
(428,302.812,o),
(393,246.717,cs),
(351,178.979,o),
(248,225.549,o),
(232,305.987,c)
);
}
);
width = 618;
},
{
layerId = "A0B93036-4938-4FDF-B53E-670010F591C3";
shapes = (
{
attr = {
strokeWidth = 50;
strokeHeight = 100;
lineCapEnd = 1;
lineCapStart = 1;
};
closed = 0;
nodes = (
(569,570.587,l),
(516,676.427,o),
(408,734.639,o),
(299,717.705,cs),
(141,693.362,o),
(35,530.368,o),
(31,349.382,cs),
(27,162.045,o),
(137,-9.416,o),
(299,-17.883,cs),
(428,-25.292,o),
(552,78.431,o),
(582,217.082,cs),
(601,302.812,o),
(564,379.017,o),
(501,379.017,cs),
(442,379.017,o),
(428,302.812,o),
(393,246.717,cs),
(351,178.979,o),
(248,225.549,o),
(232,305.987,c)
);
}
);
width = 618;
}
);
unicode = 71;
},
{
glyphname = H;
layers = (
{
attr = {
color = 1;
};
layerId = "787108DE-7A61-4466-9FE6-B6E3F273E4CB";
shapes = (
{
attr = {
fill = 1;
strokeWidth = 10;
strokeColor = (0,255);
lineCapEnd = 1;
lineCapStart = 1;
};
closed = 0;
nodes = (
(47,44,l),
(39.685,32.746,o),
(41.869,19.593,o),
(49.453,10.953,cs),
(55.348,4.239,o),
(64.504,0.251,o),
(75,2,c),
(93,6,o),
(100,25,o),
(103,44,cs),
(108.108,81.583,o),
(105.761,118.9,o),
(100.718,156.145,cs),
(91.942,220.973,o),
(75,285.583,o),
(75,351,cs),
(75,409.41,o),
(88.248,466.559,o),
(97.383,523.686,cs),
(104.513,568.274,o),
(109.137,612.849,o),
(103,658,cs),
(100,677,o),
(93,697,o),
(75,700,cs),
(64.895,701.684,o),
(56.031,698.05,o),
(50.125,691.785,cs),
(42.003,683.17,o),
(39.474,669.579,o),
(47,658,c)
);
},
{
attr = {
fill = 1;
strokeWidth = 10;
strokeColor = (0,255);
lineCapEnd = 1;
lineCapStart = 1;
};
closed = 0;
nodes = (
(549,44,l),
(556.153,32.996,o),
(554.223,20.175,o),
(547.043,11.534,cs),
(541.173,4.471,o),
(531.795,0.201,o),
(521,2,c),
(503,6,o),
(496,25,o),
(493,44,cs),
(487.984,80.906,o),
(490.157,117.556,o),
(495.012,154.133,cs),
(503.706,219.636,o),
(521,284.906,o),
(521,351,cs),
(521,412.187,o),
(506.462,471.989,o),
(497.344,531.832,cs),
(490.964,573.705,o),
(487.237,615.598,o),
(493,658,cs),
(496,677,o),
(503,697,o),
(521,700,cs),
(531.105,701.684,o),
(539.969,698.05,o),
(545.876,691.784,cs),
(553.997,683.169,o),
(556.526,669.579,o),
(549,658,c)
);
},
{
attr = {
fill = 1;
strokeWidth = 10;
strokeColor = (0,255);
lineCapEnd = 1;
lineCapStart = 1;
};
closed = 0;
nodes = (
(75,351,l),
(521,351,l)
);
}
);
width = 594;
},
{
layerId = "A0B93036-4938-4FDF-B53E-670010F591C3";
shapes = (
{
attr = {
strokeWidth = 50;
strokeHeight = 100;
lineCapEnd = 1;
lineCapStart = 1;
};
closed = 0;
nodes = (
(47,44,l),
(39.685,32.746,o),
(41.869,19.593,o),
(49.453,10.953,cs),
(55.348,4.239,o),
(64.504,0.251,o),
(75,2,c),
(93,6,o),
(100,25,o),
(103,44,cs),
(108.108,81.583,o),
(105.761,118.9,o),
(100.718,156.145,cs),
(91.942,220.973,o),
(75,285.583,o),
(75,351,c),
(75,409.41,o),
(88.248,466.559,o),
(97.383,523.686,cs),
(104.513,568.274,o),
(109.137,612.849,o),
(103,658,cs),
(100,677,o),
(93,697,o),
(75,700,cs),
(64.895,701.684,o),
(56.031,698.05,o),
(50.125,691.785,cs),
(42.003,683.17,o),
(39.474,669.579,o),
(47,658,c)
);
},
{
attr = {
strokeWidth = 50;
strokeHeight = 100;
lineCapEnd = 1;
lineCapStart = 1;
};
closed = 0;
nodes = (
(549,44,l),
(556.153,32.996,o),
(554.223,20.175,o),
(547.043,11.534,cs),
(541.173,4.471,o),
(531.795,0.201,o),
(521,2,c),
(503,6,o),
(496,25,o),
(493,44,cs),
(487.984,80.906,o),
(490.157,117.556,o),
(495.012,154.133,cs),
(503.706,219.636,o),
(521,284.906,o),
(521,351,cs),
(521,412.187,o),
(506.462,471.989,o),
(497.344,531.832,cs),
(490.964,573.705,o),
(487.237,615.598,o),
(493,658,cs),
(496,677,o),
(503,697,o),
(521,700,cs),
(531.105,701.684,o),
(539.969,698.05,o),
(545.876,691.784,cs),
(553.997,683.169,o),
(556.526,669.579,o),
(549,658,c)
);
},
{
attr = {
strokeWidth = 50;
strokeHeight = 100;
lineCapEnd = 1;
lineCapStart = 1;
};
closed = 0;
nodes = (
(75,351,l),
(521,351,l)
);
}
);
width = 594;
}
);
unicode = 72;
},
{
glyphname = J;
layers = (
{
attr = {
color = 1;
};
layerId = "787108DE-7A61-4466-9FE6-B6E3F273E4CB";
shapes = (
{
attr = {
fill = 1;
strokeWidth = 10;
strokeColor = (0,255);
lineCapEnd = 1;
lineCapStart = 1;
};
closed = 0;
nodes = (
(66.454,550.44,l),
(45.177,572.884,o),
(38.774,601.896,o),
(43.662,628.324,cs),
(50.562,665.642,o),
(79.973,697.807,o),
(121.8,699.05,cs),
(148.706,699.873,o),
(185.888,679.815,o),
(222.044,660.123,cs),
(279.192,628.999,o),
(333.777,598.791,o),
(341.173,653.405,cs),
(345.199,684.189,o),
(361.299,699.05,o),
(381.425,699.05,cs),
(409.602,699.05,o),
(423.69,685.25,o),
(426.709,653.405,c),
(492.118,448.536,o),
(563.566,228.805,o),
(431.74,70.642,cs),
(381.425,11.198,o),
(309.978,-19.585,o),
(234.506,-19.585,cs),
(121.8,-19.585,o),
(16.139,85.503,o),
(46.328,188.468,cs),
(52.365,209.698,o),
(66.454,229.867,o),
(88.592,231.99,c),
(112.743,235.174,o),
(132.869,213.944,o),
(129.85,188.468,c)
);
}
);
width = 546;
},
{
layerId = "A0B93036-4938-4FDF-B53E-670010F591C3";
shapes = (
{
attr = {
strokeWidth = 50;
strokeHeight = 100;
lineCapEnd = 1;
lineCapStart = 1;
};
closed = 0;
nodes = (
(66.454,550.44,l),
(45.177,572.884,o),
(38.774,601.896,o),
(43.662,628.324,cs),
(50.562,665.642,o),
(79.973,697.807,o),
(121.8,699.05,cs),
(148.706,699.873,o),
(185.888,679.815,o),
(222.044,660.123,cs),
(279.192,628.999,o),
(333.777,598.791,o),
(341.173,653.405,cs),
(345.199,684.189,o),
(361.299,699.05,o),
(381.425,699.05,cs),
(409.602,699.05,o),
(423.69,685.25,o),
(426.709,653.405,c),
(492.118,448.536,o),
(563.566,228.805,o),
(431.74,70.642,cs),
(381.425,11.198,o),
(309.978,-19.585,o),
(234.506,-19.585,cs),
(121.8,-19.585,o),
(16.139,85.503,o),
(46.328,188.468,cs),
(52.365,209.698,o),
(66.454,229.867,o),
(88.592,231.99,c),
(112.743,235.174,o),
(132.869,213.944,o),
(129.85,188.468,c)
);
}
);
width = 546;
}
);
unicode = 74;
},
{
glyphname = K;
layers = (
{
attr = {
color = 1;
};
layerId = "787108DE-7A61-4466-9FE6-B6E3F273E4CB";
shapes = (
{
attr = {
fill = 1;
strokeWidth = 10;
strokeColor = (0,255);
lineCapEnd = 1;
lineCapStart = 1;
};
closed = 0;
nodes = (
(545,700,l),
(592,536,o),
(465,373,o),
(294,379,cs),
(203,382,o),
(99,387,o),
(99,309,c)
);
},
{
attr = {
fill = 1;
strokeWidth = 10;
strokeColor = (0,255);
lineCapEnd = 1;
lineCapStart = 1;
};
closed = 0;
nodes = (
(294,379,l),
(453,379,o),
(539,212,o),
(573,44,cs),
(577,25,o),
(583,6,o),
(601,2,cs),
(614.072,-0.723,o),
(625.364,6.046,o),
(630.675,16.007,cs),
(635.115,24.335,o),
(635.375,34.893,o),
(629,44,c)
);
},
{
attr = {
fill = 1;
strokeWidth = 10;
strokeColor = (0,255);
lineCapEnd = 1;
lineCapStart = 1;
};
closed = 0;
nodes = (
(43,44,l),
(38.594,34.21,o),
(39.94,23.94,o),
(45.042,16.006,cs),
(50.363,7.733,o),
(59.769,2,o),
(71,2,cs),
(80.156,2,o),
(88.172,6.182,o),
(93.637,12.557,cs),
(100.708,20.804,o),
(103.512,32.72,o),
(99,44,c),
(99,658,l),
(103.472,669.181,o),
(100.756,680.987,o),
(93.822,689.225,cs),
(88.353,695.722,o),
(80.26,700,o),
(71,700,cs),
(60.703,700,o),
(51.94,695.181,o),
(46.453,688.003,cs),
(40.216,679.845,o),
(38.212,668.639,o),
(43,658,c)
);
}
);
width = 674;
},
{
layerId = "A0B93036-4938-4FDF-B53E-670010F591C3";
shapes = (
{
attr = {
strokeWidth = 50;
strokeHeight = 100;
lineCapEnd = 1;
lineCapStart = 1;
};
closed = 0;
nodes = (
(545,700,l),
(592,536,o),
(465,373,o),
(294,379,cs),
(203,382,o),
(99,387,o),
(99,309,c)
);
},
{
attr = {
strokeWidth = 50;
strokeHeight = 100;
lineCapEnd = 1;
lineCapStart = 1;
};
closed = 0;
nodes = (
(294,379,l),
(453,379,o),
(539,212,o),
(573,44,cs),
(577,25,o),
(583,6,o),
(601,2,cs),
(614.072,-0.723,o),
(625.364,6.046,o),
(630.675,16.007,cs),
(635.115,24.335,o),
(635.375,34.893,o),
(629,44,c)
);
},
{
attr = {
strokeWidth = 50;
strokeHeight = 100;
lineCapEnd = 1;
lineCapStart = 1;
};
closed = 0;
nodes = (
(43,44,l),
(38.594,34.21,o),
(39.94,23.94,o),
(45.042,16.006,cs),
(50.363,7.733,o),
(59.769,2,o),
(71,2,cs),
(80.156,2,o),
(88.172,6.182,o),
(93.637,12.557,cs),
(100.708,20.804,o),
(103.512,32.72,o),
(99,44,c),
(99,658,l),
(103.472,669.181,o),
(100.756,680.987,o),
(93.822,689.225,cs),
(88.353,695.722,o),
(80.26,700,o),
(71,700,cs),
(60.703,700,o),
(51.94,695.181,o),
(46.453,688.003,cs),
(40.216,679.845,o),
(38.212,668.639,o),
(43,658,c)
);
}
);
width = 674;
}
);
unicode = 75;
},
{
glyphname = L;
layers = (
{
attr = {
color = 1;
};
layerId = "787108DE-7A61-4466-9FE6-B6E3F273E4CB";
shapes = (
{
attr = {
fill = 1;
strokeWidth = 10;
strokeColor = (0,255);
lineCapEnd = 1;
lineCapStart = 1;
};
closed = 0;
nodes = (
(228.667,660.964,l),
(223.572,688.474,o),
(196.062,715.984,o),
(166.514,715.984,cs),
(104.361,715.984,o),
(83.983,658.926,o),
(88.058,588.622,cs),
(97.229,419.484,o),
(185.873,254.423,o),
(145.117,89.361,c),
(137.985,54.718,o),
(121.682,22.113,o),
(89.077,17.019,cs),
(61.567,12.943,o),
(35.076,31.283,o),
(32.019,59.813,cs),
(16.735,175.967,o),
(169.57,119.928,o),
(311.198,25.17,cs),
(403.917,-35.964,o),
(536.374,5.811,o),
(573.055,110.758,c)
);
}
);
width = 626;
},
{
layerId = "A0B93036-4938-4FDF-B53E-670010F591C3";
shapes = (
{
attr = {
strokeWidth = 50;
strokeHeight = 100;
lineCapEnd = 1;
lineCapStart = 1;
};
closed = 0;
nodes = (
(228.667,660.964,l),
(223.572,688.474,o),
(196.062,715.984,o),
(166.514,715.984,cs),
(104.361,715.984,o),
(83.983,658.926,o),
(88.058,588.622,cs),
(97.229,419.484,o),
(185.873,254.423,o),
(145.117,89.361,c),
(137.985,54.718,o),
(121.682,22.113,o),
(89.077,17.019,cs),
(61.567,12.943,o),
(35.076,31.283,o),
(32.019,59.813,cs),
(16.735,175.967,o),
(169.57,119.928,o),
(311.198,25.17,cs),
(403.917,-35.964,o),
(536.374,5.811,o),
(573.055,110.758,c)
);
}
);
width = 626;
}
);
unicode = 76;
},
{
glyphname = M;
layers = (
{
attr = {
color = 1;
};
layerId = "787108DE-7A61-4466-9FE6-B6E3F273E4CB";
shapes = (
{
attr = {
fill = 1;
strokeWidth = 10;
strokeColor = (0,255);
lineCapEnd = 1;
lineCapStart = 1;
};
closed = 0;
nodes = (
(41.895,32.159,l),
(38.685,7.544,o),
(60.089,-13.86,o),
(84.703,-10.649,cs),
(106.107,-7.438,o),
(120.02,11.825,o),
(127.511,32.159,c),
(207.776,230.146,o),
(-14.825,442.046,o),
(84.703,635.752,cs),
(105.037,675.349,o),
(141.424,708.525,o),
(185.302,707.455,cs),
(229.18,706.385,o),
(263.427,673.209,o),
(285.901,635.752,cs),
(361.885,508.398,o),
(328.709,352.149,o),
(328.709,204.461,cs),
(328.709,169.145,o),
(341.551,132.758,o),
(371.517,132.758,cs),
(402.553,132.758,o),
(415.395,169.145,o),
(415.395,204.461,cs),
(415.395,352.149,o),
(382.219,508.398,o),
(458.203,635.752,cs),
(480.677,673.209,o),
(514.924,706.385,o),
(558.802,707.455,cs),
(602.68,708.525,o),
(637.997,675.349,o),
(659.401,635.752,cs),
(757.859,442.046,o),
(536.328,230.146,o),
(615.523,32.159,cs),
(624.084,11.825,o),
(637.997,-7.438,o),
(659.401,-10.649,cs),
(684.015,-13.86,o),
(705.419,7.544,o),
(702.209,32.159,c)
);
}
);
width = 744;
},
{
layerId = "A0B93036-4938-4FDF-B53E-670010F591C3";
shapes = (
{
attr = {
strokeWidth = 50;
strokeHeight = 100;
lineCapEnd = 1;
lineCapStart = 1;
};
closed = 0;
nodes = (
(41.895,32.159,l),
(38.685,7.544,o),
(60.089,-13.86,o),
(84.703,-10.649,cs),
(106.107,-7.438,o),
(120.02,11.825,o),
(127.511,32.159,c),
(207.776,230.146,o),
(-14.825,442.046,o),
(84.703,635.752,cs),
(105.037,675.349,o),
(141.424,708.525,o),
(185.302,707.455,cs),
(229.18,706.385,o),
(263.427,673.209,o),
(285.901,635.752,cs),
(361.885,508.398,o),
(328.709,352.149,o),
(328.709,204.461,cs),
(328.709,169.145,o),
(341.551,132.758,o),
(371.517,132.758,cs),
(402.553,132.758,o),
(415.395,169.145,o),
(415.395,204.461,cs),
(415.395,352.149,o),
(382.219,508.398,o),
(458.203,635.752,cs),
(480.677,673.209,o),
(514.924,706.385,o),
(558.802,707.455,cs),
(602.68,708.525,o),
(637.997,675.349,o),
(659.401,635.752,cs),
(757.859,442.046,o),
(536.328,230.146,o),
(615.523,32.159,cs),
(624.084,11.825,o),
(637.997,-7.438,o),
(659.401,-10.649,cs),
(684.015,-13.86,o),
(705.419,7.544,o),
(702.209,32.159,c)
);
}
);
width = 744;
}
);
unicode = 77;
},
{
glyphname = N;
layers = (
{
attr = {
color = 1;
};
layerId = "787108DE-7A61-4466-9FE6-B6E3F273E4CB";
shapes = (
{
attr = {
fill = 1;
strokeWidth = 10;
strokeColor = (0,255);
lineCapEnd = 1;
lineCapStart = 1;
};
closed = 0;
nodes = (
(34.645,42.397,l),
(31.147,17.37,o),
(54.465,-4.529,o),
(83.613,-1.401,cs),
(108.097,1.728,o),
(122.088,21.541,o),
(132.581,42.397,c),
(224.687,240.529,o),
(18.323,433.447,o),
(83.613,636.793,cs),
(96.438,675.376,o),
(123.254,710.832,o),
(165.226,709.789,cs),
(206.032,708.746,o),
(229.35,673.291,o),
(245.673,636.793,cs),
(327.286,450.132,o),
(327.286,249.914,o),
(408.899,63.253,cs),
(425.222,26.755,o),
(448.54,-8.7,o),
(490.512,-9.743,cs),
(532.484,-10.786,o),
(559.3,24.669,o),
(572.125,63.253,cs),
(637.415,266.599,o),
(431.051,461.602,o),
(523.157,659.734,cs),
(532.484,680.59,o),
(547.641,700.404,o),
(572.125,703.532,cs),
(600.107,706.66,o),
(624.591,684.762,o),
(619.927,659.734,c)
);
}
);
width = 654;
},
{
layerId = "A0B93036-4938-4FDF-B53E-670010F591C3";
shapes = (
{
attr = {
strokeWidth = 50;
strokeHeight = 100;
lineCapEnd = 1;
lineCapStart = 1;
};
closed = 0;
nodes = (
(34.645,42.397,l),
(31.147,17.37,o),
(54.465,-4.529,o),
(83.613,-1.401,cs),
(108.097,1.728,o),
(122.088,21.541,o),
(132.581,42.397,c),
(224.687,240.529,o),
(18.323,433.447,o),
(83.613,636.793,cs),
(96.438,675.376,o),
(123.254,710.832,o),
(165.226,709.789,cs),
(206.032,708.746,o),
(229.35,673.291,o),
(245.673,636.793,cs),
(327.286,450.132,o),
(327.286,249.914,o),
(408.899,63.253,cs),
(425.222,26.755,o),
(448.54,-8.7,o),
(490.512,-9.743,cs),
(532.484,-10.786,o),
(559.3,24.669,o),
(572.125,63.253,cs),
(637.415,266.599,o),
(431.051,461.602,o),
(523.157,659.734,cs),
(532.484,680.59,o),
(547.641,700.404,o),
(572.125,703.532,cs),
(600.107,706.66,o),
(624.591,684.762,o),
(619.927,659.734,c)
);
}
);
width = 654;
}
);
unicode = 78;
},
{
glyphname = O;
layers = (
{
attr = {
color = 1;
};
layerId = "787108DE-7A61-4466-9FE6-B6E3F273E4CB";
shapes = (
{
attr = {
fill = 1;
strokeWidth = 10;
strokeColor = (0,255);
};
closed = 1;
nodes = (
(29.505,160.825,o),
(134.555,-14.954,o),
(295.95,-14.954,cs),
(457.345,-14.954,o),
(563.35,160.825,o),
(563.35,351.251,cs),
(563.35,540.632,o),
(457.345,716.41,o),
(295.95,716.41,cs),
(134.555,716.41,o),
(29.505,540.632,o),
(29.505,351.251,cs)
);
}
);
width = 593;
},
{
attr = {
color = 1;
};
layerId = "A0B93036-4938-4FDF-B53E-670010F591C3";
shapes = (
{
attr = {
fill = 1;
strokeWidth = 50;
strokeHeight = 100;
strokeColor = (0,255);
};
closed = 1;
nodes = (
(29.505,160.825,o),
(134.555,-14.954,o),
(295.95,-14.954,cs),
(457.345,-14.954,o),
(563.35,160.825,o),
(563.35,351.251,cs),
(563.35,540.632,o),
(457.345,716.41,o),
(295.95,716.41,cs),
(134.555,716.41,o),
(29.505,540.632,o),
(29.505,351.251,cs)
);
}
);
width = 593;
}
);
unicode = 79;
},
{
glyphname = P;
leftMetricsKey = B;
rightMetricsKey = B;
layers = (
{
attr = {
color = 1;
};
layerId = "787108DE-7A61-4466-9FE6-B6E3F273E4CB";
shapes = (
{
attr = {
fill = 1;
strokeWidth = 10;
strokeColor = (0,255);
lineCapEnd = 1;
lineCapStart = 1;
};
closed = 0;
nodes = (
(55.34,42.132,l),
(50.882,31.544,o),
(53.067,19.749,o),
(59.441,11.164,cs),
(64.83,3.907,o),
(73.211,-1.057,o),
(83.104,-1.057,cs),
(92.533,-1.057,o),
(100.786,3.453,o),
(106.407,10.16,cs),
(113.659,18.814,o),
(116.531,31.125,o),
(111.896,42.132,c),
(111.896,675.565,l)
);
},
{
attr = {
fill = 1;
strokeWidth = 10;
strokeColor = (0,255);
lineCapEnd = 1;
lineCapStart = 1;
};
closed = 0;
nodes = (
(58.424,373.245,l),
(-11.5,564.508,o),
(141.717,718.753,o),
(301.103,720.81,cs),
(376.169,721.838,o),
(453.292,689.961,o),
(509.848,611.81,cs),
(547.895,558.339,o),
(563.32,503.839,o),
(562.292,451.395,cs),
(560.235,312.575,o),
(436.839,195.349,o),
(301.103,190.207,cs),
(237.349,188.151,o),
(170.509,210.773,o),
(111.896,267.33,c)
);
}
);
width = 594;
},
{
layerId = "A0B93036-4938-4FDF-B53E-670010F591C3";
shapes = (
{
attr = {
strokeWidth = 50;
strokeHeight = 100;
lineCapEnd = 1;
lineCapStart = 1;
};
closed = 0;
nodes = (
(55.34,42.132,l),
(50.882,31.544,o),
(53.067,19.749,o),
(59.441,11.164,cs),
(64.83,3.907,o),
(73.211,-1.057,o),
(83.104,-1.057,c),
(92.533,-1.057,o),
(100.786,3.453,o),
(106.407,10.16,cs),
(113.659,18.814,o),
(116.531,31.125,o),
(111.896,42.132,c),
(111.896,675.565,l)
);
},
{
attr = {
strokeWidth = 50;
strokeHeight = 100;
lineCapEnd = 1;
lineCapStart = 1;
};
closed = 0;
nodes = (
(58.424,373.245,l),
(-11.5,564.508,o),
(141.717,718.753,o),
(301.103,720.81,cs),
(376.169,721.838,o),
(453.292,689.961,o),
(509.848,611.81,cs),
(547.895,558.339,o),
(563.32,503.839,o),
(562.292,451.395,cs),
(560.235,312.575,o),
(436.839,195.349,o),
(301.103,190.207,cs),
(237.349,188.151,o),
(170.509,210.773,o),
(111.896,267.33,c)
);
}
);
width = 594;
}
);
unicode = 80;
},
{
glyphname = Q;
layers = (
{
attr = {
color = 1;
};
layerId = "787108DE-7A61-4466-9FE6-B6E3F273E4CB";
shapes = (
{
attr = {
fill = 1;
strokeWidth = 10;
strokeColor = (0,255);
lineCapEnd = 1;
lineCapStart = 1;
};
closed = 1;
nodes = (
(30,155,o),
(149,-25,o),
(329,-25,cs),
(509,-25,o),
(628,155,o),
(628,349,cs),
(628,543,o),
(509,722,o),
(329,722,cs),
(149,722,o),
(30,543,o),
(30,349,cs)
);
},
{
attr = {
fill = 1;
strokeWidth = 10;
strokeColor = (0,255);
lineCapEnd = 1;
lineCapStart = 1;
};
closed = 0;
nodes = (
(210,274,l),
(249,274,o),
(284,250,o),
(299,214,cs),
(358,74,o),
(156,20,o),
(60,-85,cs),
(30,-117,o),
(28,-164,o),
(60,-174,cs),
(83,-181,o),
(101,-159,o),
(120,-144,cs),
(206,-75,o),
(314,-166,o),
(419,-174,cs),
(515,-182,o),
(604,-119,o),
(628,-25,c)
);
}
);
width = 659;
},
{
attr = {
color = 1;
};
layerId = "A0B93036-4938-4FDF-B53E-670010F591C3";
shapes = (
{
attr = {
fill = 1;
strokeWidth = 50;
strokeHeight = 100;
strokeColor = (0,255);
lineCapEnd = 1;
lineCapStart = 1;
};
closed = 1;
nodes = (
(30,155,o),
(149,-25,o),
(329,-25,cs),
(509,-25,o),
(628,155,o),
(628,349,cs),
(628,543,o),
(509,722,o),
(329,722,cs),
(149,722,o),
(30,543,o),
(30,349,cs)
);
},
{
attr = {
fill = 1;
strokeWidth = 50;
strokeHeight = 100;
strokeColor = (0,255);
lineCapEnd = 1;
lineCapStart = 1;
};
closed = 0;
nodes = (
(210,274,l),
(249,274,o),
(284,250,o),
(299,214,cs),
(358,74,o),
(156,20,o),
(60,-85,cs),
(30,-117,o),
(28,-164,o),
(60,-174,cs),
(83,-181,o),
(101,-159,o),
(120,-144,cs),
(206,-75,o),
(314,-166,o),
(419,-174,cs),
(515,-182,o),
(604,-119,o),
(628,-25,c)
);
}
);
width = 659;
}
);
unicode = 81;
},
{
glyphname = R;
rightMetricsKey = B;
layers = (
{
attr = {
color = 1;
};
layerId = "787108DE-7A61-4466-9FE6-B6E3F273E4CB";
shapes = (
{
attr = {
fill = 1;
strokeWidth = 10;
strokeColor = (0,255);
lineCapEnd = 1;
lineCapStart = 1;
};
closed = 0;
nodes = (
(64,43.092,l),
(59.369,31.696,o),
(62.118,19.668,o),
(69.223,11.21,cs),
(74.936,4.409,o),
(83.466,-0.084,o),
(93.24,-0.084,cs),
(103.015,-0.084,o),
(111.13,4.409,o),
(116.383,11.21,cs),
(122.916,19.668,o),
(125.023,31.696,o),
(120.392,43.092,c),
(120.392,688.676,l)
);
},
{
attr = {
fill = 1;
strokeWidth = 10;
strokeColor = (0,255);
lineCapEnd = 1;
lineCapStart = 1;
};
closed = 0;
nodes = (
(67.133,467.656,l),
(36.848,623.912,o),
(167.386,728.768,o),
(294.79,722.6,cs),
(361.625,719.516,o),
(427.416,686.62,o),
(470.233,613.632,cs),
(493.207,574.568,o),
(502.606,536.532,o),
(502.606,499.524,cs),
(501.562,386.444,o),
(402.353,291.868,o),
(290.613,283.644,cs),
(233.177,279.532,o),
(172.607,298.036,o),
(120.392,348.408,c),
(497.384,44.12,l),
(493.402,33.481,o),
(495.617,22.537,o),
(501.835,14.777,cs),
(507.032,8.29,o),
(515.026,4.028,o),
(524.536,4.028,cs),
(536.257,4.028,o),
(545.676,10.503,o),
(550.393,19.637,cs),
(554.082,26.78,o),
(554.896,35.549,o),
(551.688,44.12,c)
);
}
);
width = 585;
},
{
layerId = "A0B93036-4938-4FDF-B53E-670010F591C3";
shapes = (
{
attr = {
strokeWidth = 50;
strokeHeight = 100;
lineCapEnd = 1;
lineCapStart = 1;
};
closed = 0;
nodes = (
(64,43.092,l),
(59.369,31.696,o),
(62.118,19.668,o),
(69.223,11.21,cs),
(74.936,4.409,o),
(83.466,-0.084,o),
(93.24,-0.084,cs),
(103.015,-0.084,o),
(111.13,4.409,o),
(116.383,11.21,cs),
(122.916,19.668,o),
(125.023,31.696,o),
(120.392,43.092,c),
(120.392,688.676,l)
);
},
{
attr = {
strokeWidth = 50;
strokeHeight = 100;
lineCapEnd = 1;
lineCapStart = 1;
};
closed = 0;
nodes = (
(67.133,467.656,l),
(36.848,623.912,o),
(167.386,728.768,o),
(294.79,722.6,cs),
(361.625,719.516,o),
(427.416,686.62,o),
(470.233,613.632,cs),
(493.207,574.568,o),
(502.606,536.532,o),
(502.606,499.524,cs),
(501.562,386.444,o),
(402.353,291.868,o),
(290.613,283.644,cs),
(233.177,279.532,o),
(172.607,298.036,o),
(120.392,348.408,c),
(497.384,44.12,l),
(493.402,33.481,o),
(495.617,22.537,o),
(501.835,14.777,cs),
(507.032,8.29,o),
(515.026,4.028,o),
(524.536,4.028,cs),
(536.257,4.028,o),
(545.676,10.503,o),
(550.393,19.637,cs),
(554.082,26.78,o),
(554.896,35.549,o),
(551.688,44.12,c)
);
}
);
width = 585;
}
);
unicode = 82;
},
{
glyphname = S;
layers = (
{
attr = {
color = 1;
};
layerId = "787108DE-7A61-4466-9FE6-B6E3F273E4CB";
shapes = (
{
attr = {
fill = 1;
strokeWidth = 10;
strokeColor = (0,255);
lineCapEnd = 1;
lineCapStart = 1;
};
closed = 0;
nodes = (
(538.461,497.354,l),
(513.27,617.008,o),
(412.509,706.224,o),
(290.755,716.72,cs),
(171.101,727.216,o),
(61.942,649.546,o),
(71.389,541.437,cs),
(92.381,306.326,o),
(479.683,418.634,o),
(538.461,220.259,cs),
(578.346,89.059,o),
(446.096,-31.645,o),
(290.755,-13.802,cs),
(170.051,-0.157,o),
(70.339,86.96,o),
(42,205.565,c)
);
}
);
width = 582;
},
{
layerId = "A0B93036-4938-4FDF-B53E-670010F591C3";
shapes = (
{
attr = {
strokeWidth = 50;
strokeHeight = 100;
lineCapEnd = 1;
lineCapStart = 1;
};
closed = 0;
nodes = (
(538.461,497.354,l),
(513.27,617.008,o),
(412.509,706.224,o),
(290.755,716.72,cs),
(171.101,727.216,o),
(61.942,649.546,o),
(71.389,541.437,cs),
(92.381,306.326,o),
(479.683,418.634,o),
(538.461,220.259,cs),
(578.346,89.059,o),
(446.096,-31.645,o),
(290.755,-13.802,cs),
(170.051,-0.157,o),
(70.339,86.96,o),
(42,205.565,c)
);
}
);
width = 582;
}
);
unicode = 83;
},
{
glyphname = T;
layers = (
{
attr = {
color = 1;
};
layerId = "787108DE-7A61-4466-9FE6-B6E3F273E4CB";
shapes = (
{
attr = {
fill = 1;
strokeWidth = 10;
strokeColor = (0,255);
lineCapEnd = 1;
lineCapStart = 1;
};
closed = 0;
nodes = (
(21,637,l),
(26,652,o),
(35,665,o),
(47,675,cs),
(137,753,o),
(247,637,o),
(354,637,cs),
(461,637,o),
(572,753,o),
(661,675,cs),
(673,665,o),
(682,652,o),
(687,637,c)
);
},
{
attr = {
fill = 1;
strokeWidth = 10;
strokeColor = (0,255);
lineCapEnd = 1;
lineCapStart = 1;
};
closed = 0;
nodes = (
(354,636,l),
(354,0,l)
);
}
);
width = 708;
},
{
layerId = "A0B93036-4938-4FDF-B53E-670010F591C3";
shapes = (
{
attr = {
strokeWidth = 50;
strokeHeight = 100;
lineCapEnd = 1;
lineCapStart = 1;
};
closed = 0;
nodes = (
(21,637,l),
(26,652,o),
(35,665,o),
(47,675,cs),
(137,753,o),
(247,637,o),
(354,637,cs),
(461,637,o),
(572,753,o),
(661,675,cs),
(673,665,o),
(682,652,o),
(687,637,c)
);
},
{
attr = {
strokeWidth = 50;
strokeHeight = 100;
lineCapEnd = 1;
lineCapStart = 1;
};
closed = 0;
nodes = (
(354,636,l),
(354,0,l)
);
}
);
width = 708;
}
);
unicode = 84;
},
{
glyphname = U;
layers = (
{
attr = {
color = 1;
};
layerId = "787108DE-7A61-4466-9FE6-B6E3F273E4CB";
shapes = (
{
attr = {
fill = 1;
strokeWidth = 10;
strokeColor = (0,255);
lineCapEnd = 1;
lineCapStart = 1;
};
closed = 0;
nodes = (
(64.06,655.504,l),
(57.57,666.322,o),
(59.283,678.554,o),
(65.796,687.318,cs),
(71.737,695.312,o),
(81.672,700.42,o),
(93.018,698.94,cs),
(100.52,698.107,o),
(106.678,694.25,o),
(111.358,688.587,cs),
(118.289,680.2,o),
(121.975,667.852,o),
(121.975,655.504,cs),
(121.975,472.45,o),
(9.248,292.499,o),
(93.018,122.891,cs),
(144.728,18.436,o),
(227.464,-32.239,o),
(346.397,-20.863,cs),
(442.577,-12.59,o),
(512.903,37.052,o),
(555.305,122.891,cs),
(640.11,292.499,o),
(512.903,472.45,o),
(512.903,655.504,cs),
(512.903,669.405,o),
(518.155,682.201,o),
(526.372,690.461,cs),
(534.049,698.178,o),
(544.315,701.937,o),
(555.305,698.94,cs),
(561.956,697.19,o),
(567.185,693.426,o),
(570.711,688.61,cs),
(577.604,679.197,o),
(577.994,665.766,o),
(569.784,655.504,c)
);
}
);
width = 639;
},
{
layerId = "A0B93036-4938-4FDF-B53E-670010F591C3";
shapes = (
{
attr = {
strokeWidth = 50;
strokeHeight = 100;
lineCapEnd = 1;
lineCapStart = 1;
};
closed = 0;
nodes = (
(64.06,655.504,l),
(57.57,666.322,o),
(59.283,678.554,o),
(65.796,687.318,cs),
(71.737,695.312,o),
(81.672,700.42,o),
(93.018,698.94,cs),
(100.52,698.107,o),
(106.678,694.25,o),
(111.358,688.587,cs),
(118.289,680.2,o),
(121.975,667.852,o),
(121.975,655.504,cs),
(121.975,472.45,o),
(9.248,292.499,o),
(93.018,122.891,cs),
(144.728,18.436,o),
(227.464,-32.239,o),
(346.397,-20.863,cs),
(442.577,-12.59,o),
(512.903,37.052,o),
(555.305,122.891,cs),
(640.11,292.499,o),
(512.903,472.45,o),
(512.903,655.504,cs),
(512.903,669.405,o),
(518.155,682.201,o),
(526.372,690.461,cs),
(534.049,698.178,o),
(544.315,701.937,o),
(555.305,698.94,cs),
(561.956,697.19,o),
(567.185,693.426,o),
(570.711,688.61,cs),
(577.604,679.197,o),
(577.994,665.766,o),
(569.784,655.504,c)
);
}
);
width = 639;
}
);
unicode = 85;
},
{
glyphname = V;
layers = (
{
attr = {
color = 1;
};
layerId = "787108DE-7A61-4466-9FE6-B6E3F273E4CB";
shapes = (
{
attr = {
fill = 1;
strokeWidth = 10;
strokeColor = (0,255);
lineCapEnd = 1;
lineCapStart = 1;
};
closed = 0;
nodes = (
(33,658,l),
(28.397,668.229,o),
(30.072,678.982,o),
(35.751,687.046,cs),
(41.175,694.749,o),
(50.252,700,o),
(61,700,cs),
(69.951,700,o),
(77.812,696.003,o),
(83.266,689.868,cs),
(90.608,681.609,o),
(93.59,669.475,o),
(89,658,c),
(270,43,l),
(270,20,o),
(289,1,o),
(312,1,cs),
(335,1,o),
(354,20,o),
(354,43,c),
(536,658,l),
(531.026,669.053,o),
(533.382,680.717,o),
(540.199,688.941,cs),
(545.718,695.597,o),
(554.158,700,o),
(564,700,cs),
(575.224,700,o),
(584.735,693.715,o),
(589.935,684.81,cs),
(594.464,677.054,o),
(595.724,667.31,o),
(592,658,c)
);
}
);
width = 625;
},
{
layerId = "A0B93036-4938-4FDF-B53E-670010F591C3";
shapes = (
{
attr = {
strokeWidth = 50;
strokeHeight = 100;
lineCapEnd = 1;
lineCapStart = 1;
};
closed = 0;
nodes = (
(33,658,l),
(28.397,668.229,o),
(30.072,678.982,o),
(35.751,687.046,cs),
(41.175,694.749,o),
(50.252,700,o),
(61,700,cs),
(69.951,700,o),
(77.812,696.003,o),
(83.266,689.868,cs),
(90.608,681.609,o),
(93.59,669.475,o),
(89,658,c),
(270,43,l),
(270,20,o),
(289,1,o),
(312,1,cs),
(335,1,o),
(354,20,o),
(354,43,c),
(536,658,l),
(531.026,669.053,o),
(533.382,680.717,o),
(540.199,688.941,cs),
(545.718,695.597,o),
(554.158,700,o),
(564,700,cs),
(575.224,700,o),
(584.735,693.715,o),
(589.935,684.81,cs),
(594.464,677.054,o),
(595.724,667.31,o),
(592,658,c)
);
}
);
width = 625;
}
);
unicode = 86;
},
{
glyphname = W;
layers = (
{
attr = {
color = 1;
};
layerId = "787108DE-7A61-4466-9FE6-B6E3F273E4CB";
shapes = (
{
attr = {
fill = 1;
strokeWidth = 10;
strokeColor = (0,255);
lineCapEnd = 1;
lineCapStart = 1;
};
closed = 0;
nodes = (
(761,664,l),
(764,688,o),
(743,711,o),
(718,707,cs),
(697,704,o),
(683,684,o),
(675,664,cs),
(595,466,o),
(798,254,o),
(698,60,cs),
(678,21,o),
(642,-13,o),
(598,-11,cs),
(554,-10,o),
(519,23,o),
(497,60,cs),
(420,188,o),
(454,344,o),
(454,492,cs),
(454,527,o),
(431,563,o),
(401,563,cs),
(370,563,o),
(348,527,o),
(348,492,cs),
(348,344,o),
(382,188,o),
(305,60,cs),
(283,23,o),
(248,-10,o),
(204,-11,cs),
(160,-13,o),
(124,21,o),
(104,60,cs),
(4,254,o),
(207,466,o),
(127,664,cs),
(119,684,o),
(105,704,o),
(84,707,cs),
(59,711,o),
(38,688,o),
(41,664,c)
);
}
);
width = 792;
},
{
layerId = "A0B93036-4938-4FDF-B53E-670010F591C3";
shapes = (
{
attr = {
strokeWidth = 50;
strokeHeight = 100;
lineCapEnd = 1;
lineCapStart = 1;
};
closed = 0;
nodes = (
(761,664,l),
(764,688,o),
(743,711,o),
(718,707,cs),
(697,704,o),
(683,684,o),
(675,664,c),
(595,466,o),
(798,254,o),
(698,60,cs),
(678,21,o),
(642,-13,o),
(598,-11,cs),
(554,-10,o),
(519,23,o),
(497,60,cs),
(420,188,o),
(454,344,o),
(454,492,cs),
(454,527,o),
(431,563,o),
(401,563,cs),
(370,563,o),
(348,527,o),
(348,492,cs),
(348,344,o),
(382,188,o),
(305,60,cs),
(283,23,o),
(248,-10,o),
(204,-11,cs),
(160,-13,o),
(124,21,o),
(104,60,cs),
(4,254,o),
(207,466,o),
(127,664,cs),
(119,684,o),
(105,704,o),
(84,707,cs),
(59,711,o),
(38,688,o),
(41,664,c)
);
}
);
width = 792;
}
);
unicode = 87;
},
{
glyphname = X;
layers = (
{
attr = {
color = 1;
};
layerId = "787108DE-7A61-4466-9FE6-B6E3F273E4CB";
shapes = (
{
attr = {
fill = 1;
strokeWidth = 10;
strokeColor = (0,255);
lineCapEnd = 1;
lineCapStart = 1;
};
closed = 0;
nodes = (
(26,658,l),
(18.533,668.667,o),
(20.169,681.326,o),
(26.963,690.058,cs),
(32.908,697.698,o),
(42.801,702.333,o),
(54,700,c),
(60.583,698.838,o),
(65.666,695.127,o),
(69.599,689.913,cs),
(75.821,681.661,o),
(79.162,669.643,o),
(81,658,cs),
(107,514,o),
(143,351,o),
(277,351,cs),
(410,351,o),
(446,514,o),
(472,658,cs),
(473.838,669.643,o),
(477.179,681.661,o),
(483.632,689.913,cs),
(487.709,695.128,o),
(493.03,698.838,o),
(500,700,c),
(512.38,702.579,o),
(522.897,696.644,o),
(528.395,687.547,cs),
(533.556,679.008,o),
(534.294,667.683,o),
(528,658,c)
);
},
{
attr = {
fill = 1;
strokeWidth = 10;
strokeColor = (0,255);
lineCapEnd = 1;
lineCapStart = 1;
};
closed = 0;
nodes = (
(26,44,l),
(19,34,o),
(20,22.501,o),
(25.749,14,cs),
(31.499,5.499,o),
(42,-0.001,o),
(54,1.999,c),
(62.358,3.965,o),
(68.298,9.557,o),
(72.535,16.992,cs),
(76.916,24.68,o),
(79.475,34.34,o),
(81,43.999,cs),
(110,217.999,o),
(115,428.999,o),
(277,428.999,cs),
(438,428.999,o),
(444,217.999,o),
(472,43.999,cs),
(473.525,34.34,o),
(476.084,24.681,o),
(480.596,16.993,cs),
(484.96,9.557,o),
(491.151,3.965,o),
(500,1.999,c),
(511.848,0.024,o),
(521.99,5.361,o),
(527.659,13.677,cs),
(533.473,22.207,o),
(534.582,33.872,o),
(528,43.999,c)
);
}
);
width = 554;
},
{
layerId = "A0B93036-4938-4FDF-B53E-670010F591C3";
shapes = (
{
attr = {
strokeWidth = 50;
strokeHeight = 100;
lineCapEnd = 1;
lineCapStart = 1;
};
closed = 0;
nodes = (
(26,658,l),
(18.533,668.667,o),
(20.169,681.326,o),
(26.963,690.058,cs),
(32.908,697.698,o),
(42.801,702.333,o),
(54,700,cs),
(60.583,698.838,o),
(65.666,695.127,o),
(69.599,689.913,cs),
(75.821,681.661,o),
(79.162,669.643,o),
(81,658,cs),
(107,514,o),
(143,351,o),
(277,351,cs),
(410,351,o),
(446,514,o),
(472,658,cs),
(473.838,669.643,o),
(477.179,681.661,o),
(483.632,689.913,cs),
(487.709,695.128,o),
(493.03,698.838,o),
(500,700,cs),
(512.38,702.579,o),
(522.897,696.644,o),
(528.395,687.547,cs),
(533.556,679.008,o),
(534.294,667.683,o),
(528,658,c)
);
},
{
attr = {
strokeWidth = 50;
strokeHeight = 100;
lineCapEnd = 1;
lineCapStart = 1;
};
closed = 0;
nodes = (
(26,44,l),
(19,34,o),
(20,22.501,o),
(25.749,14,cs),
(31.499,5.499,o),
(42,-0.001,o),
(54,1.999,c),
(62.358,3.965,o),
(68.298,9.557,o),
(72.535,16.992,cs),
(76.916,24.68,o),
(79.475,34.34,o),
(81,43.999,cs),
(110,217.999,o),
(115,428.999,o),
(277,428.999,cs),
(438,428.999,o),
(444,217.999,o),
(472,43.999,cs),
(473.525,34.34,o),
(476.084,24.681,o),
(480.596,16.993,cs),
(484.96,9.557,o),
(491.151,3.965,o),
(500,1.999,c),
(511.848,0.024,o),
(521.99,5.361,o),
(527.659,13.677,cs),
(533.473,22.207,o),
(534.582,33.872,o),
(528,43.999,c)
);
}
);
width = 554;
}
);
unicode = 88;
},
{
glyphname = Y;
layers = (
{
attr = {
color = 1;
};
layerId = "787108DE-7A61-4466-9FE6-B6E3F273E4CB";
shapes = (
{
attr = {
fill = 1;
strokeWidth = 10;
strokeColor = (0,255);
lineCapEnd = 1;
lineCapStart = 1;
};
closed = 0;
nodes = (
(87,658,l),
(80.903,668.162,o),
(82.292,679.616,o),
(88.152,688.031,cs),
(93.825,696.177,o),
(103.687,701.476,o),
(115,700,cs),
(122.294,699.189,o),
(128.11,695.423,o),
(132.449,689.899,cs),
(138.816,681.791,o),
(142,669.895,o),
(142,658,cs),
(142,616.14,o),
(128.945,575.998,o),
(115.152,536.221,cs),
(95.665,480.023,o),
(74.704,424.555,o),
(87,366,cs),
(109,257,o),
(222,198,o),
(338,198,cs),
(453,198,o),
(566,257,o),
(588,366,cs),
(600.297,424.555,o),
(579.335,480.024,o),
(559.848,536.221,cs),
(546.055,575.998,o),
(533,616.14,o),
(533,658,cs),
(533,671.474,o),
(538.102,683.873,o),
(546.081,691.858,cs),
(553.498,699.282,o),
(563.401,702.891,o),
(574,700,cs),
(581.643,697.989,o),
(587.345,693.226,o),
(590.648,687.275,cs),
(595.557,678.432,o),
(595.173,666.966,o),
(588,658,c)
);
},
{
attr = {
fill = 1;
strokeWidth = 10;
strokeColor = (0,255);
lineCapEnd = 1;
lineCapStart = 1;
};
closed = 0;
nodes = (
(591,421,l),
(591,368.906,o),
(610.729,314.457,o),
(626.538,260.208,cs),
(639.863,214.486,o),
(650.403,168.906,o),
(644,125,cs),
(632,40,o),
(560,-27,o),
(477,-18,cs),
(414,-11,o),
(367,41,o),
(310,66,cs),
(209,110,o),
(91,93,o),
(31,0,c)
);
}
);
width = 676;
},
{
layerId = "A0B93036-4938-4FDF-B53E-670010F591C3";
shapes = (
{
attr = {
strokeWidth = 50;
strokeHeight = 100;
lineCapEnd = 1;
lineCapStart = 1;
};
closed = 0;
nodes = (
(87,658,l),
(80.903,668.162,o),
(82.292,679.616,o),
(88.152,688.031,cs),
(93.825,696.177,o),
(103.687,701.476,o),
(115,700,cs),
(122.294,699.189,o),
(128.11,695.423,o),
(132.449,689.899,cs),
(138.816,681.791,o),
(142,669.895,o),
(142,658,cs),
(142,616.14,o),
(128.945,575.998,o),
(115.152,536.221,cs),
(95.665,480.023,o),
(74.704,424.555,o),
(87,366,cs),
(109,257,o),
(222,198,o),
(338,198,cs),
(453,198,o),
(566,257,o),
(588,366,cs),
(600.297,424.555,o),
(579.335,480.024,o),
(559.848,536.221,cs),
(546.055,575.998,o),
(533,616.14,o),
(533,658,cs),
(533,671.474,o),
(538.102,683.873,o),
(546.081,691.858,cs),
(553.498,699.282,o),
(563.401,702.891,o),
(574,700,cs),
(581.643,697.989,o),
(587.345,693.226,o),
(590.648,687.275,cs),
(595.557,678.432,o),
(595.173,666.966,o),
(588,658,c)
);
},
{
attr = {
strokeWidth = 50;
strokeHeight = 100;
lineCapEnd = 1;
lineCapStart = 1;
};
closed = 0;
nodes = (
(591,421,l),
(591,368.906,o),
(610.729,314.457,o),
(626.538,260.208,cs),
(639.863,214.486,o),
(650.403,168.906,o),
(644,125,cs),
(632,40,o),
(560,-27,o),
(477,-18,cs),
(414,-11,o),
(367,41,o),
(310,66,cs),
(209,110,o),
(91,93,o),
(31,0,c)
);
}
);
width = 676;
}
);
unicode = 89;
},
{
glyphname = Z;
layers = (
{
attr = {
color = 1;
};
layerId = "787108DE-7A61-4466-9FE6-B6E3F273E4CB";
shapes = (
{
attr = {
fill = 1;
strokeWidth = 10;
strokeColor = (0,255);
lineCapEnd = 1;
lineCapStart = 1;
};
closed = 0;
nodes = (
(73,658,l),
(70.856,668.717,o),
(73.675,678.883,o),
(79.565,686.607,cs),
(87.414,696.901,o),
(100.717,702.857,o),
(115,700,cs),
(135,696,o),
(145,676,o),
(157,658,cs),
(238,531,o),
(423,531,o),
(505,658,cs),
(516,676,o),
(527,696,o),
(547,700,cs),
(572,705,o),
(594,683,o),
(589,658,c),
(31,45,l),
(26,20,o),
(48,-2,o),
(73,3,cs),
(93,7,o),
(104,27,o),
(115,45,cs),
(208,194,o),
(426,194,o),
(519,45,cs),
(530,27,o),
(541,7,o),
(561,3,cs),
(572.4,0.72,o),
(582.969,4.055,o),
(590.714,10.728,cs),
(599.954,18.689,o),
(605.176,31.4,o),
(603,45,c)
);
}
);
width = 634;
},
{
layerId = "A0B93036-4938-4FDF-B53E-670010F591C3";
shapes = (
{
attr = {
strokeWidth = 50;
strokeHeight = 100;
lineCapEnd = 1;
lineCapStart = 1;
};
closed = 0;
nodes = (
(73,658,l),
(70.856,668.717,o),
(73.675,678.883,o),
(79.565,686.607,cs),
(87.414,696.901,o),
(100.717,702.857,o),
(115,700,cs),
(135,696,o),
(145,676,o),
(157,658,cs),
(238,531,o),
(423,531,o),
(505,658,cs),
(516,676,o),
(527,696,o),
(547,700,cs),
(572,705,o),
(594,683,o),
(589,658,c),
(31,45,l),
(26,20,o),
(48,-2,o),
(73,3,cs),
(93,7,o),
(104,27,o),
(115,45,cs),
(208,194,o),
(426,194,o),
(519,45,cs),
(530,27,o),
(541,7,o),
(561,3,cs),
(572.4,0.72,o),
(582.969,4.055,o),
(590.714,10.728,cs),
(599.954,18.689,o),
(605.176,31.4,o),
(603,45,c)
);
}
);
width = 634;
}
);
unicode = 90;
},
{
glyphname = registered;
layers = (
{
attr = {
color = 1;
};
layerId = "787108DE-7A61-4466-9FE6-B6E3F273E4CB";
shapes = (
{
attr = {
fill = 1;
strokeWidth = 10;
strokeColor = (0,255);
lineCapEnd = 1;
lineCapStart = 1;
};
closed = 0;
nodes = (
(33,42,l),
(28.776,31.967,o),
(30.685,21.377,o),
(36.521,13.615,cs),
(41.737,6.678,o),
(50.089,2,o),
(60,2,cs),
(70.751,2,o),
(79.667,7.504,o),
(84.736,15.425,cs),
(89.569,22.977,o),
(90.905,32.727,o),
(87,42,c),
(87,680,l)
);
},
{
attr = {
fill = 1;
strokeWidth = 10;
strokeColor = (0,255);
lineCapEnd = 1;
lineCapStart = 1;
};
closed = 0;
nodes = (
(33,477,l),
(2,712,o),
(312,825,o),
(440,626,cs),
(587,397,o),
(289,144,o),
(87,327,c)
);
},
{
attr = {
fill = 1;
strokeWidth = 10;
strokeColor = (0,255);
lineCapEnd = 1;
lineCapStart = 1;
};
closed = 0;
nodes = (
(87,327,l),
(190,440,o),
(375,411,o),
(440,273,cs),
(490,165,o),
(479,-4,o),
(603,2,cs),
(647,3,o),
(682,39,o),
(684,83,c)
);
}
);
width = 605;
},
{
attr = {
color = 1;
};
layerId = "A0B93036-4938-4FDF-B53E-670010F591C3";
shapes = (
{
attr = {
fill = 1;
strokeWidth = 50;
strokeHeight = 100;
strokeColor = (0,255);
lineCapEnd = 1;
lineCapStart = 1;
};
closed = 0;
nodes = (
(33,42,l),
(28.776,31.967,o),
(30.685,21.377,o),
(36.521,13.615,cs),
(41.737,6.678,o),
(50.089,2,o),
(60,2,cs),
(70.751,2,o),
(79.667,7.504,o),
(84.736,15.425,cs),
(89.569,22.977,o),
(90.905,32.727,o),
(87,42,c),
(87,680,l)
);
},
{
attr = {
fill = 1;
strokeWidth = 50;
strokeHeight = 100;
strokeColor = (0,255);
lineCapEnd = 1;
lineCapStart = 1;
};
closed = 0;
nodes = (
(33,477,l),
(2,712,o),
(312,825,o),
(440,626,cs),
(587,397,o),
(289,144,o),
(87,327,c)
);
},
{
attr = {
fill = 1;
strokeWidth = 50;
strokeHeight = 100;
strokeColor = (0,255);
lineCapEnd = 1;
lineCapStart = 1;
};
closed = 0;
nodes = (
(87,327,l),
(190,440,o),
(375,411,o),
(440,273,cs),
(490,165,o),
(479,-4,o),
(603,2,cs),
(647,3,o),
(682,39,o),
(684,83,c)
);
}
);
width = 605;
}
);
unicode = 174;
},
{
glyphname = two;
layers = (
{
attr = {
color = 1;
};
layerId = "787108DE-7A61-4466-9FE6-B6E3F273E4CB";
shapes = (
{
attr = {
fill = 1;
strokeWidth = 10;
strokeColor = (0,255);
lineCapEnd = 1;
lineCapStart = 1;
};
closed = 0;
nodes = (
(120,395,l),
(37,544,o),
(158,724,o),
(328,706,cs),
(441,694,o),
(521,586,o),
(491,480,cs),
(485,459,o),
(476,440,o),
(462,423,c),
(21,43,l),
(16,18,o),
(38,-4,o),
(63,0,c),
(84,4,o),
(95,25,o),
(106,43,cs),
(202,194,o),
(424,194,o),
(519,43,c),
(531,25,o),
(541,4,o),
(562,0,c),
(571.423,-1.508,o),
(580.562,0.678,o),
(588.024,5.327,cs),
(600.36,13.011,o),
(608.115,27.423,o),
(605,43,c)
);
}
);
width = 626;
},
{
attr = {
color = 1;
};
layerId = "A0B93036-4938-4FDF-B53E-670010F591C3";
shapes = (
{
attr = {
fill = 1;
strokeWidth = 50;
strokeHeight = 100;
strokeColor = (0,255);
lineCapEnd = 1;
lineCapStart = 1;
};
closed = 0;
nodes = (
(120,395,l),
(37,544,o),
(158,724,o),
(328,706,cs),
(441,694,o),
(521,586,o),
(491,480,c),
(485,459,o),
(476,440,o),
(462,423,c),
(21,43,l),
(16,18,o),
(38,-4,o),
(63,0,c),
(84,4,o),
(95,25,o),
(106,43,cs),
(202,194,o),
(424,194,o),
(519,43,c),
(531,25,o),
(541,4,o),
(562,0,c),
(571.423,-1.508,o),
(580.562,0.678,o),
(588.024,5.327,cs),
(600.36,13.011,o),
(608.115,27.423,o),
(605,43,c)
);
}
);
width = 626;
}
);
unicode = 50;
},
{
glyphname = a;
layers = (
{
layerId = "787108DE-7A61-4466-9FE6-B6E3F273E4CB";
shapes = (
{
attr = {
strokeWidth = 10;
lineCapEnd = 1;
lineCapStart = 1;
};
closed = 0;
nodes = (
(55,378,l),
(76,459,o),
(149,516,o),
(233,515,cs),
(344,514,o),
(430,420,o),
(421,310,c),
(421,53,l),
(414.913,37.782,o),
(419.201,21.822,o),
(429.579,11.663,cs),
(436.249,5.133,o),
(445.436,1,o),
(456,1,cs),
(468.639,1,o),
(479.387,7.38,o),
(485.948,16.809,cs),
(492.883,26.777,o),
(495.139,40.153,o),
(490,53,c)
);
},
{
attr = {
strokeWidth = 10;
lineCapEnd = 1;
lineCapStart = 1;
};
closed = 0;
nodes = (
(421,310,l),
(421,95,o),
(111,287,o),
(45,173,cs),
(-9,81,o),
(95,-35,o),
(233,-9,cs),
(326,9,o),
(400,80,o),
(421,173,c)
);
}
);
width = 523;
},
{
attr = {
color = 1;
};
layerId = "A0B93036-4938-4FDF-B53E-670010F591C3";
shapes = (
{
attr = {
fill = 1;
strokeWidth = 50;
strokeHeight = 100;
strokeColor = (0,255);
lineCapEnd = 1;
lineCapStart = 1;
};
closed = 0;
nodes = (
(55,378,l),
(76,459,o),
(149,516,o),
(233,515,cs),
(344,514,o),
(430,420,o),
(421,310,c),
(421,53,l),
(414.913,37.782,o),
(419.201,21.822,o),
(429.579,11.663,cs),
(436.249,5.133,o),
(445.436,1,o),
(456,1,cs),
(468.639,1,o),
(479.387,7.38,o),
(485.948,16.809,cs),
(492.883,26.777,o),
(495.139,40.153,o),
(490,53,c)
);
},
{
attr = {
fill = 1;
strokeWidth = 50;
strokeHeight = 100;
strokeColor = (0,255);
lineCapEnd = 1;
lineCapStart = 1;
};
closed = 0;
nodes = (
(421,310,l),
(421,95,o),
(111,287,o),
(45,173,cs),
(-9,81,o),
(95,-35,o),
(233,-9,cs),
(326,9,o),
(400,80,o),
(421,173,c)
);
}
);
width = 523;
}
);
unicode = 97;
},
{
glyphname = b;
layers = (
{
attr = {
color = 1;
};
layerId = "787108DE-7A61-4466-9FE6-B6E3F273E4CB";
shapes = (
{
attr = {
fill = 1;
strokeWidth = 10;
strokeColor = (0,255);
lineCapEnd = 1;
lineCapStart = 1;
};
closed = 1;
nodes = (
(114.016,413.68,o),
(200.32,518.544,o),
(314.464,509.264,cs),
(428.608,499.056,o),
(495.424,382.128,o),
(497.28,259.632,cs),
(500.064,131.568,o),
(432.32,6.288,o),
(314.464,-3.92,cs),
(172.48,-15.984,o),
(75.04,134.352,o),
(97.312,292.112,cs)
);
},
{
attr = {
fill = 1;
strokeWidth = 10;
strokeColor = (0,255);
lineCapEnd = 1;
lineCapStart = 1;
};
closed = 0;
nodes = (
(94,-1,l),
(94,646,l),
(99.813,660.532,o),
(96.165,676.077,o),
(86.788,686.548,cs),
(80.034,694.091,o),
(70.306,699,o),
(59,699,cs),
(47.005,699,o),
(36.589,693.474,o),
(29.681,685.14,cs),
(21.039,674.714,o),
(17.887,659.894,o),
(24,646,c)
);
}
);
width = 536;
},
{
attr = {
color = 1;
};
layerId = "A0B93036-4938-4FDF-B53E-670010F591C3";
shapes = (
{
attr = {
fill = 1;
strokeWidth = 50;
strokeHeight = 100;
strokeColor = (0,255);
lineCapEnd = 1;
lineCapStart = 1;
};
closed = 1;
nodes = (
(114.016,413.68,o),
(200.32,518.544,o),
(314.464,509.264,cs),
(428.608,499.056,o),
(495.424,382.128,o),
(497.28,259.632,cs),
(500.064,131.568,o),
(432.32,6.288,o),
(314.464,-3.92,cs),
(172.48,-15.984,o),
(75.04,134.352,o),
(97.312,292.112,cs)
);
},
{
attr = {
fill = 1;
strokeWidth = 50;
strokeHeight = 100;
strokeColor = (0,255);
lineCapEnd = 1;
lineCapStart = 1;
};
closed = 0;
nodes = (
(94,-1,l),
(94,646,l),
(99.813,660.532,o),
(96.165,676.077,o),
(86.788,686.548,cs),
(80.034,694.091,o),
(70.306,699,o),
(59,699,cs),
(47.005,699,o),
(36.589,693.474,o),
(29.681,685.14,cs),
(21.039,674.714,o),
(17.887,659.894,o),
(24,646,c)
);
}
);
width = 536;
}
);
unicode = 98;
},
{
glyphname = c;
layers = (
{
layerId = "787108DE-7A61-4466-9FE6-B6E3F273E4CB";
shapes = (
{
attr = {
strokeWidth = 10;
lineCapEnd = 1;
lineCapStart = 1;
};
closed = 0;
nodes = (
(421,433,l),
(384,482,o),
(332,513,o),
(269,513,cs),
(143,513,o),
(60,387,o),
(60,252,cs),
(60,116,o),
(143,-10,o),
(269,-10,cs),
(332,-10,o),
(384,22,o),
(421,70,c)
);
}
);
width = 482;
},
{
layerId = "A0B93036-4938-4FDF-B53E-670010F591C3";
shapes = (
{
attr = {
strokeWidth = 50;
strokeHeight = 100;
lineCapEnd = 1;
lineCapStart = 1;
};
closed = 0;
nodes = (
(421,433,l),
(384,482,o),
(332,513,o),
(269,513,cs),
(143,513,o),
(60,387,o),
(60,252,cs),
(60,116,o),
(143,-10,o),
(269,-10,cs),
(332,-10,o),
(384,22,o),
(421,70,c)
);
}
);
width = 482;
}
);
unicode = 99;
},
{
glyphname = d;
layers = (
{
attr = {
color = 1;
};
layerId = "787108DE-7A61-4466-9FE6-B6E3F273E4CB";
shapes = (
{
attr = {
fill = 1;
strokeWidth = 10;
strokeColor = (0,255);
lineCapEnd = 1;
lineCapStart = 1;
};
closed = 1;
nodes = (
(421.984,413.68,o),
(335.68,518.544,o),
(221.536,509.264,cs),
(107.392,499.056,o),
(40.576,382.128,o),
(38.72,259.632,cs),
(35.936,131.568,o),
(103.68,6.288,o),
(221.536,-3.92,cs),
(363.52,-15.984,o),
(460.96,134.352,o),
(438.688,292.112,cs)
);
},
{
attr = {
fill = 1;
strokeWidth = 10;
strokeColor = (0,255);
lineCapEnd = 1;
lineCapStart = 1;
};
closed = 0;
nodes = (
(512,52,l),
(517.715,39.011,o),
(515.332,25.211,o),
(507.935,14.95,cs),
(501.096,5.463,o),
(489.971,-1,o),
(477,-1,cs),
(465.251,-1,o),
(455.207,4.302,o),
(448.432,12.351,cs),
(439.637,22.8,o),
(436.351,37.878,o),
(442,52,c),
(442,699,l)
);
}
);
width = 536;
},
{
attr = {
color = 1;
};
layerId = "A0B93036-4938-4FDF-B53E-670010F591C3";
shapes = (
{
attr = {
fill = 1;
strokeWidth = 50;
strokeHeight = 100;
strokeColor = (0,255);
lineCapEnd = 1;
lineCapStart = 1;
};
closed = 1;
nodes = (
(421.984,413.68,o),
(335.68,518.544,o),
(221.536,509.264,cs),
(107.392,499.056,o),
(40.576,382.128,o),
(38.72,259.632,cs),
(35.936,131.568,o),
(103.68,6.288,o),
(221.536,-3.92,cs),
(363.52,-15.984,o),
(460.96,134.352,o),
(438.688,292.112,cs)
);
},
{
attr = {
fill = 1;
strokeWidth = 50;
strokeHeight = 100;
strokeColor = (0,255);
lineCapEnd = 1;
lineCapStart = 1;
};
closed = 0;
nodes = (
(512,52,l),
(517.715,39.011,o),
(515.332,25.211,o),
(507.935,14.95,cs),
(501.096,5.463,o),
(489.971,-1,o),
(477,-1,cs),
(465.251,-1,o),
(455.207,4.302,o),
(448.432,12.351,cs),
(439.637,22.8,o),
(436.351,37.878,o),
(442,52,c),
(442,699,l)
);
}
);
width = 536;
}
);
unicode = 100;
},
{
glyphname = e;
layers = (
{
attr = {
color = 1;
};
layerId = "787108DE-7A61-4466-9FE6-B6E3F273E4CB";
shapes = (
{
attr = {
fill = 1;
strokeWidth = 10;
strokeColor = (0,255);
lineCapEnd = 1;
lineCapStart = 1;
};
closed = 0;
nodes = (
(447,171,l),
(430,76,o),
(354,3,o),
(259,-10,cs),
(135,-26,o),
(57,59,o),
(45,174,cs),
(42.098,202.299,o),
(89.478,213.66,o),
(152.423,225,cs),
(262.97,244.916,o),
(421.522,264.855,o),
(440,377,cs),
(454,465,o),
(360,531,o),
(259,514,cs),
(181,500,o),
(117,467,o),
(70,376,cs),
(18,275,o),
(39,139,o),
(74,79,c)
);
}
);
width = 488;
},
{
layerId = "A0B93036-4938-4FDF-B53E-670010F591C3";
shapes = (
{
attr = {
strokeWidth = 50;
strokeHeight = 100;
lineCapEnd = 1;
lineCapStart = 1;
};
closed = 0;
nodes = (
(447,171,l),
(430,76,o),
(354,3,o),
(259,-10,cs),
(135,-26,o),
(57,59,o),
(45,174,cs),
(42.098,202.299,o),
(89.478,213.66,o),
(152.423,225,cs),
(262.97,244.916,o),
(421.522,264.855,o),
(440,377,cs),
(454,465,o),
(360,531,o),
(259,514,cs),
(181,500,o),
(117,467,o),
(70,376,cs),
(18,275,o),
(39,139,o),
(74,79,c)
);
}
);
width = 488;
}
);
unicode = 101;
},
{
glyphname = f;
layers = (
{
layerId = "787108DE-7A61-4466-9FE6-B6E3F273E4CB";
shapes = (
{
attr = {
strokeWidth = 10;
lineCapEnd = 1;
lineCapStart = 1;
};
closed = 0;
nodes = (
(90,2,l),
(90,525,l),
(73,614,o),
(139,697,o),
(229,700,cs),
(295,702,o),
(353,659,o),
(369,595,c)
);
},
{
attr = {
strokeWidth = 10;
lineCapEnd = 1;
lineCapStart = 1;
};
closed = 0;
nodes = (
(20,493,l),
(229,493,l)
);
}
);
width = 340;
},
{
layerId = "A0B93036-4938-4FDF-B53E-670010F591C3";
shapes = (
{
attr = {
strokeWidth = 50;
strokeHeight = 100;
lineCapEnd = 1;
lineCapStart = 1;
};
closed = 0;
nodes = (
(90,2,l),
(90,525,l),
(73,614,o),
(139,697,o),
(229,700,cs),
(295,702,o),
(353,659,o),
(369,595,c)
);
},
{
attr = {
strokeWidth = 50;
strokeHeight = 100;
lineCapEnd = 1;
lineCapStart = 1;
};
closed = 0;
nodes = (
(20,493,l),
(229,493,l)
);
}
);
width = 340;
}
);
unicode = 102;
},
{
glyphname = g;
layers = (
{
attr = {
color = 1;
};
layerId = "787108DE-7A61-4466-9FE6-B6E3F273E4CB";
shapes = (
{
attr = {
fill = 1;
strokeWidth = 10;
strokeColor = (0,255);
lineCapEnd = 1;
lineCapStart = 1;
};
closed = 1;
nodes = (
(66,415,o),
(152,521,o),
(268,512,cs),
(385,502,o),
(452,383,o),
(454,258,cs),
(457,128,o),
(389,2,o),
(268,-9,cs),
(125,-21,o),
(26,131,o),
(49,292,cs)
);
},
{
attr = {
fill = 1;
strokeWidth = 10;
strokeColor = (0,255);
lineCapEnd = 1;
lineCapStart = 1;
};
closed = 0;
nodes = (
(522,451,l),
(530.222,461.572,o),
(530.511,475.248,o),
(524.892,485.95,cs),
(520.944,493.471,o),
(514.079,499.524,o),
(505,502,cs),
(490.647,505.721,o),
(477.142,500.117,o),
(467.639,489.243,cs),
(459.266,479.661,o),
(454,465.989,o),
(454,451,cs),
(454,39,ls),
(454,4.331,o),
(476.78,-15.452,o),
(504.452,-32.667,cs),
(535.047,-51.701,o),
(571.622,-67.595,o),
(590,-97,cs),
(633,-166,o),
(579,-257,o),
(488,-266,cs),
(371,-277,o),
(296,-149,o),
(184,-131,cs),
(91,-115,o),
(3,-174,o),
(-19,-266,c)
);
}
);
width = 556;
},
{
attr = {
color = 1;
};
layerId = "A0B93036-4938-4FDF-B53E-670010F591C3";
shapes = (
{
attr = {
fill = 1;
strokeWidth = 50;
strokeHeight = 100;
strokeColor = (0,255);
lineCapEnd = 1;
lineCapStart = 1;
};
closed = 1;
nodes = (
(66,415,o),
(152,521,o),
(268,512,cs),
(385,502,o),
(452,383,o),
(454,258,cs),
(457,128,o),
(389,2,o),
(268,-9,cs),
(125,-21,o),
(26,131,o),
(49,292,cs)
);
},
{
attr = {
fill = 1;
strokeWidth = 50;
strokeHeight = 100;
strokeColor = (0,255);
lineCapEnd = 1;
lineCapStart = 1;
};
closed = 0;
nodes = (
(522,451,l),
(530.222,461.572,o),
(530.511,475.248,o),
(524.892,485.95,cs),
(520.944,493.471,o),
(514.079,499.524,o),
(505,502,cs),
(490.647,505.721,o),
(477.142,500.117,o),
(467.639,489.243,cs),
(459.266,479.661,o),
(454,465.989,o),
(454,451,cs),
(454,39,ls),
(454,4.331,o),
(476.78,-15.452,o),
(504.452,-32.667,cs),
(535.047,-51.701,o),
(571.622,-67.595,o),
(590,-97,cs),
(633,-166,o),
(579,-257,o),
(488,-266,cs),
(371,-277,o),
(296,-149,o),
(184,-131,cs),
(91,-115,o),
(3,-174,o),
(-19,-266,c)
);
}
);
width = 556;
}
);
unicode = 103;
},
{
glyphname = h;
layers = (
{
layerId = "787108DE-7A61-4466-9FE6-B6E3F273E4CB";
shapes = (
{
attr = {
strokeWidth = 10;
lineCapEnd = 1;
lineCapStart = 1;
};
closed = 0;
nodes = (
(73,2,l),
(73,149,o),
(92,300,o),
(178,421,cs),
(220,480,o),
(281,529,o),
(353,525,cs),
(428,522,o),
(489,461,o),
(492,386,c),
(492,2,l)
);
},
{
attr = {
strokeWidth = 10;
lineCapEnd = 1;
lineCapStart = 1;
};
closed = 0;
nodes = (
(3,648,l),
(-2.024,660.561,o),
(0.02,673.627,o),
(6.722,683.519,cs),
(13.36,693.316,o),
(24.566,700,o),
(38,700,cs),
(49.722,700,o),
(59.937,694.911,o),
(66.843,687.105,cs),
(75.843,676.932,o),
(79.224,662.146,o),
(73,648,c),
(73,2,l)
);
}
);
width = 562;
},
{
layerId = "A0B93036-4938-4FDF-B53E-670010F591C3";
shapes = (
{
attr = {
strokeWidth = 50;
strokeHeight = 100;
lineCapEnd = 1;
lineCapStart = 1;
};
closed = 0;
nodes = (
(73,2,l),
(73,149,o),
(92,300,o),
(178,421,cs),
(220,480,o),
(281,529,o),
(353,525,cs),
(428,522,o),
(489,461,o),
(492,386,c),
(492,2,l)
);
},
{
attr = {
strokeWidth = 50;
strokeHeight = 100;
lineCapEnd = 1;
lineCapStart = 1;
};
closed = 0;
nodes = (
(3,648,l),
(-2.024,660.561,o),
(0.02,673.627,o),
(6.722,683.519,cs),
(13.36,693.316,o),
(24.566,700,o),
(38,700,cs),
(49.722,700,o),
(59.937,694.911,o),
(66.843,687.105,cs),
(75.843,676.932,o),
(79.224,662.146,o),
(73,648,c),
(73,2,l)
);
}
);
width = 562;
}
);
unicode = 104;
},
{
glyphname = i;
layers = (
{
attr = {
color = 1;
};
layerId = "787108DE-7A61-4466-9FE6-B6E3F273E4CB";
shapes = (
{
attr = {
fill = 1;
strokeWidth = 10;
strokeColor = (0,255);
lineCapEnd = 1;
lineCapStart = 1;
};
closed = 0;
nodes = (
(53,454,l),
(47.836,466.394,o),
(50.139,479.589,o),
(57.155,489.451,cs),
(63.725,498.686,o),
(74.427,505,o),
(87,505,cs),
(98.24,505,o),
(107.985,499.954,o),
(114.619,492.286,cs),
(123.33,482.216,o),
(126.677,467.625,o),
(121,454,c),
(121,47,l),
(115.291,33.298,o),
(118.708,18.943,o),
(127.531,9.148,cs),
(134.161,1.786,o),
(143.844,-3,o),
(155,-3,cs),
(167.461,-3,o),
(178.085,2.973,o),
(184.669,11.835,cs),
(191.822,21.463,o),
(194.207,34.503,o),
(189,47,c)
);
},
{
attr = {
fill = 1;
strokeWidth = 10;
strokeColor = (0,255);
lineCapEnd = 1;
lineCapStart = 1;
};
closed = 1;
nodes = (
(65,680,o),
(53,655,o),
(53,629,cs),
(53,604,o),
(65,578,o),
(87,578,cs),
(110,578,o),
(121,604,o),
(121,629,cs),
(121,655,o),
(110,680,o),
(87,680,cs)
);
}
);
width = 232;
},
{
attr = {
color = 1;
};
layerId = "A0B93036-4938-4FDF-B53E-670010F591C3";
shapes = (
{
attr = {
fill = 1;
strokeWidth = 50;
strokeHeight = 100;
strokeColor = (0,255);
lineCapEnd = 1;
lineCapStart = 1;
};
closed = 0;
nodes = (
(53,454,l),
(47.836,466.394,o),
(50.139,479.589,o),
(57.155,489.451,cs),
(63.725,498.686,o),
(74.427,505,o),
(87,505,cs),
(98.24,505,o),
(107.985,499.954,o),
(114.619,492.286,cs),
(123.33,482.216,o),
(126.677,467.625,o),
(121,454,c),
(121,47,l),
(115.291,33.298,o),
(118.708,18.943,o),
(127.531,9.148,cs),
(134.161,1.786,o),
(143.844,-3,o),
(155,-3,cs),
(167.461,-3,o),
(178.085,2.973,o),
(184.669,11.835,cs),
(191.822,21.463,o),
(194.207,34.503,o),
(189,47,c)
);
},
{
attr = {
fill = 1;
strokeWidth = 50;
strokeHeight = 100;
strokeColor = (0,255);
lineCapEnd = 1;
lineCapStart = 1;
};
closed = 1;
nodes = (
(65,680,o),
(53,655,o),
(53,629,cs),
(53,604,o),
(65,578,o),
(87,578,cs),
(110,578,o),
(121,604,o),
(121,629,cs),
(121,655,o),
(110,680,o),
(87,680,cs)
);
}
);
width = 232;
}
);
unicode = 105;
},
{
glyphname = j;
layers = (
{
attr = {
color = 1;
};
layerId = "787108DE-7A61-4466-9FE6-B6E3F273E4CB";
shapes = (
{
attr = {
fill = 1;
strokeWidth = 10;
strokeColor = (0,255);
lineCapEnd = 1;
lineCapStart = 1;
};
closed = 0;
nodes = (
(-379,-266,l),
(-357,-174,o),
(-269,-116,o),
(-176,-131,cs),
(-64,-150,o),
(11,-277,o),
(128,-266,cs),
(219,-257,o),
(273,-166,o),
(230,-97,cs),
(211.584,-67.535,o),
(174.897,-51.358,o),
(144.263,-32.156,cs),
(116.677,-14.863,o),
(94,4.884,o),
(94,39,cs),
(96,451,ls),
(96,466.139,o),
(90.628,479.935,o),
(82.109,489.529,cs),
(72.62,500.215,o),
(59.227,505.688,o),
(45,502,cs),
(35.27,499.346,o),
(28.083,492.585,o),
(24.304,484.311,cs),
(19.538,473.877,o),
(20.192,461.039,o),
(28,451,c)
);
},
{
attr = {
fill = 1;
strokeWidth = 10;
strokeColor = (0,255);
lineCapEnd = 1;
lineCapStart = 1;
};
closed = 1;
nodes = (
(77,680,o),
(88,655,o),
(88,629,cs),
(88,604,o),
(77,578,o),
(54,578,cs),
(32,578,o),
(20,604,o),
(20,629,cs),
(20,655,o),
(32,680,o),
(54,680,cs)
);
}
);
width = 246;
},
{
attr = {
color = 1;
};
layerId = "A0B93036-4938-4FDF-B53E-670010F591C3";
shapes = (
{
attr = {
fill = 1;
strokeWidth = 50;
strokeHeight = 100;
strokeColor = (0,255);
lineCapEnd = 1;
lineCapStart = 1;
};
closed = 0;
nodes = (
(-379,-266,l),
(-357,-174,o),
(-269,-116,o),
(-176,-131,cs),
(-64,-150,o),
(11,-277,o),
(128,-266,cs),
(219,-257,o),
(273,-166,o),
(230,-97,cs),
(211.584,-67.535,o),
(174.897,-51.358,o),
(144.263,-32.156,cs),
(116.677,-14.863,o),
(94,4.884,o),
(94,39,cs),
(96,451,l),
(96,466.139,o),
(90.628,479.935,o),
(82.109,489.529,cs),
(72.62,500.215,o),
(59.227,505.688,o),
(45,502,cs),
(35.27,499.346,o),
(28.083,492.585,o),
(24.304,484.311,cs),
(19.538,473.877,o),
(20.192,461.039,o),
(28,451,c)
);
},
{
attr = {
fill = 1;
strokeWidth = 50;
strokeHeight = 100;
strokeColor = (0,255);
lineCapEnd = 1;
lineCapStart = 1;
};
closed = 1;
nodes = (
(77,680,o),
(88,655,o),
(88,629,cs),
(88,604,o),
(77,578,o),
(54,578,cs),
(32,578,o),
(20,604,o),
(20,629,cs),
(20,655,o),
(32,680,o),
(54,680,cs)
);
}
);
width = 246;
}
);
unicode = 106;
},
{
glyphname = k;
layers = (
{
layerId = "787108DE-7A61-4466-9FE6-B6E3F273E4CB";
shapes = (
{
attr = {
strokeWidth = 10;
lineCapEnd = 1;
lineCapStart = 1;
};
closed = 0;
nodes = (
(93.022,1.918,l),
(93.022,235.963,ls),
(93.022,390.394,o),
(194.697,527.56,o),
(328.026,503.58,cs),
(394.21,492.07,o),
(443.13,432.599,o),
(427.782,370.251,cs),
(394.21,223.494,o),
(93.022,314.618,o),
(93.022,135.247,c)
);
},
{
attr = {
strokeWidth = 10;
lineCapEnd = 1;
lineCapStart = 1;
};
closed = 0;
nodes = (
(23,648,l),
(17.841,660.898,o),
(20.134,674.328,o),
(27.272,684.309,cs),
(33.969,693.673,o),
(44.93,700,o),
(58,700,cs),
(70.348,700,o),
(81.023,694.353,o),
(87.92,685.833,cs),
(96.104,675.722,o),
(98.969,661.567,o),
(93,648,c),
(93,2,l)
);
},
{
attr = {
strokeWidth = 10;
lineCapEnd = 1;
lineCapStart = 1;
};
closed = 0;
nodes = (
(263.759,268.576,l),
(347.21,282.964,o),
(427.782,242.678,o),
(427.782,168.819,cs),
(427.782,111.267,o),
(439.293,54.674,o),
(461.354,1.918,c)
);
}
);
width = 507;
},
{
layerId = "A0B93036-4938-4FDF-B53E-670010F591C3";
shapes = (
{
attr = {
strokeWidth = 50;
strokeHeight = 100;
lineCapEnd = 1;
lineCapStart = 1;
};
closed = 0;
nodes = (
(93.022,1.918,l),
(93.022,235.963,ls),
(93.022,390.394,o),
(194.697,527.56,o),
(328.026,503.58,cs),
(394.21,492.07,o),
(443.13,432.599,o),
(427.782,370.251,cs),
(394.21,223.494,o),
(93.022,314.618,o),
(93.022,135.247,c)
);
},
{
attr = {
strokeWidth = 50;
strokeHeight = 100;
lineCapEnd = 1;
lineCapStart = 1;
};
closed = 0;
nodes = (
(23,648,l),
(17.841,660.898,o),
(20.134,674.328,o),
(27.272,684.309,cs),
(33.969,693.673,o),
(44.93,700,o),
(58,700,cs),
(70.348,700,o),
(81.023,694.353,o),
(87.92,685.833,cs),
(96.104,675.722,o),
(98.969,661.567,o),
(93,648,c),
(93,2,l)
);
},
{
attr = {
strokeWidth = 50;
strokeHeight = 100;
lineCapEnd = 1;
lineCapStart = 1;
};
closed = 0;
nodes = (
(263.759,268.576,l),
(347.21,282.964,o),
(427.782,242.678,o),
(427.782,168.819,cs),
(427.782,111.267,o),
(439.293,54.674,o),
(461.354,1.918,c)
);
}
);
width = 507;
}
);
unicode = 107;
},
{
glyphname = l;
layers = (
{
layerId = "787108DE-7A61-4466-9FE6-B6E3F273E4CB";
shapes = (
{
attr = {
strokeWidth = 10;
lineCapEnd = 1;
lineCapStart = 1;
};
closed = 0;
nodes = (
(23,648,l),
(17.42,661.951,o),
(20.559,676.525,o),
(29.115,686.682,cs),
(35.892,694.726,o),
(46.067,700,o),
(58,700,cs),
(69.752,700,o),
(79.988,694.885,o),
(86.895,687.046,cs),
(95.856,676.875,o),
(99.212,662.119,o),
(93,648,c),
(93,2,l)
);
}
);
width = 168;
},
{
layerId = "A0B93036-4938-4FDF-B53E-670010F591C3";
shapes = (
{
attr = {
strokeWidth = 50;
strokeHeight = 100;
lineCapEnd = 1;
lineCapStart = 1;
};
closed = 0;
nodes = (
(23,648,l),
(17.42,661.951,o),
(20.559,676.525,o),
(29.115,686.682,cs),
(35.892,694.726,o),
(46.067,700,o),
(58,700,cs),
(69.752,700,o),
(79.988,694.885,o),
(86.895,687.046,cs),
(95.856,676.875,o),
(99.212,662.119,o),
(93,648,c),
(93,2,l)
);
}
);
width = 168;
}
);
unicode = 108;
},
{
glyphname = m;
layers = (
{
layerId = "787108DE-7A61-4466-9FE6-B6E3F273E4CB";
shapes = (
{
attr = {
strokeWidth = 10;
lineCapEnd = 1;
lineCapStart = 1;
};
closed = 0;
nodes = (
(90,2,l),
(90,144,o),
(115,288,o),
(191,408,cs),
(223,458,o),
(267,504,o),
(326,509,cs),
(403,515,o),
(461,453.474,o),
(461,374,cs),
(461,2,l)
);
},
{
attr = {
strokeWidth = 10;
lineCapEnd = 1;
lineCapStart = 1;
};
closed = 0;
nodes = (
(22,458,l),
(18.599,470.469,o),
(22.587,482.939,o),
(30.869,491.402,cs),
(37.198,497.871,o),
(46.036,502,o),
(56,502,cs),
(67.246,502,o),
(76.819,496.74,o),
(83.081,488.792,cs),
(89.626,480.485,o),
(92.555,469.243,o),
(90,458,c),
(90,2,l)
);
},
{
attr = {
strokeWidth = 10;
lineCapEnd = 1;
lineCapStart = 1;
};
closed = 0;
nodes = (
(461,2,l),
(461,144,o),
(486,288,o),
(563,408,cs),
(595,458,o),
(639,504,o),
(698,509,cs),
(775,515,o),
(833.39,453.474,o),
(833,374,c),
(833,2,l)
);
}
);
width = 904;
},
{
layerId = "A0B93036-4938-4FDF-B53E-670010F591C3";
shapes = (
{
attr = {
strokeWidth = 50;
strokeHeight = 100;
lineCapEnd = 1;
lineCapStart = 1;
};
closed = 0;
nodes = (
(90,2,l),
(90,144,o),
(115,288,o),
(191,408,cs),
(223,458,o),
(267,504,o),
(326,509,cs),
(403,515,o),
(461,453.474,o),
(461,374,c),
(461,2,l)
);
},
{
attr = {
strokeWidth = 50;
strokeHeight = 100;
lineCapEnd = 1;
lineCapStart = 1;
};
closed = 0;
nodes = (
(22,458,l),
(18.599,470.469,o),
(22.587,482.939,o),
(30.869,491.402,cs),
(37.198,497.871,o),
(46.036,502,o),
(56,502,cs),
(67.246,502,o),
(76.819,496.74,o),
(83.081,488.792,cs),
(89.626,480.485,o),
(92.555,469.243,o),
(90,458,c),
(90,2,l)
);
},
{
attr = {
strokeWidth = 50;
strokeHeight = 100;
lineCapEnd = 1;
lineCapStart = 1;
};
closed = 0;
nodes = (
(461,2,l),
(461,144,o),
(486,288,o),
(563,408,cs),
(595,458,o),
(639,504,o),
(698,509,cs),
(775,515,o),
(833.39,453.474,o),
(833,374,c),
(833,2,l)
);
}
);
width = 904;
}
);
unicode = 109;
},
{
glyphname = n;
layers = (
{
layerId = "787108DE-7A61-4466-9FE6-B6E3F273E4CB";
shapes = (
{
attr = {
strokeWidth = 10;
lineCapEnd = 1;
lineCapStart = 1;
};
closed = 0;
nodes = (
(91,2,l),
(91,146,o),
(110,293,o),
(193,410,cs),
(234,468,o),
(293,515,o),
(363,512,cs),
(437,509,o),
(496,450,o),
(499,376,c),
(499,2,l)
);
},
{
attr = {
strokeWidth = 10;
lineCapEnd = 1;
lineCapStart = 1;
};
closed = 0;
nodes = (
(23,452,l),
(17.746,464.611,o),
(20.222,478.049,o),
(27.527,487.965,cs),
(34.125,496.919,o),
(44.662,503,o),
(57,503,cs),
(68.15,503,o),
(77.595,498.395,o),
(84.137,491.299,cs),
(93.436,481.211,o),
(96.87,466.089,o),
(91,452,c),
(91,2,l)
);
}
);
width = 569;
},
{
layerId = "A0B93036-4938-4FDF-B53E-670010F591C3";
shapes = (
{
attr = {
strokeWidth = 50;
strokeHeight = 100;
lineCapEnd = 1;
lineCapStart = 1;
};
closed = 0;
nodes = (
(91,2,l),
(91,146,o),
(110,293,o),
(193,410,cs),
(234,468,o),
(293,515,o),
(363,512,cs),
(437,509,o),
(496,450,o),
(499,376,c),
(499,2,l)
);
},
{
attr = {
strokeWidth = 50;
strokeHeight = 100;
lineCapEnd = 1;
lineCapStart = 1;
};
closed = 0;
nodes = (
(23,452,l),
(17.746,464.611,o),
(20.222,478.049,o),
(27.527,487.965,cs),
(34.125,496.919,o),
(44.662,503,o),
(57,503,cs),
(68.15,503,o),
(77.595,498.395,o),
(84.137,491.299,cs),
(93.436,481.211,o),
(96.87,466.089,o),
(91,452,c),
(91,2,l)
);
}
);
width = 569;
}
);
unicode = 110;
},
{
glyphname = o;
layers = (
{
attr = {
color = 1;
};
layerId = "787108DE-7A61-4466-9FE6-B6E3F273E4CB";
shapes = (
{
attr = {
fill = 1;
strokeWidth = 10;
strokeColor = (0,255);
};
closed = 1;
nodes = (
(129,518,o),
(43,393,o),
(41,256,cs),
(39,115,o),
(125,-16,o),
(256,-14,cs),
(384,-12,o),
(466,118,o),
(464,256,cs),
(461,390,o),
(381,514,o),
(256,516,cs)
);
}
);
width = 505;
},
{
attr = {
color = 1;
};
layerId = "A0B93036-4938-4FDF-B53E-670010F591C3";
shapes = (
{
attr = {
fill = 1;
strokeWidth = 50;
strokeHeight = 100;
strokeColor = (0,255);
};
closed = 1;
nodes = (
(129,518,o),
(43,393,o),
(41,256,cs),
(39,115,o),
(125,-16,o),
(256,-14,cs),
(384,-12,o),
(466,118,o),
(464,256,cs),
(461,390,o),
(381,514,o),
(256,516,cs)
);
}
);
width = 505;
}
);
unicode = 111;
},
{
glyphname = p;
layers = (
{
attr = {
color = 1;
};
layerId = "787108DE-7A61-4466-9FE6-B6E3F273E4CB";
shapes = (
{
attr = {
fill = 1;
strokeWidth = 10;
strokeColor = (0,255);
lineCapEnd = 1;
lineCapStart = 1;
};
closed = 1;
nodes = (
(134.016,96.32,o),
(220.32,-8.544,o),
(334.464,0.736,cs),
(448.608,10.944,o),
(515.424,127.872,o),
(517.28,250.368,cs),
(520.064,378.432,o),
(452.32,503.712,o),
(334.464,513.92,cs),
(192.48,525.984,o),
(95.04,375.648,o),
(117.312,217.888,cs)
);
},
{
attr = {
fill = 1;
strokeWidth = 10;
strokeColor = (0,255);
lineCapEnd = 1;
lineCapStart = 1;
};
closed = 0;
nodes = (
(44,458,l),
(37.737,472.233,o),
(41.199,487.438,o),
(50.324,497.896,cs),
(57.227,505.806,o),
(67.372,511,o),
(79,511,cs),
(89.864,511,o),
(97.651,506.791,o),
(103.08,500,cs),
(111.143,489.915,o),
(114,474.136,o),
(114,458,cs),
(114,-189,l)
);
}
);
width = 556;
},
{
attr = {
color = 1;
};
layerId = "A0B93036-4938-4FDF-B53E-670010F591C3";
shapes = (
{
attr = {
fill = 1;
strokeWidth = 50;
strokeHeight = 100;
strokeColor = (0,255);
lineCapEnd = 1;
lineCapStart = 1;
};
closed = 1;
nodes = (
(134.016,96.32,o),
(220.32,-8.544,o),
(334.464,0.736,cs),
(448.608,10.944,o),
(515.424,127.872,o),
(517.28,250.368,cs),
(520.064,378.432,o),
(452.32,503.712,o),
(334.464,513.92,cs),
(192.48,525.984,o),
(95.04,375.648,o),
(117.312,217.888,cs)
);
},
{
attr = {
fill = 1;
strokeWidth = 50;
strokeHeight = 100;
strokeColor = (0,255);
lineCapEnd = 1;
lineCapStart = 1;
};
closed = 0;
nodes = (
(44,458,l),
(37.737,472.233,o),
(41.199,487.438,o),
(50.324,497.896,cs),
(57.227,505.806,o),
(67.372,511,o),
(79,511,cs),
(89.864,511,o),
(97.651,506.791,o),
(103.08,500,cs),
(111.143,489.915,o),
(114,474.136,o),
(114,458,c),
(114,-189,l)
);
}
);
width = 556;
}
);
unicode = 112;
},
{
glyphname = q;
layers = (
{
attr = {
color = 1;
};
layerId = "787108DE-7A61-4466-9FE6-B6E3F273E4CB";
shapes = (
{
attr = {
fill = 1;
strokeWidth = 10;
strokeColor = (0,255);
lineCapEnd = 1;
lineCapStart = 1;
};
closed = 1;
nodes = (
(421.984,96.32,o),
(335.68,-8.544,o),
(221.536,0.736,cs),
(107.392,10.944,o),
(40.576,127.872,o),
(38.72,250.368,cs),
(35.936,378.432,o),
(103.68,503.712,o),
(221.536,513.92,cs),
(363.52,525.984,o),
(460.96,375.648,o),
(438.688,217.888,cs)
);
},
{
attr = {
fill = 1;
strokeWidth = 10;
strokeColor = (0,255);
lineCapEnd = 1;
lineCapStart = 1;
};
closed = 0;
nodes = (
(512,458,l),
(518.697,473.219,o),
(514.275,489.55,o),
(503.699,500,cs),
(496.902,506.714,o),
(487.563,511,o),
(477,511,cs),
(466.437,511,o),
(457.251,506.714,o),
(450.581,500,cs),
(440.201,489.55,o),
(435.912,473.219,o),
(442,458,c),
(442,-189,l)
);
}
);
width = 556;
},
{
attr = {
color = 1;
};
layerId = "A0B93036-4938-4FDF-B53E-670010F591C3";
shapes = (
{
attr = {
fill = 1;
strokeWidth = 50;
strokeHeight = 100;
strokeColor = (0,255);
lineCapEnd = 1;
lineCapStart = 1;
};
closed = 1;
nodes = (
(421.984,96.32,o),
(335.68,-8.544,o),
(221.536,0.736,cs),
(107.392,10.944,o),
(40.576,127.872,o),
(38.72,250.368,cs),
(35.936,378.432,o),
(103.68,503.712,o),
(221.536,513.92,cs),
(363.52,525.984,o),
(460.96,375.648,o),
(438.688,217.888,cs)
);
},
{
attr = {
fill = 1;
strokeWidth = 50;
strokeHeight = 100;
strokeColor = (0,255);
lineCapEnd = 1;
lineCapStart = 1;
};
closed = 0;
nodes = (
(512,458,l),
(518.697,473.219,o),
(514.275,489.55,o),
(503.699,500,cs),
(496.902,506.714,o),
(487.563,511,o),
(477,511,cs),
(466.437,511,o),
(457.251,506.714,o),
(450.581,500,cs),
(440.201,489.55,o),
(435.912,473.219,o),
(442,458,c),
(442,-189,l)
);
}
);
width = 556;
}
);
unicode = 113;
},
{
glyphname = r;
leftMetricsKey = n;
layers = (
{
layerId = "787108DE-7A61-4466-9FE6-B6E3F273E4CB";
shapes = (
{
attr = {
strokeWidth = 10;
lineCapEnd = 1;
lineCapStart = 1;
};
closed = 0;
nodes = (
(90,2,l),
(90,144,o),
(115,287,o),
(191,407,cs),
(223,457,o),
(267,503,o),
(326,508,cs),
(403,514,o),
(467,450,o),
(461,373,c)
);
},
{
attr = {
strokeWidth = 10;
lineCapEnd = 1;
lineCapStart = 1;
};
closed = 0;
nodes = (
(22,457,l),
(18.858,469.045,o),
(22.023,480.541,o),
(29.055,488.76,cs),
(35.451,496.236,o),
(45.045,501,o),
(56,501,cs),
(68.005,501,o),
(78.104,495.278,o),
(84.304,486.537,cs),
(89.982,478.532,o),
(92.39,467.995,o),
(90,457,c),
(90,2,l)
);
}
);
width = 502;
},
{
layerId = "A0B93036-4938-4FDF-B53E-670010F591C3";
shapes = (
{
attr = {
strokeWidth = 50;
strokeHeight = 100;
lineCapEnd = 1;
lineCapStart = 1;
};
closed = 0;
nodes = (
(90,2,l),
(90,144,o),
(115,287,o),
(191,407,cs),
(223,457,o),
(267,503,o),
(326,508,cs),
(403,514,o),
(467,450,o),
(461,373,c)
);
},
{
attr = {
strokeWidth = 50;
strokeHeight = 100;
lineCapEnd = 1;
lineCapStart = 1;
};
closed = 0;
nodes = (
(22,457,l),
(18.858,469.045,o),
(22.023,480.541,o),
(29.055,488.76,cs),
(35.451,496.236,o),
(45.045,501,o),
(56,501,cs),
(68.005,501,o),
(78.104,495.278,o),
(84.304,486.537,cs),
(89.982,478.532,o),
(92.39,467.995,o),
(90,457,c),
(90,2,l)
);
}
);
width = 502;
}
);
unicode = 114;
},
{
glyphname = s;
layers = (
{
layerId = "787108DE-7A61-4466-9FE6-B6E3F273E4CB";
shapes = (
{
attr = {
strokeWidth = 10;
lineCapEnd = 1;
lineCapStart = 1;
};
closed = 0;
nodes = (
(428,407,l),
(380,472,o),
(303,510,o),
(222,510,cs),
(126,510,o),
(37,454,o),
(51,373,cs),
(62,301,o),
(145,279,o),
(222,270,cs),
(320,258,o),
(427,222,o),
(433,132,cs),
(440,37,o),
(330,-22,o),
(222,-5,cs),
(145,7,o),
(80,51,o),
(35,115,c)
);
}
);
width = 479;
},
{
attr = {
color = 1;
};
layerId = "A0B93036-4938-4FDF-B53E-670010F591C3";
shapes = (
{
attr = {
fill = 1;
strokeWidth = 50;
strokeHeight = 100;
strokeColor = (0,255);
lineCapEnd = 1;
lineCapStart = 1;
};
closed = 0;
nodes = (
(428,407,l),
(380,472,o),
(303,510,o),
(222,510,cs),
(126,510,o),
(37,454,o),
(51,373,cs),
(62,301,o),
(145,279,o),
(222,270,cs),
(320,258,o),
(427,222,o),
(433,132,cs),
(440,37,o),
(330,-22,o),
(222,-5,cs),
(145,7,o),
(80,51,o),
(35,115,c)
);
}
);
width = 479;
}
);
unicode = 115;
},
{
glyphname = t;
layers = (
{
layerId = "787108DE-7A61-4466-9FE6-B6E3F273E4CB";
shapes = (
{
attr = {
strokeWidth = 10;
lineCapEnd = 1;
lineCapStart = 1;
};
closed = 0;
nodes = (
(90,676,l),
(90,159,l),
(73,72,o),
(138,-10,o),
(227,-13,cs),
(292,-15,o),
(349,27,o),
(365,91,c)
);
},
{
attr = {
strokeWidth = 10;
lineCapEnd = 1;
lineCapStart = 1;
};
closed = 0;
nodes = (
(20,493,l),
(334,493,l)
);
}
);
width = 406;
},
{
layerId = "A0B93036-4938-4FDF-B53E-670010F591C3";
shapes = (
{
attr = {
strokeWidth = 50;
strokeHeight = 100;
lineCapEnd = 1;
lineCapStart = 1;
};
closed = 0;
nodes = (
(90,676,l),
(90,159,l),
(73,72,o),
(138,-10,o),
(227,-13,cs),
(292,-15,o),
(349,27,o),
(365,91,c)
);
},
{
attr = {
strokeWidth = 50;
strokeHeight = 100;
lineCapEnd = 1;
lineCapStart = 1;
};
closed = 0;
nodes = (
(20,493,l),
(334,493,l)
);
}
);
width = 406;
}
);
unicode = 116;
},
{
glyphname = u;
layers = (
{
layerId = "787108DE-7A61-4466-9FE6-B6E3F273E4CB";
shapes = (
{
attr = {
strokeWidth = 10;
lineCapEnd = 1;
lineCapStart = 1;
};
closed = 0;
nodes = (
(55.362,456.401,l),
(48.906,467.159,o),
(48.97,479.035,o),
(53.457,488.643,cs),
(59.337,501.234,o),
(72.813,509.93,o),
(89.168,507.11,cs),
(100.26,505.093,o),
(108.284,497.963,o),
(113.759,488.442,cs),
(119.081,479.187,o),
(121.994,467.673,o),
(122.974,456.401,cs),
(129.934,387.794,o),
(97.122,322.17,o),
(89.168,253.564,cs),
(72.265,106.407,o),
(173.683,-27.823,o),
(308.908,-13.903,cs),
(429.218,-0.977,o),
(494.842,124.305,o),
(494.842,253.564,cs),
(494.842,500.15,l)
);
},
{
attr = {
strokeWidth = 10;
lineCapEnd = 1;
lineCapStart = 1;
};
closed = 0;
nodes = (
(494.842,500.15,l),
(494.842,0.017,l)
);
}
);
width = 555;
},
{
layerId = "A0B93036-4938-4FDF-B53E-670010F591C3";
shapes = (
{
attr = {
strokeWidth = 50;
strokeHeight = 100;
lineCapEnd = 1;
lineCapStart = 1;
};
closed = 0;
nodes = (
(55.362,456.401,l),
(48.906,467.159,o),
(48.97,479.035,o),
(53.457,488.643,cs),
(59.337,501.234,o),
(72.813,509.93,o),
(89.168,507.11,cs),
(100.26,505.093,o),
(108.284,497.963,o),
(113.759,488.442,cs),
(119.081,479.187,o),
(121.994,467.673,o),
(122.974,456.401,cs),
(129.934,387.794,o),
(97.122,322.17,o),
(89.168,253.564,cs),
(72.265,106.407,o),
(173.683,-27.823,o),
(308.908,-13.903,cs),
(429.218,-0.977,o),
(494.842,124.305,o),
(494.842,253.564,cs),
(494.842,500.15,l)
);
},
{
attr = {
strokeWidth = 50;
strokeHeight = 100;
lineCapEnd = 1;
lineCapStart = 1;
};
closed = 0;
nodes = (
(494.842,500.15,l),
(494.842,0.017,l)
);
}
);
width = 555;
}
);
unicode = 117;
},
{
glyphname = v;
layers = (
{
layerId = "787108DE-7A61-4466-9FE6-B6E3F273E4CB";
shapes = (
{
attr = {
strokeWidth = 10;
lineCapEnd = 1;
lineCapStart = 1;
};
closed = 0;
nodes = (
(31,501,l),
(122,367,o),
(179,212,o),
(198,51,c),
(200,27,o),
(209,1,o),
(231,1,cs),
(253,1,o),
(261,27,o),
(264,51,cs),
(282,212,o),
(339,367,o),
(431,501,c)
);
}
);
width = 462;
},
{
layerId = "A0B93036-4938-4FDF-B53E-670010F591C3";
shapes = (
{
attr = {
strokeWidth = 50;
strokeHeight = 100;
lineCapEnd = 1;
lineCapStart = 1;
};
closed = 0;
nodes = (
(31,501,l),
(122,367,o),
(179,212,o),
(198,51,c),
(200,27,o),
(209,1,o),
(231,1,cs),
(253,1,o),
(261,27,o),
(264,51,cs),
(282,212,o),
(339,367,o),
(431,501,c)
);
}
);
width = 462;
}
);
unicode = 118;
},
{
glyphname = w;
layers = (
{
guides = (
{
position = "{0, -7.6}";
}
);
layerId = "787108DE-7A61-4466-9FE6-B6E3F273E4CB";
shapes = (
{
attr = {
strokeWidth = 10;
lineCapEnd = 1;
lineCapStart = 1;
};
closed = 0;
nodes = (
(306,501.419,l),
(374,360.857,o),
(418,207.8,o),
(434,51.62,cs),
(437,26.631,o),
(445,1.643,o),
(466,1.643,cs),
(487,1.643,o),
(496,26.631,o),
(498,51.62,c),
(515,207.8,o),
(558,360.857,o),
(627,501.419,c)
);
},
{
attr = {
strokeWidth = 10;
lineCapEnd = 1;
lineCapStart = 1;
};
closed = 0;
nodes = (
(306,501.419,l),
(374,360.857,o),
(418,207.8,o),
(434,51.62,cs),
(437,26.631,o),
(445,1.643,o),
(466,1.643,cs),
(487,1.643,o),
(496,26.631,o),
(498,51.62,c),
(515,207.8,o),
(558,360.857,o),
(627,501.419,c)
);
},
{
attr = {
strokeWidth = 10;
lineCapEnd = 1;
lineCapStart = 1;
};
closed = 0;
nodes = (
(52,501.419,l),
(120,360.857,o),
(164,207.8,o),
(180,51.62,cs),
(183,26.631,o),
(191,1.643,o),
(212,1.643,cs),
(233,1.643,o),
(242,26.631,o),
(244,51.62,c),
(261,207.8,o),
(304,360.857,o),
(373,501.419,c)
);
}
);
width = 663;
},
{
layerId = "A0B93036-4938-4FDF-B53E-670010F591C3";
shapes = (
{
attr = {
strokeWidth = 50;
strokeHeight = 100;
lineCapEnd = 1;
lineCapStart = 1;
};
closed = 0;
nodes = (
(306,501.419,l),
(374,360.857,o),
(418,207.8,o),
(434,51.62,cs),
(437,26.631,o),
(445,1.643,o),
(466,1.643,cs),
(487,1.643,o),
(496,26.631,o),
(498,51.62,c),
(515,207.8,o),
(558,360.857,o),
(627,501.419,c)
);
},
{
attr = {
strokeWidth = 50;
strokeHeight = 100;
lineCapEnd = 1;
lineCapStart = 1;
};
closed = 0;
nodes = (
(306,501.419,l),
(374,360.857,o),
(418,207.8,o),
(434,51.62,cs),
(437,26.631,o),
(445,1.643,o),
(466,1.643,cs),
(487,1.643,o),
(496,26.631,o),
(498,51.62,c),
(515,207.8,o),
(558,360.857,o),
(627,501.419,c)
);
},
{
attr = {
strokeWidth = 50;
strokeHeight = 100;
lineCapEnd = 1;
lineCapStart = 1;
};
closed = 0;
nodes = (
(52,501.419,l),
(120,360.857,o),
(164,207.8,o),
(180,51.62,cs),
(183,26.631,o),
(191,1.643,o),
(212,1.643,cs),
(233,1.643,o),
(242,26.631,o),
(244,51.62,c),
(261,207.8,o),
(304,360.857,o),
(373,501.419,c)
);
}
);
width = 663;
}
);
unicode = 119;
},
{
glyphname = x;
layers = (
{
layerId = "787108DE-7A61-4466-9FE6-B6E3F273E4CB";
shapes = (
{
attr = {
strokeWidth = 10;
lineCapEnd = 1;
lineCapStart = 1;
};
closed = 0;
nodes = (
(57,456,l),
(47.641,468.999,o),
(49.366,484.43,o),
(57.255,495.267,cs),
(64.539,505.272,o),
(77.078,511.36,o),
(91,508,cs),
(113,503,o),
(120,478,o),
(126,456,cs),
(171,293,o),
(356,207,o),
(401,43,cs),
(407,21,o),
(414,-3,o),
(436,-8,cs),
(450.47,-11.493,o),
(463.446,-5.027,o),
(470.58,5.434,cs),
(477.745,15.94,o),
(479.019,30.474,o),
(470,43,c)
);
},
{
attr = {
strokeWidth = 10;
lineCapEnd = 1;
lineCapStart = 1;
};
closed = 0;
nodes = (
(57,43,l),
(48.635,31.382,o),
(49.125,18.036,o),
(54.956,7.781,cs),
(61.673,-4.033,o),
(75.477,-11.747,o),
(91,-8,cs),
(113,-3,o),
(120,21,o),
(126,43,cs),
(171,207,o),
(356,293,o),
(401,456,cs),
(407,478,o),
(414,503,o),
(436,508,cs),
(449.978,511.374,o),
(462.562,505.223,o),
(469.833,495.145,cs),
(477.647,484.315,o),
(479.324,468.95,o),
(470,456,c)
);
}
);
width = 529;
},
{
layerId = "A0B93036-4938-4FDF-B53E-670010F591C3";
shapes = (
{
attr = {
strokeWidth = 50;
strokeHeight = 100;
lineCapEnd = 1;
lineCapStart = 1;
};
closed = 0;
nodes = (
(57,456,l),
(47.641,468.999,o),
(49.366,484.43,o),
(57.255,495.267,cs),
(64.539,505.272,o),
(77.078,511.36,o),
(91,508,cs),
(113,503,o),
(120,478,o),
(126,456,cs),
(171,293,o),
(356,207,o),
(401,43,cs),
(407,21,o),
(414,-3,o),
(436,-8,cs),
(450.47,-11.493,o),
(463.446,-5.027,o),
(470.58,5.434,cs),
(477.745,15.94,o),
(479.019,30.474,o),
(470,43,c)
);
},
{
attr = {
strokeWidth = 50;
strokeHeight = 100;
lineCapEnd = 1;
lineCapStart = 1;
};
closed = 0;
nodes = (
(57,43,l),
(48.635,31.382,o),
(49.125,18.036,o),
(54.956,7.781,cs),
(61.673,-4.033,o),
(75.477,-11.747,o),
(91,-8,cs),
(113,-3,o),
(120,21,o),
(126,43,cs),
(171,207,o),
(356,293,o),
(401,456,cs),
(407,478,o),
(414,503,o),
(436,508,cs),
(449.978,511.374,o),
(462.562,505.223,o),
(469.833,495.145,cs),
(477.647,484.315,o),
(479.324,468.95,o),
(470,456,c)
);
}
);
width = 529;
}
);
unicode = 120;
},
{
glyphname = y;
layers = (
{
layerId = "787108DE-7A61-4466-9FE6-B6E3F273E4CB";
shapes = (
{
attr = {
strokeWidth = 10;
lineCapEnd = 1;
lineCapStart = 1;
};
closed = 0;
nodes = (
(14.248,448.938,l),
(5.89,462.519,o),
(8.128,477.773,o),
(16.349,488.3,cs),
(23.527,497.492,o),
(35.267,503.079,o),
(48.495,500.799,cs),
(58.236,499.105,o),
(65.594,493.744,o),
(70.966,486.225,cs),
(78.004,476.372,o),
(81.632,462.812,o),
(82.742,448.938,cs),
(89.591,379.465,o),
(56.322,324.669,o),
(48.494,255.195,cs),
(31.86,106.463,o),
(134.602,-29.548,o),
(271.592,-14.871,cs),
(392.926,-2.15,o),
(459.464,125.055,o),
(459.464,255.195,cs),
(459.464,497.863,l)
);
},
{
attr = {
strokeWidth = 10;
lineCapEnd = 1;
lineCapStart = 1;
};
closed = 0;
nodes = (
(-20,-276.131,l),
(1.527,-183.173,o),
(91.549,-123.485,o),
(185.485,-138.162,cs),
(299.97,-157.732,o),
(375.314,-287.873,o),
(493.713,-276.131,cs),
(585.692,-266.346,o),
(640.488,-174.367,o),
(596.455,-103.915,cs),
(577.928,-74.58,o),
(540.995,-58.779,o),
(510.142,-39.571,cs),
(482.334,-22.258,o),
(459.465,-2.178,o),
(459.465,33.075,cs),
(459.465,255.195,l)
);
}
);
width = 532;
},
{
layerId = "A0B93036-4938-4FDF-B53E-670010F591C3";
shapes = (
{
attr = {
strokeWidth = 50;
strokeHeight = 100;
lineCapEnd = 1;
lineCapStart = 1;
};
closed = 0;
nodes = (
(14.248,448.938,l),
(5.89,462.519,o),
(8.128,477.773,o),
(16.349,488.3,cs),
(23.527,497.492,o),
(35.267,503.079,o),
(48.495,500.799,cs),
(58.236,499.105,o),
(65.594,493.744,o),
(70.966,486.225,cs),
(78.004,476.372,o),
(81.632,462.812,o),
(82.742,448.938,cs),
(89.591,379.465,o),
(56.322,324.669,o),
(48.494,255.195,cs),
(31.86,106.463,o),
(134.602,-29.548,o),
(271.592,-14.871,cs),
(392.926,-2.15,o),
(459.464,125.055,o),
(459.464,255.195,cs),
(459.464,497.863,l)
);
},
{
attr = {
strokeWidth = 50;
strokeHeight = 100;
lineCapEnd = 1;
lineCapStart = 1;
};
closed = 0;
nodes = (
(-20,-276.131,l),
(1.527,-183.173,o),
(91.549,-123.485,o),
(185.485,-138.162,cs),
(299.97,-157.732,o),
(375.314,-287.873,o),
(493.713,-276.131,cs),
(585.692,-266.346,o),
(640.488,-174.367,o),
(596.455,-103.915,cs),
(577.928,-74.58,o),
(540.995,-58.779,o),
(510.142,-39.571,cs),
(482.334,-22.258,o),
(459.465,-2.178,o),
(459.465,33.075,cs),
(459.465,255.195,l)
);
}
);
width = 532;
}
);
unicode = 121;
},
{
glyphname = z;
layers = (
{
layerId = "787108DE-7A61-4466-9FE6-B6E3F273E4CB";
shapes = (
{
attr = {
strokeWidth = 10;
lineCapEnd = 1;
lineCapStart = 1;
};
closed = 0;
nodes = (
(80.381,453.866,l),
(71.589,465.434,o),
(72.096,479.216,o),
(78.194,489.597,cs),
(84.841,500.914,o),
(98.131,508.19,o),
(113.262,504.155,c),
(126.19,501.217,o),
(131.263,489.711,o),
(136.073,477.228,cs),
(139.18,469.166,o),
(142.178,460.697,o),
(147.111,453.866,cs),
(189.663,395.84,o),
(340.531,395.84,o),
(382.116,453.866,c),
(389.853,474.175,o),
(394.689,499.32,o),
(415.965,504.155,c),
(430.645,508.07,o),
(443.592,501.338,o),
(450.421,490.6,cs),
(457.088,480.115,o),
(457.924,465.81,o),
(448.846,453.866,c),
(46.533,51.552,l),
(32.982,36.154,o),
(39.045,17.226,o),
(52.48,7.008,cs),
(60.14,1.183,o),
(70.197,-1.811,o),
(80.381,0.296,c),
(100.69,5.132,o),
(100.69,31.243,o),
(113.262,51.552,cs),
(164.519,135.69,o),
(364.708,135.69,o),
(415.965,51.552,cs),
(428.537,31.243,o),
(427.57,6.099,o),
(448.846,0.296,c),
(464.203,-3.287,o),
(477.664,4.51,o),
(484.351,16.23,cs),
(490.297,26.651,o),
(490.888,40.173,o),
(482.695,51.552,c)
);
}
);
width = 546;
},
{
layerId = "A0B93036-4938-4FDF-B53E-670010F591C3";
shapes = (
{
attr = {
strokeWidth = 50;
strokeHeight = 100;
lineCapEnd = 1;
lineCapStart = 1;
};
closed = 0;
nodes = (
(80.381,453.866,l),
(71.589,465.434,o),
(72.096,479.216,o),
(78.194,489.597,cs),
(84.841,500.914,o),
(98.131,508.19,o),
(113.262,504.155,c),
(126.19,501.217,o),
(131.263,489.711,o),
(136.073,477.228,cs),
(139.18,469.166,o),
(142.178,460.697,o),
(147.111,453.866,cs),
(189.663,395.84,o),
(340.531,395.84,o),
(382.116,453.866,c),
(389.853,474.175,o),
(394.689,499.32,o),
(415.965,504.155,c),
(430.645,508.07,o),
(443.592,501.338,o),
(450.421,490.6,cs),
(457.088,480.115,o),
(457.924,465.81,o),
(448.846,453.866,c),
(46.533,51.552,l),
(32.982,36.154,o),
(39.045,17.226,o),
(52.48,7.008,cs),
(60.14,1.183,o),
(70.197,-1.811,o),
(80.381,0.296,c),
(100.69,5.132,o),
(100.69,31.243,o),
(113.262,51.552,cs),
(164.519,135.69,o),
(364.708,135.69,o),
(415.965,51.552,cs),
(428.537,31.243,o),
(427.57,6.099,o),
(448.846,0.296,c),
(464.203,-3.287,o),
(477.664,4.51,o),
(484.351,16.23,cs),
(490.297,26.651,o),
(490.888,40.173,o),
(482.695,51.552,c)
);
}
);
width = 546;
}
);
unicode = 122;
},
{
glyphname = zero;
layers = (
{
attr = {
color = 1;
};
layerId = "787108DE-7A61-4466-9FE6-B6E3F273E4CB";
shapes = (
{
attr = {
fill = 1;
strokeWidth = 10;
strokeColor = (0,255);
};
closed = 1;
nodes = (
(40,169,o),
(135,1,o),
(281,1,cs),
(427,1,o),
(523,169,o),
(523,351,cs),
(523,532,o),
(427,700,o),
(281,700,cs),
(135,700,o),
(40,532,o),
(40,351,cs)
);
}
);
width = 563;
},
{
attr = {
color = 1;
};
layerId = "A0B93036-4938-4FDF-B53E-670010F591C3";
shapes = (
{
attr = {
fill = 1;
strokeWidth = 50;
strokeHeight = 100;
strokeColor = (0,255);
};
closed = 1;
nodes = (
(40,169,o),
(135,1,o),
(281,1,cs),
(427,1,o),
(523,169,o),
(523,351,cs),
(523,532,o),
(427,700,o),
(281,700,cs),
(135,700,o),
(40,532,o),
(40,351,cs)
);
}
);
width = 563;
}
);
unicode = 48;
},
{
glyphname = one;
layers = (
{
layerId = "787108DE-7A61-4466-9FE6-B6E3F273E4CB";
shapes = (
{
attr = {
strokeWidth = 10;
lineCapEnd = 1;
lineCapStart = 1;
};
closed = 0;
nodes = (
(62,395,l),
(28,421,o),
(17,461,o),
(34,500,cs),
(68,578,o),
(209,566,o),
(209,660,cs),
(209,681,o),
(219,702,o),
(237,702,cs),
(256,702,o),
(265,681,o),
(265,660,cs),
(265,-1,l)
);
}
);
width = 311;
},
{
layerId = "A0B93036-4938-4FDF-B53E-670010F591C3";
shapes = (
{
attr = {
strokeWidth = 50;
strokeHeight = 100;
lineCapEnd = 1;
lineCapStart = 1;
};
closed = 0;
nodes = (
(62,395,l),
(28,421,o),
(17,461,o),
(34,500,cs),
(68,578,o),
(209,566,o),
(209,660,cs),
(209,681,o),
(219,702,o),
(237,702,cs),
(256,702,o),
(265,681,o),
(265,660,cs),
(265,-1,l)
);
}
);
width = 311;
}
);
unicode = 49;
},
{
glyphname = three;
layers = (
{
layerId = "787108DE-7A61-4466-9FE6-B6E3F273E4CB";
shapes = (
{
attr = {
strokeWidth = 10;
lineCapEnd = 1;
lineCapStart = 1;
};
closed = 0;
nodes = (
(30,701,l),
(370,701,l),
(390,707,o),
(411,694,o),
(412,673,c),
(413,661,o),
(408,650,o),
(398,644,cs),
(72,446,ls),
(49,432,o),
(31,409,o),
(44,389,c),
(54,375,o),
(75,376,o),
(87,389,c),
(210,537,o),
(463,435,o),
(455,219,cs),
(451,99,o),
(350,6,o),
(228,-7,cs),
(157,-15,o),
(86,5,o),
(30,49,c)
);
}
);
width = 507;
},
{
layerId = "A0B93036-4938-4FDF-B53E-670010F591C3";
shapes = (
{
attr = {
strokeWidth = 50;
strokeHeight = 100;
lineCapEnd = 1;
lineCapStart = 1;
};
closed = 0;
nodes = (
(30,701,l),
(370,701,l),
(390,707,o),
(411,694,o),
(412,673,c),
(413,661,o),
(408,650,o),
(398,644,cs),
(72,446,ls),
(49,432,o),
(31,409,o),
(44,389,c),
(54,375,o),
(75,376,o),
(87,389,c),
(210,537,o),
(463,435,o),
(455,219,cs),
(451,99,o),
(350,6,o),
(228,-7,cs),
(157,-15,o),
(86,5,o),
(30,49,c)
);
}
);
width = 507;
}
);
unicode = 51;
},
{
glyphname = four;
layers = (
{
layerId = "787108DE-7A61-4466-9FE6-B6E3F273E4CB";
shapes = (
{
attr = {
strokeWidth = 10;
lineCapEnd = 1;
lineCapStart = 1;
};
closed = 0;
nodes = (
(325,693,l),
(330,703,o),
(341,708,o),
(353,707,cs),
(362.306,706.069,o),
(370.314,701.241,o),
(375.611,694.329,cs),
(381.699,686.387,o),
(384.208,675.694,o),
(381,665,c),
(0,171,l),
(-5,146,o),
(17,124,o),
(42,129,c),
(63,132,o),
(73,153,o),
(85,171,c),
(179,322,o),
(399,322,o),
(494,171,cs),
(505,153,o),
(516,132,o),
(536,129,c),
(547.006,126.799,o),
(557.43,129.83,o),
(565.226,136.047,cs),
(575.138,143.952,o),
(580.799,157.006,o),
(578,171,c)
);
},
{
attr = {
strokeWidth = 10;
lineCapEnd = 1;
lineCapStart = 1;
};
closed = 0;
nodes = (
(325,425,l),
(325,2,l)
);
}
);
width = 620;
},
{
layerId = "A0B93036-4938-4FDF-B53E-670010F591C3";
shapes = (
{
attr = {
strokeWidth = 50;
strokeHeight = 100;
lineCapEnd = 1;
lineCapStart = 1;
};
closed = 0;
nodes = (
(325,693,l),
(330,703,o),
(341,708,o),
(353,707,cs),
(362.306,706.069,o),
(370.314,701.241,o),
(375.611,694.329,cs),
(381.699,686.387,o),
(384.208,675.694,o),
(381,665,c),
(0,171,l),
(-5,146,o),
(17,124,o),
(42,129,c),
(63,132,o),
(73,153,o),
(85,171,c),
(179,322,o),
(399,322,o),
(494,171,cs),
(505,153,o),
(516,132,o),
(536,129,c),
(547.006,126.799,o),
(557.43,129.83,o),
(565.226,136.047,cs),
(575.138,143.952,o),
(580.799,157.006,o),
(578,171,c)
);
},
{
attr = {
strokeWidth = 50;
strokeHeight = 100;
lineCapEnd = 1;
lineCapStart = 1;
};
closed = 0;
nodes = (
(325,425,l),
(325,2,l)
);
}
);
width = 620;
}
);
unicode = 52;
},
{
glyphname = five;
layers = (
{
layerId = "787108DE-7A61-4466-9FE6-B6E3F273E4CB";
shapes = (
{
attr = {
strokeWidth = 10;
lineCapEnd = 1;
lineCapStart = 1;
};
closed = 0;
nodes = (
(422,700,l),
(40,700,l),
(40,389,l),
(51,376,o),
(71,376,o),
(82,389,cs),
(209,539,o),
(466,439,o),
(464,219,cs),
(463,95,o),
(363,-5,o),
(238,-7,cs),
(156,-9,o),
(80,35,o),
(40,106,c)
);
}
);
width = 507;
},
{
layerId = "A0B93036-4938-4FDF-B53E-670010F591C3";
shapes = (
{
attr = {
strokeWidth = 50;
strokeHeight = 100;
lineCapEnd = 1;
lineCapStart = 1;
};
closed = 0;
nodes = (
(422,700,l),
(40,700,l),
(40,389,l),
(51,376,o),
(71,376,o),
(82,389,cs),
(209,539,o),
(466,439,o),
(464,219,cs),
(463,95,o),
(363,-5,o),
(238,-7,cs),
(156,-9,o),
(80,35,o),
(40,106,c)
);
}
);
width = 507;
}
);
unicode = 53;
},
{
glyphname = six;
layers = (
{
layerId = "787108DE-7A61-4466-9FE6-B6E3F273E4CB";
shapes = (
{
attr = {
strokeWidth = 10;
lineCapEnd = 1;
lineCapStart = 1;
};
closed = 0;
nodes = (
(70,415,l),
(64,399,o),
(63,380,o),
(80,372,cs),
(97,364,o),
(111,373,o),
(119,390,c),
(209,559,o),
(485,443,o),
(486,226,cs),
(487,101,o),
(387,-1,o),
(263,3,cs),
(135,7,o),
(40,122,o),
(40,254,cs),
(40,484,o),
(215,677,o),
(444,700,c)
);
}
);
width = 527;
},
{
layerId = "A0B93036-4938-4FDF-B53E-670010F591C3";
shapes = (
{
attr = {
strokeWidth = 50;
strokeHeight = 100;
lineCapEnd = 1;
lineCapStart = 1;
};
closed = 0;
nodes = (
(70,415,l),
(64,399,o),
(63,380,o),
(80,372,cs),
(97,364,o),
(111,373,o),
(119,390,c),
(209,559,o),
(485,443,o),
(486,226,cs),
(487,101,o),
(387,-1,o),
(263,3,cs),
(135,7,o),
(40,122,o),
(40,254,cs),
(40,484,o),
(215,677,o),
(444,700,c)
);
}
);
width = 527;
}
);
unicode = 54;
},
{
glyphname = seven;
layers = (
{
layerId = "787108DE-7A61-4466-9FE6-B6E3F273E4CB";
shapes = (
{
attr = {
strokeWidth = 10;
lineCapEnd = 1;
lineCapStart = 1;
};
closed = 0;
nodes = (
(15,649,l),
(12.486,662.074,o),
(17.052,674.642,o),
(25.519,683.145,cs),
(33.89,691.551,o),
(46.074,695.983,o),
(59,693,c),
(80,689,o),
(91,668,o),
(103,649,cs),
(190,515,o),
(385,515,o),
(472,649,cs),
(484,668,o),
(494,689,o),
(516,693,c),
(528.926,695.983,o),
(541.11,691.551,o),
(549.481,683.146,cs),
(557.948,674.643,o),
(562.514,662.074,o),
(560,649,c),
(133,1,l)
);
},
{
attr = {
strokeWidth = 10;
lineCapEnd = 1;
lineCapStart = 1;
};
closed = 0;
nodes = (
(103,340,l),
(516,340,l)
);
}
);
width = 572;
},
{
layerId = "A0B93036-4938-4FDF-B53E-670010F591C3";
shapes = (
{
attr = {
strokeWidth = 50;
strokeHeight = 100;
lineCapEnd = 1;
lineCapStart = 1;
};
closed = 0;
nodes = (
(15,649,l),
(12.486,662.074,o),
(17.052,674.642,o),
(25.519,683.145,cs),
(33.89,691.551,o),
(46.074,695.983,o),
(59,693,c),
(80,689,o),
(91,668,o),
(103,649,cs),
(190,515,o),
(385,515,o),
(472,649,cs),
(484,668,o),
(494,689,o),
(516,693,c),
(528.926,695.983,o),
(541.11,691.551,o),
(549.481,683.146,cs),
(557.948,674.643,o),
(562.514,662.074,o),
(560,649,c),
(133,1,l)
);
},
{
attr = {
strokeWidth = 50;
strokeHeight = 100;
lineCapEnd = 1;
lineCapStart = 1;
};
closed = 0;
nodes = (
(103,340,l),
(516,340,l)
);
}
);
width = 572;
}
);
unicode = 55;
},
{
glyphname = eight;
layers = (
{
attr = {
color = 1;
};
layerId = "787108DE-7A61-4466-9FE6-B6E3F273E4CB";
shapes = (
{
attr = {
fill = 1;
strokeWidth = 10;
strokeColor = (0,255);
};
closed = 1;
nodes = (
(134,705,o),
(34,633,o),
(48,535,cs),
(59,464,o),
(119,421,o),
(193,421,cs),
(209,421,o),
(222,408,o),
(222,393,cs),
(222,378,o),
(209,364,o),
(193,364,cs),
(95,364,o),
(23,291,o),
(20,195,cs),
(18,80,o),
(125,-4,o),
(247,-4,cs),
(368,-4,o),
(477,80,o),
(473,195,cs),
(471,291,o),
(399,364,o),
(300,364,cs),
(284,364,o),
(271,378,o),
(271,393,cs),
(271,408,o),
(284,421,o),
(300,421,cs),
(374,421,o),
(434,464,o),
(445,535,cs),
(460,633,o),
(359,705,o),
(247,705,cs)
);
}
);
width = 493;
},
{
attr = {
color = 1;
};
layerId = "A0B93036-4938-4FDF-B53E-670010F591C3";
shapes = (
{
attr = {
fill = 1;
strokeWidth = 50;
strokeHeight = 100;
strokeColor = (0,255);
};
closed = 1;
nodes = (
(134,705,o),
(34,633,o),
(48,535,cs),
(59,464,o),
(119,421,o),
(193,421,cs),
(209,421,o),
(222,408,o),
(222,393,cs),
(222,378,o),
(209,364,o),
(193,364,cs),
(95,364,o),
(23,291,o),
(20,195,cs),
(18,80,o),
(125,-4,o),
(247,-4,cs),
(368,-4,o),
(477,80,o),
(473,195,cs),
(471,291,o),
(399,364,o),
(300,364,cs),
(284,364,o),
(271,378,o),
(271,393,cs),
(271,408,o),
(284,421,o),
(300,421,cs),
(374,421,o),
(434,464,o),
(445,535,cs),
(460,633,o),
(359,705,o),
(247,705,cs)
);
}
);
width = 493;
}
);
unicode = 56;
},
{
glyphname = nine;
layers = (
{
layerId = "787108DE-7A61-4466-9FE6-B6E3F273E4CB";
shapes = (
{
attr = {
strokeWidth = 10;
lineCapEnd = 1;
lineCapStart = 1;
};
closed = 0;
nodes = (
(457,288,l),
(463,304,o),
(464,323,o),
(447,331,cs),
(430,339,o),
(417,330,o),
(408,313,cs),
(319,144,o),
(42,260,o),
(41,477,cs),
(40,602,o),
(140,704,o),
(264,700,cs),
(392,696,o),
(487,581,o),
(487,449,cs),
(487,219,o),
(312,26,o),
(83,3,c)
);
}
);
width = 527;
},
{
layerId = "A0B93036-4938-4FDF-B53E-670010F591C3";
shapes = (
{
attr = {
strokeWidth = 50;
strokeHeight = 100;
lineCapEnd = 1;
lineCapStart = 1;
};
closed = 0;
nodes = (
(457,288,l),
(463,304,o),
(464,323,o),
(447,331,cs),
(430,339,o),
(417,330,o),
(408,313,cs),
(319,144,o),
(42,260,o),
(41,477,cs),
(40,602,o),
(140,704,o),
(264,700,cs),
(392,696,o),
(487,581,o),
(487,449,cs),
(487,219,o),
(312,26,o),
(83,3,c)
);
}
);
width = 527;
}
);
unicode = 57;
},
{
glyphname = AE;
leftMetricsKey = A;
rightMetricsKey = E;
layers = (
{
layerId = "787108DE-7A61-4466-9FE6-B6E3F273E4CB";
shapes = (
{
attr = {
strokeWidth = 10;
lineCapEnd = 1;
lineCapStart = 1;
};
closed = 0;
nodes = (
(31.023,-1.023,l),
(41.256,16.373,o),
(50.466,33.769,o),
(57.629,52.188,cs),
(115.957,193.404,o),
(84.235,352.015,o),
(110.841,502.44,cs),
(130.283,610.91,o),
(187.588,714.263,o),
(296.058,714.263,cs),
(404.528,714.263,o),
(464.903,607.84,o),
(483.322,499.37,c)
);
},
{
attr = {
strokeWidth = 10;
lineCapEnd = 1;
lineCapStart = 1;
};
closed = 0;
nodes = (
(907.344,714.53,l),
(880.358,601.399,o),
(744.393,555.731,o),
(656.172,630.46,cs),
(618.807,661.597,o),
(593.898,714.53,o),
(544.079,714.53,cs),
(483.88,714.53,o),
(471.426,643.953,o),
(475.577,575.451,cs),
(483.88,409.387,o),
(555.495,249.551,o),
(516.055,87.638,cs),
(508.79,54.426,o),
(492.184,22.251,o),
(461.047,17.061,cs),
(434.061,12.91,o),
(408.114,31.592,o),
(405,59.615,cs),
(390.469,172.746,o),
(539.927,117.737,o),
(677.968,25.364,cs),
(768.265,-34.834,o),
(898.002,6.682,o),
(934.329,109.434,c)
);
},
{
attr = {
strokeWidth = 10;
lineCapEnd = 1;
lineCapStart = 1;
};
closed = 0;
nodes = (
(50.038,325.317,l),
(208.837,325.317,o),
(683.157,325.317,o),
(841.956,325.317,c)
);
}
);
width = 976;
},
{
layerId = "A0B93036-4938-4FDF-B53E-670010F591C3";
shapes = (
{
attr = {
strokeWidth = 50;
strokeHeight = 100;
lineCapEnd = 1;
lineCapStart = 1;
};
closed = 0;
nodes = (
(31.023,-1.023,l),
(41.256,16.373,o),
(50.466,33.769,o),
(57.629,52.188,cs),
(115.957,193.404,o),
(84.235,352.015,o),
(110.841,502.44,cs),
(130.283,610.91,o),
(187.588,714.263,o),
(296.058,714.263,cs),
(404.528,714.263,o),
(464.903,607.84,o),
(483.322,499.37,c)
);
},
{
attr = {
strokeWidth = 50;
strokeHeight = 100;
lineCapEnd = 1;
lineCapStart = 1;
};
closed = 0;
nodes = (
(907.344,714.53,l),
(880.358,601.399,o),
(744.393,555.731,o),
(656.172,630.46,cs),
(618.807,661.597,o),
(593.898,714.53,o),
(544.079,714.53,cs),
(483.88,714.53,o),
(471.426,643.953,o),
(475.577,575.451,cs),
(483.88,409.387,o),
(555.495,249.551,o),
(516.055,87.638,cs),
(508.79,54.426,o),
(492.184,22.251,o),
(461.047,17.061,cs),
(434.061,12.91,o),
(408.114,31.592,o),
(405,59.615,cs),
(390.469,172.746,o),
(539.927,117.737,o),
(677.968,25.364,cs),
(768.265,-34.834,o),
(898.002,6.682,o),
(934.329,109.434,c)
);
},
{
attr = {
strokeWidth = 50;
strokeHeight = 100;
lineCapEnd = 1;
lineCapStart = 1;
};
closed = 0;
nodes = (
(50.038,325.317,l),
(208.837,325.317,o),
(683.157,325.317,o),
(841.956,325.317,c)
);
}
);
width = 976;
}
);
unicode = 198;
},
{
glyphname = Oslash;
leftMetricsKey = O;
rightMetricsKey = O;
layers = (
{
layerId = "787108DE-7A61-4466-9FE6-B6E3F273E4CB";
shapes = (
{
attr = {
strokeWidth = 10;
lineCapEnd = 1;
lineCapStart = 1;
};
closed = 0;
nodes = (
(50,0,l),
(534,700,l)
);
},
{
alignment = -1;
ref = O;
}
);
width = 593;
},
{
layerId = "A0B93036-4938-4FDF-B53E-670010F591C3";
shapes = (
{
attr = {
strokeWidth = 50;
strokeHeight = 100;
lineCapEnd = 1;
lineCapStart = 1;
};
closed = 0;
nodes = (
(50,0,l),
(534,700,l)
);
},
{
alignment = -1;
ref = O;
}
);
width = 593;
}
);
unicode = 216;
},
{
glyphname = Thorn;
layers = (
{
layerId = "787108DE-7A61-4466-9FE6-B6E3F273E4CB";
shapes = (
{
attr = {
strokeWidth = 10;
lineCapEnd = 1;
lineCapStart = 1;
};
closed = 0;
nodes = (
(107.783,700.244,l),
(107.783,-0.028,l)
);
},
{
attr = {
strokeWidth = 10;
lineCapEnd = 1;
lineCapStart = 1;
};
closed = 0;
nodes = (
(108.811,511.037,l),
(197.245,602.556,o),
(359.716,619.008,o),
(453.292,488.414,cs),
(615.763,262.188,o),
(309.33,-3.113,o),
(108.811,189.179,c)
);
}
);
width = 605;
},
{
layerId = "A0B93036-4938-4FDF-B53E-670010F591C3";
shapes = (
{
attr = {
strokeWidth = 50;
strokeHeight = 100;
lineCapEnd = 1;
lineCapStart = 1;
};
closed = 0;
nodes = (
(107.783,700.244,l),
(107.783,-0.028,l)
);
},
{
attr = {
strokeWidth = 50;
strokeHeight = 100;
lineCapEnd = 1;
lineCapStart = 1;
};
closed = 0;
nodes = (
(108.811,511.037,l),
(197.245,602.556,o),
(359.716,619.008,o),
(453.292,488.414,cs),
(615.763,262.188,o),
(309.33,-3.113,o),
(108.811,189.179,c)
);
}
);
width = 605;
}
);
unicode = 222;
},
{
glyphname = ae;
leftMetricsKey = a;
rightMetricsKey = e;
layers = (
{
layerId = "787108DE-7A61-4466-9FE6-B6E3F273E4CB";
shapes = (
{
attr = {
strokeWidth = 10;
lineCapEnd = 1;
lineCapStart = 1;
};
closed = 0;
nodes = (
(55,378,l),
(76,459,o),
(149,516,o),
(233,515,cs),
(344,514,o),
(430,420,o),
(421,310,c),
(421,223,l)
);
},
{
attr = {
strokeWidth = 10;
lineCapEnd = 1;
lineCapStart = 1;
};
closed = 0;
nodes = (
(421,310,l),
(421,95,o),
(111,287,o),
(45,173,cs),
(-9,81,o),
(95,-35,o),
(233,-9,cs),
(321,8,o),
(396,71,o),
(417,158,cs),
(421,176,o),
(422,178,o),
(423,194,c)
);
},
{
alignment = -1;
pos = (382,0);
ref = e;
}
);
width = 870;
},
{
layerId = "A0B93036-4938-4FDF-B53E-670010F591C3";
shapes = (
{
attr = {
strokeWidth = 50;
strokeHeight = 100;
lineCapEnd = 1;
lineCapStart = 1;
};
closed = 0;
nodes = (
(55,378,l),
(76,459,o),
(149,516,o),
(233,515,cs),
(344,514,o),
(430,420,o),
(421,310,c),
(421,223,l)
);
},
{
attr = {
strokeWidth = 50;
strokeHeight = 100;
lineCapEnd = 1;
lineCapStart = 1;
};
closed = 0;
nodes = (
(421,310,l),
(421,95,o),
(111,287,o),
(45,173,cs),
(-9,81,o),
(95,-35,o),
(233,-9,cs),
(321,8,o),
(396,71,o),
(417,158,cs),
(421,176,o),
(422,178,o),
(423,194,c)
);
},
{
alignment = -1;
pos = (382,0);
ref = e;
}
);
width = 870;
}
);
unicode = 230;
},
{
glyphname = oslash;
leftMetricsKey = o;
rightMetricsKey = o;
layers = (
{
layerId = "787108DE-7A61-4466-9FE6-B6E3F273E4CB";
shapes = (
{
attr = {
strokeWidth = 10;
lineCapEnd = 1;
lineCapStart = 1;
};
closed = 0;
nodes = (
(455,500,l),
(50,0,l)
);
},
{
alignment = -1;
ref = o;
}
);
width = 505;
},
{
layerId = "A0B93036-4938-4FDF-B53E-670010F591C3";
shapes = (
{
attr = {
strokeWidth = 50;
strokeHeight = 100;
lineCapEnd = 1;
lineCapStart = 1;
};
closed = 0;
nodes = (
(455,500,l),
(50,0,l)
);
},
{
alignment = -1;
ref = o;
}
);
width = 505;
}
);
unicode = 248;
},
{
glyphname = thorn;
leftMetricsKey = p;
rightMetricsKey = p;
layers = (
{
attr = {
color = 1;
};
layerId = "787108DE-7A61-4466-9FE6-B6E3F273E4CB";
shapes = (
{
attr = {
fill = 1;
strokeWidth = 10;
strokeColor = (0,255);
lineCapEnd = 1;
lineCapStart = 1;
};
closed = 1;
nodes = (
(134.016,96.32,o),
(220.32,-8.544,o),
(334.464,0.736,cs),
(448.608,10.944,o),
(515.424,127.872,o),
(517.28,250.368,cs),
(520.064,378.432,o),
(452.32,503.712,o),
(334.464,513.92,cs),
(192.48,525.984,o),
(95.04,375.648,o),
(117.312,217.888,cs)
);
},
{
attr = {
fill = 1;
strokeWidth = 10;
strokeColor = (0,255);
lineCapEnd = 1;
lineCapStart = 1;
};
closed = 0;
nodes = (
(44,648,l),
(33,673,o),
(52,701,o),
(79,701,cs),
(106,701,o),
(124,673,o),
(114,648,c),
(114,-189,l)
);
}
);
width = 556;
},
{
attr = {
color = 1;
};
layerId = "A0B93036-4938-4FDF-B53E-670010F591C3";
shapes = (
{
attr = {
fill = 1;
strokeWidth = 50;
strokeHeight = 100;
strokeColor = (0,255);
lineCapEnd = 1;
lineCapStart = 1;
};
closed = 1;
nodes = (
(135.016,96.32,o),
(221.32,-8.544,o),
(335.464,0.736,cs),
(449.608,10.944,o),
(516.424,127.872,o),
(518.28,250.368,cs),
(521.064,378.432,o),
(453.32,503.712,o),
(335.464,513.92,cs),
(193.48,525.984,o),
(96.04,375.648,o),
(118.312,217.888,cs)
);
},
{
attr = {
fill = 1;
strokeWidth = 50;
strokeHeight = 100;
strokeColor = (0,255);
lineCapEnd = 1;
lineCapStart = 1;
};
closed = 0;
nodes = (
(45,648,l),
(34,673,o),
(53,701,o),
(80,701,cs),
(107,701,o),
(125,673,o),
(115,648,c),
(115,-189,l)
);
}
);
width = 557;
}
);
unicode = 254;
},
{
glyphname = exclam;
layers = (
{
attr = {
color = 1;
};
layerId = "787108DE-7A61-4466-9FE6-B6E3F273E4CB";
shapes = (
{
attr = {
fill = 1;
strokeWidth = 10;
strokeColor = (0,255);
lineCapEnd = 1;
lineCapStart = 1;
};
closed = 0;
nodes = (
(61,214,l),
(59,190,o),
(79,170,o),
(103,172,cs),
(129,174,o),
(145,200,o),
(145,228,cs),
(145,406,o),
(61,466,o),
(61,644,cs),
(61,672,o),
(77,698,o),
(103,700,cs),
(127,702,o),
(147,682,o),
(145,658,c)
);
},
{
attr = {
fill = 1;
strokeWidth = 10;
strokeColor = (0,255);
lineCapEnd = 1;
lineCapStart = 1;
};
closed = 1;
nodes = (
(127,97,o),
(138,72,o),
(138,46,cs),
(138,21,o),
(127,-5,o),
(104,-5,cs),
(82,-5,o),
(70,21,o),
(70,46,cs),
(70,72,o),
(82,97,o),
(104,97,cs)
);
}
);
width = 186;
},
{
attr = {
color = 1;
};
layerId = "A0B93036-4938-4FDF-B53E-670010F591C3";
shapes = (
{
attr = {
fill = 1;
strokeWidth = 50;
strokeHeight = 100;
strokeColor = (0,255);
lineCapEnd = 1;
lineCapStart = 1;
};
closed = 0;
nodes = (
(61,214,l),
(59,190,o),
(79,170,o),
(103,172,cs),
(129,174,o),
(145,200,o),
(145,228,cs),
(145,406,o),
(61,466,o),
(61,644,cs),
(61,672,o),
(77,698,o),
(103,700,cs),
(127,702,o),
(147,682,o),
(145,658,c)
);
},
{
attr = {
fill = 1;
strokeWidth = 50;
strokeHeight = 100;
strokeColor = (0,255);
lineCapEnd = 1;
lineCapStart = 1;
};
closed = 1;
nodes = (
(127,97,o),
(138,72,o),
(138,46,cs),
(138,21,o),
(127,-5,o),
(104,-5,cs),
(82,-5,o),
(70,21,o),
(70,46,cs),
(70,72,o),
(82,97,o),
(104,97,cs)
);
}
);
width = 186;
}
);
unicode = 33;
},
{
glyphname = question;
layers = (
{
attr = {
color = 1;
};
layerId = "787108DE-7A61-4466-9FE6-B6E3F273E4CB";
shapes = (
{
attr = {
fill = 1;
strokeWidth = 10;
strokeColor = (0,255);
lineCapEnd = 1;
lineCapStart = 1;
};
closed = 1;
nodes = (
(277,20,o),
(288,-5,o),
(311,-5,cs),
(333,-5,o),
(344,20,o),
(344,46,cs),
(344,71,o),
(333,96,o),
(311,96,cs),
(288,96,o),
(277,71,o),
(277,46,cs)
);
},
{
attr = {
fill = 1;
strokeWidth = 10;
strokeColor = (0,255);
lineCapEnd = 1;
lineCapStart = 1;
};
closed = 0;
nodes = (
(344,223,l),
(359,199,o),
(339,168,o),
(311,172,cs),
(288,175,o),
(277,199,o),
(277,223,cs),
(277,232,ls),
(277,339,o),
(376,337,o),
(438,415,cs),
(467,450,o),
(480,491,o),
(480,532,cs),
(480,645,o),
(405,718,o),
(277,714,cs),
(171,711,o),
(80,655,o),
(80,526,cs),
(80,476,o),
(111,386,o),
(214,389,c)
);
}
);
width = 562;
},
{
attr = {
color = 1;
};
layerId = "A0B93036-4938-4FDF-B53E-670010F591C3";
shapes = (
{
attr = {
fill = 1;
strokeWidth = 50;
strokeHeight = 100;
strokeColor = (0,255);
lineCapEnd = 1;
lineCapStart = 1;
};
closed = 1;
nodes = (
(277,20,o),
(288,-5,o),
(311,-5,cs),
(333,-5,o),
(344,20,o),
(344,46,cs),
(344,71,o),
(333,96,o),
(311,96,cs),
(288,96,o),
(277,71,o),
(277,46,cs)
);
},
{
attr = {
fill = 1;
strokeWidth = 50;
strokeHeight = 100;
strokeColor = (0,255);
lineCapEnd = 1;
lineCapStart = 1;
};
closed = 0;
nodes = (
(344,223,l),
(359,199,o),
(339,168,o),
(311,172,cs),
(288,175,o),
(277,199,o),
(277,223,cs),
(277,232,ls),
(277,339,o),
(376,337,o),
(438,415,cs),
(467,450,o),
(480,491,o),
(480,532,cs),
(480,645,o),
(405,718,o),
(277,714,cs),
(171,711,o),
(80,655,o),
(80,526,cs),
(80,476,o),
(111,386,o),
(214,389,c)
);
}
);
width = 562;
}
);
unicode = 63;
},
{
glyphname = comma;
layers = (
{
attr = {
color = 1;
};
layerId = "787108DE-7A61-4466-9FE6-B6E3F273E4CB";
shapes = (
{
attr = {
fill = 1;
strokeWidth = 10;
strokeColor = (0,255);
lineCapEnd = 1;
lineCapStart = 1;
};
closed = 1;
nodes = (
(109.11,19.046,o),
(120.283,-6.347,o),
(142.628,-6.347,cs),
(164.973,-6.347,o),
(176.146,19.046,o),
(176.146,44.438,cs),
(176.146,69.831,o),
(164.973,95.223,o),
(142.628,95.223,cs),
(120.283,95.223,o),
(109.11,69.831,o),
(109.11,44.438,cs)
);
},
{
attr = {
fill = 1;
strokeWidth = 10;
strokeColor = (0,255);
lineCapEnd = 1;
lineCapStart = 1;
};
closed = 0;
nodes = (
(176.146,44.438,l),
(176.146,-33.771,o),
(152.785,-110.964,o),
(109.11,-175.969,c)
);
}
);
width = 268;
},
{
attr = {
color = 1;
};
layerId = "A0B93036-4938-4FDF-B53E-670010F591C3";
shapes = (
{
attr = {
fill = 1;
strokeWidth = 50;
strokeHeight = 100;
strokeColor = (0,255);
lineCapEnd = 1;
lineCapStart = 1;
};
closed = 1;
nodes = (
(109.11,19.046,o),
(120.283,-6.347,o),
(142.628,-6.347,cs),
(164.973,-6.347,o),
(176.146,19.046,o),
(176.146,44.438,cs),
(176.146,69.831,o),
(164.973,95.223,o),
(142.628,95.223,cs),
(120.283,95.223,o),
(109.11,69.831,o),
(109.11,44.438,cs)
);
},
{
attr = {
fill = 1;
strokeWidth = 50;
strokeHeight = 100;
strokeColor = (0,255);
lineCapEnd = 1;
lineCapStart = 1;
};
closed = 0;
nodes = (
(176.146,44.438,l),
(176.146,-33.771,o),
(152.785,-110.964,o),
(109.11,-175.969,c)
);
}
);
width = 268;
}
);
unicode = 44;
},
{
glyphname = period;
layers = (
{
attr = {
color = 1;
};
layerId = "787108DE-7A61-4466-9FE6-B6E3F273E4CB";
shapes = (
{
attr = {
fill = 1;
strokeWidth = 10;
strokeColor = (0,255);
};
closed = 1;
nodes = (
(168,97,o),
(179,72,o),
(179,46,cs),
(179,21,o),
(168,-5,o),
(145,-5,cs),
(123,-5,o),
(111,21,o),
(111,46,cs),
(111,72,o),
(123,97,o),
(145,97,cs)
);
}
);
width = 268;
},
{
attr = {
color = 1;
};
layerId = "A0B93036-4938-4FDF-B53E-670010F591C3";
shapes = (
{
attr = {
fill = 1;
strokeWidth = 50;
strokeHeight = 100;
strokeColor = (0,255);
};
closed = 1;
nodes = (
(168,97,o),
(179,72,o),
(179,46,cs),
(179,21,o),
(168,-5,o),
(145,-5,cs),
(123,-5,o),
(111,21,o),
(111,46,cs),
(111,72,o),
(123,97,o),
(145,97,cs)
);
}
);
width = 268;
}
);
unicode = 46;
},
{
glyphname = slash;
layers = (
{
layerId = "787108DE-7A61-4466-9FE6-B6E3F273E4CB";
shapes = (
{
attr = {
strokeWidth = 10;
lineCapEnd = 1;
lineCapStart = 1;
};
closed = 0;
nodes = (
(61,0,l),
(321,700,l)
);
}
);
width = 372;
},
{
layerId = "A0B93036-4938-4FDF-B53E-670010F591C3";
shapes = (
{
attr = {
strokeWidth = 50;
strokeHeight = 100;
lineCapEnd = 1;
lineCapStart = 1;
};
closed = 0;
nodes = (
(61,0,l),
(321,700,l)
);
}
);
width = 372;
}
);
unicode = 47;
},
{
glyphname = equal;
layers = (
{
layerId = "787108DE-7A61-4466-9FE6-B6E3F273E4CB";
shapes = (
{
attr = {
strokeWidth = 10;
lineCapEnd = 1;
lineCapStart = 1;
};
closed = 0;
nodes = (
(80,270,l),
(486,270,l)
);
},
{
attr = {
strokeWidth = 10;
lineCapEnd = 1;
lineCapStart = 1;
};
closed = 0;
nodes = (
(80,437,l),
(486,437,l)
);
}
);
width = 572;
},
{
layerId = "A0B93036-4938-4FDF-B53E-670010F591C3";
shapes = (
{
attr = {
strokeWidth = 50;
strokeHeight = 100;
lineCapEnd = 1;
lineCapStart = 1;
};
closed = 0;
nodes = (
(80,270,l),
(486,270,l)
);
},
{
attr = {
strokeWidth = 50;
strokeHeight = 100;
lineCapEnd = 1;
lineCapStart = 1;
};
closed = 0;
nodes = (
(80,437,l),
(486,437,l)
);
}
);
width = 572;
}
);
unicode = 61;
},
{
glyphname = plus;
layers = (
{
layerId = "787108DE-7A61-4466-9FE6-B6E3F273E4CB";
shapes = (
{
attr = {
strokeWidth = 10;
lineCapEnd = 1;
lineCapStart = 1;
};
closed = 0;
nodes = (
(279,0.375,l),
(279,500.186,l)
);
},
{
attr = {
strokeWidth = 10;
lineCapEnd = 1;
lineCapStart = 1;
};
closed = 0;
nodes = (
(529.625,249,l),
(29.814,249,l)
);
}
);
width = 572;
},
{
layerId = "A0B93036-4938-4FDF-B53E-670010F591C3";
shapes = (
{
attr = {
strokeWidth = 50;
strokeHeight = 100;
lineCapEnd = 1;
lineCapStart = 1;
};
closed = 0;
nodes = (
(279,0.375,l),
(279,500.186,l)
);
},
{
attr = {
strokeWidth = 50;
strokeHeight = 100;
lineCapEnd = 1;
lineCapStart = 1;
};
closed = 0;
nodes = (
(529.625,249,l),
(29.814,249,l)
);
}
);
width = 572;
}
);
unicode = 43;
},
{
glyphname = parenright;
layers = (
{
layerId = "787108DE-7A61-4466-9FE6-B6E3F273E4CB";
shapes = (
{
attr = {
strokeWidth = 10;
lineCapEnd = 1;
lineCapStart = 1;
};
closed = 0;
nodes = (
(52,1,l),
(98,112,o),
(122,231,o),
(122,351,cs),
(122,471,o),
(98,589,o),
(52,700,c)
);
}
);
width = 142;
},
{
layerId = "A0B93036-4938-4FDF-B53E-670010F591C3";
shapes = (
{
attr = {
strokeWidth = 50;
strokeHeight = 100;
lineCapEnd = 1;
lineCapStart = 1;
};
closed = 0;
nodes = (
(52,1,l),
(98,112,o),
(122,231,o),
(122,351,cs),
(122,471,o),
(98,589,o),
(52,700,c)
);
}
);
width = 142;
}
);
unicode = 41;
},
{
glyphname = hyphen;
layers = (
{
attr = {
color = 1;
};
layerId = "787108DE-7A61-4466-9FE6-B6E3F273E4CB";
shapes = (
{
attr = {
fill = 1;
strokeWidth = 10;
strokeColor = (0,255);
lineCapEnd = 1;
lineCapStart = 1;
};
closed = 0;
nodes = (
(70,270,l),
(306,270,l)
);
}
);
width = 366;
},
{
layerId = "A0B93036-4938-4FDF-B53E-670010F591C3";
shapes = (
{
attr = {
strokeWidth = 50;
strokeHeight = 100;
lineCapEnd = 1;
lineCapStart = 1;
};
closed = 0;
nodes = (
(70,270,l),
(306,270,l)
);
}
);
width = 366;
}
);
unicode = 45;
},
{
glyphname = grave;
layers = (
{
layerId = "787108DE-7A61-4466-9FE6-B6E3F273E4CB";
shapes = (
{
attr = {
strokeWidth = 10;
lineCapEnd = 1;
lineCapStart = 1;
};
closed = 0;
nodes = (
(261,585,l),
(19,689,l)
);
}
);
width = 281;
},
{
layerId = "A0B93036-4938-4FDF-B53E-670010F591C3";
shapes = (
{
attr = {
strokeWidth = 50;
strokeHeight = 100;
lineCapEnd = 1;
lineCapStart = 1;
};
closed = 0;
nodes = (
(261,585,l),
(19,689,l)
);
}
);
width = 281;
}
);
unicode = 96;
},
{
glyphname = cedilla;
layers = (
{
layerId = "787108DE-7A61-4466-9FE6-B6E3F273E4CB";
shapes = (
{
attr = {
strokeWidth = 10;
lineCapEnd = 1;
lineCapStart = 1;
};
closed = 0;
nodes = (
(125,-10,l),
(125,-45,o),
(87,-65,o),
(87,-93,c),
(86,-113,o),
(100,-135,o),
(122,-135,cs),
(160,-135,o),
(159,-42,o),
(211,-42,cs),
(251,-41,o),
(284,-91,o),
(261,-147,cs),
(248,-178,o),
(223,-202,o),
(193,-215,cs),
(134,-241,o),
(66,-227,o),
(22,-181,c)
);
}
);
width = 260;
},
{
layerId = "A0B93036-4938-4FDF-B53E-670010F591C3";
shapes = (
{
attr = {
strokeWidth = 50;
strokeHeight = 100;
lineCapEnd = 1;
lineCapStart = 1;
};
closed = 0;
nodes = (
(125,-10,l),
(125,-45,o),
(87,-65,o),
(87,-93,c),
(86,-113,o),
(100,-135,o),
(122,-135,cs),
(160,-135,o),
(159,-42,o),
(211,-42,cs),
(251,-41,o),
(284,-91,o),
(261,-147,cs),
(248,-178,o),
(223,-202,o),
(193,-215,cs),
(134,-241,o),
(66,-227,o),
(22,-181,c)
);
}
);
width = 260;
}
);
unicode = 184;
},
{
glyphname = acute;
layers = (
{
layerId = "787108DE-7A61-4466-9FE6-B6E3F273E4CB";
shapes = (
{
attr = {
strokeWidth = 10;
lineCapEnd = 1;
lineCapStart = 1;
};
closed = 0;
nodes = (
(9,585,l),
(251,689,l)
);
}
);
width = 260;
},
{
layerId = "A0B93036-4938-4FDF-B53E-670010F591C3";
shapes = (
{
attr = {
strokeWidth = 50;
strokeHeight = 100;
lineCapEnd = 1;
lineCapStart = 1;
};
closed = 0;
nodes = (
(9,585,l),
(251,689,l)
);
}
);
width = 260;
}
);
unicode = 180;
},
{
glyphname = dieresis;
layers = (
{
attr = {
color = 1;
};
layerId = "787108DE-7A61-4466-9FE6-B6E3F273E4CB";
shapes = (
{
attr = {
fill = 1;
strokeWidth = 10;
strokeColor = (0,255);
};
closed = 1;
nodes = (
(97,730,o),
(108,705,o),
(108,679,cs),
(108,654,o),
(97,628,o),
(74,628,cs),
(52,628,o),
(40,654,o),
(40,679,cs),
(40,705,o),
(52,730,o),
(74,730,cs)
);
},
{
attr = {
fill = 1;
strokeWidth = 10;
strokeColor = (0,255);
};
closed = 1;
nodes = (
(277,730,o),
(288,705,o),
(288,679,cs),
(288,654,o),
(277,628,o),
(254,628,cs),
(232,628,o),
(220,654,o),
(220,679,cs),
(220,705,o),
(232,730,o),
(254,730,cs)
);
}
);
width = 328;
},
{
attr = {
color = 1;
};
layerId = "A0B93036-4938-4FDF-B53E-670010F591C3";
shapes = (
{
attr = {
fill = 1;
strokeWidth = 50;
strokeHeight = 100;
strokeColor = (0,255);
};
closed = 1;
nodes = (
(97,730,o),
(108,705,o),
(108,679,cs),
(108,654,o),
(97,628,o),
(74,628,cs),
(52,628,o),
(40,654,o),
(40,679,cs),
(40,705,o),
(52,730,o),
(74,730,cs)
);
},
{
attr = {
fill = 1;
strokeWidth = 50;
strokeHeight = 100;
strokeColor = (0,255);
};
closed = 1;
nodes = (
(277,730,o),
(288,705,o),
(288,679,cs),
(288,654,o),
(277,628,o),
(254,628,cs),
(232,628,o),
(220,654,o),
(220,679,cs),
(220,705,o),
(232,730,o),
(254,730,cs)
);
}
);
width = 328;
}
);
unicode = 168;
},
{
glyphname = circumflex;
layers = (
{
layerId = "787108DE-7A61-4466-9FE6-B6E3F273E4CB";
shapes = (
{
attr = {
strokeWidth = 10;
lineCapEnd = 1;
lineCapStart = 1;
};
closed = 0;
nodes = (
(84,585,l),
(205,689,l),
(326,585,l)
);
}
);
width = 418;
},
{
layerId = "A0B93036-4938-4FDF-B53E-670010F591C3";
shapes = (
{
attr = {
strokeWidth = 50;
strokeHeight = 100;
lineCapEnd = 1;
lineCapStart = 1;
};
closed = 0;
nodes = (
(84,585,l),
(205,689,l),
(326,585,l)
);
}
);
width = 418;
}
);
unicode = 710;
},
{
glyphname = dotlessi;
layers = (
{
guides = (
{
angle = 90;
position = "{101, 0}";
}
);
layerId = "787108DE-7A61-4466-9FE6-B6E3F273E4CB";
shapes = (
{
attr = {
strokeWidth = 10;
lineCapEnd = 1;
lineCapStart = 1;
};
closed = 0;
nodes = (
(33,454,l),
(27.926,466.178,o),
(30.061,478.781,o),
(36.793,488.288,cs),
(43.328,497.517,o),
(54.194,503.828,o),
(67,504,cs),
(79.386,504.167,o),
(89.682,498.476,o),
(96.221,489.947,cs),
(103.908,479.92,o),
(106.404,466.969,o),
(101,454,c),
(101,47,l),
(96.005,35.013,o),
(97.996,22.526,o),
(104.48,13.03,cs),
(110.977,3.514,o),
(121.986,-3,o),
(135,-3,cs),
(148.159,-3,o),
(159.268,3.66,o),
(165.736,13.349,cs),
(172.048,22.805,o),
(173.939,35.146,o),
(169,47,c)
);
}
);
width = 192;
},
{
guides = (
{
angle = 90;
position = "{101, 0}";
}
);
layerId = "A0B93036-4938-4FDF-B53E-670010F591C3";
shapes = (
{
attr = {
strokeWidth = 50;
strokeHeight = 100;
lineCapEnd = 1;
lineCapStart = 1;
};
closed = 0;
nodes = (
(33,454,l),
(27.926,466.178,o),
(30.061,478.781,o),
(36.793,488.288,cs),
(43.328,497.517,o),
(54.194,503.828,o),
(67,504,cs),
(79.386,504.167,o),
(89.682,498.476,o),
(96.221,489.947,cs),
(103.908,479.92,o),
(106.404,466.969,o),
(101,454,c),
(101,47,l),
(96.005,35.013,o),
(97.996,22.526,o),
(104.48,13.03,cs),
(110.977,3.514,o),
(121.986,-3,o),
(135,-3,cs),
(148.159,-3,o),
(159.268,3.66,o),
(165.736,13.349,cs),
(172.048,22.805,o),
(173.939,35.146,o),
(169,47,c)
);
}
);
width = 192;
}
);
unicode = 305;
},
{
glyphname = quotesingle;
layers = (
{
attr = {
color = 1;
};
layerId = "787108DE-7A61-4466-9FE6-B6E3F273E4CB";
shapes = (
{
attr = {
fill = 1;
strokeWidth = 10;
strokeColor = (0,255);
lineCapEnd = 1;
lineCapStart = 1;
};
closed = 1;
nodes = (
(81.11,664.046,o),
(92.283,638.653,o),
(114.628,638.653,cs),
(136.973,638.653,o),
(148.146,664.046,o),
(148.146,689.438,cs),
(148.146,714.831,o),
(136.973,740.223,o),
(114.628,740.223,cs),
(92.283,740.223,o),
(81.11,714.831,o),
(81.11,689.438,cs)
);
},
{
attr = {
fill = 1;
strokeWidth = 10;
strokeColor = (0,255);
lineCapEnd = 1;
lineCapStart = 1;
};
closed = 0;
nodes = (
(148.146,689.438,l),
(148.146,611.229,o),
(124.785,534.036,o),
(81.11,469.031,c)
);
}
);
width = 229;
},
{
attr = {
color = 1;
};
layerId = "A0B93036-4938-4FDF-B53E-670010F591C3";
shapes = (
{
attr = {
fill = 1;
strokeWidth = 50;
strokeHeight = 100;
strokeColor = (0,255);
lineCapEnd = 1;
lineCapStart = 1;
};
closed = 1;
nodes = (
(81.11,664.046,o),
(92.283,638.653,o),
(114.628,638.653,cs),
(136.973,638.653,o),
(148.146,664.046,o),
(148.146,689.438,cs),
(148.146,714.831,o),
(136.973,740.223,o),
(114.628,740.223,cs),
(92.283,740.223,o),
(81.11,714.831,o),
(81.11,689.438,cs)
);
},
{
attr = {
fill = 1;
strokeWidth = 50;
strokeHeight = 100;
strokeColor = (0,255);
lineCapEnd = 1;
lineCapStart = 1;
};
closed = 0;
nodes = (
(148.146,689.438,l),
(148.146,611.229,o),
(124.785,534.036,o),
(81.11,469.031,c)
);
}
);
width = 229;
}
);
unicode = 39;
},
{
glyphname = tilde;
layers = (
{
layerId = "787108DE-7A61-4466-9FE6-B6E3F273E4CB";
shapes = (
{
attr = {
strokeWidth = 10;
lineCapEnd = 1;
lineCapStart = 1;
};
closed = 0;
nodes = (
(21,576,l),
(19.343,611.627,o),
(41.884,640.04,o),
(81.048,639.968,cs),
(137.727,639.863,o),
(140.573,573.19,o),
(203.737,573.06,cs),
(244.768,572.975,o),
(264.644,601.654,o),
(263,637,c)
);
}
);
width = 284;
},
{
layerId = "A0B93036-4938-4FDF-B53E-670010F591C3";
shapes = (
{
attr = {
strokeWidth = 50;
strokeHeight = 100;
lineCapEnd = 1;
lineCapStart = 1;
};
closed = 0;
nodes = (
(21,576,l),
(19.343,611.627,o),
(41.884,640.04,o),
(81.048,639.968,cs),
(137.727,639.863,o),
(140.573,573.19,o),
(203.737,573.06,cs),
(244.768,572.975,o),
(264.644,601.654,o),
(263,637,c)
);
}
);
width = 284;
}
);
unicode = 732;
},
{
glyphname = guillemotleft;
layers = (
{
layerId = "787108DE-7A61-4466-9FE6-B6E3F273E4CB";
shapes = (
{
attr = {
strokeWidth = 10;
lineCapEnd = 1;
lineCapStart = 1;
};
closed = 0;
nodes = (
(293.731,468.33,l),
(240.637,397.827,o),
(171.005,342.122,o),
(90.928,306.435,cs),
(70.909,297.731,o),
(50.019,286.416,o),
(50.019,265.526,cs),
(50.019,244.637,o),
(70.909,234.192,o),
(90.928,224.618,c),
(171.005,188.931,o),
(240.637,133.226,o),
(293.731,62.723,c)
);
},
{
attr = {
strokeWidth = 10;
lineCapEnd = 1;
lineCapStart = 1;
};
closed = 0;
nodes = (
(409.494,468.33,l),
(356.4,397.827,o),
(286.768,342.122,o),
(206.691,306.435,cs),
(186.672,297.731,o),
(165.782,286.416,o),
(165.782,265.526,cs),
(165.782,244.637,o),
(186.672,234.192,o),
(206.691,224.618,c),
(286.768,188.931,o),
(356.4,133.226,o),
(409.494,62.723,c)
);
}
);
width = 430;
},
{
layerId = "A0B93036-4938-4FDF-B53E-670010F591C3";
shapes = (
{
attr = {
strokeWidth = 50;
strokeHeight = 100;
lineCapEnd = 1;
lineCapStart = 1;
};
closed = 0;
nodes = (
(293.731,468.33,l),
(240.637,397.827,o),
(171.005,342.122,o),
(90.928,306.435,cs),
(70.909,297.731,o),
(50.019,286.416,o),
(50.019,265.526,cs),
(50.019,244.637,o),
(70.909,234.192,o),
(90.928,224.618,c),
(171.005,188.931,o),
(240.637,133.226,o),
(293.731,62.723,c)
);
},
{
attr = {
strokeWidth = 50;
strokeHeight = 100;
lineCapEnd = 1;
lineCapStart = 1;
};
closed = 0;
nodes = (
(409.494,468.33,l),
(356.4,397.827,o),
(286.768,342.122,o),
(206.691,306.435,cs),
(186.672,297.731,o),
(165.782,286.416,o),
(165.782,265.526,cs),
(165.782,244.637,o),
(186.672,234.192,o),
(206.691,224.618,c),
(286.768,188.931,o),
(356.4,133.226,o),
(409.494,62.723,c)
);
}
);
width = 430;
}
);
unicode = 171;
},
{
glyphname = guilsinglleft;
layers = (
{
layerId = "787108DE-7A61-4466-9FE6-B6E3F273E4CB";
shapes = (
{
attr = {
strokeWidth = 10;
lineCapEnd = 1;
lineCapStart = 1;
};
closed = 0;
nodes = (
(300,499,l),
(239,418,o),
(159,354,o),
(67,313,cs),
(44,303,o),
(20,290,o),
(20,266,cs),
(20,242,o),
(44,230,o),
(67,219,c),
(159,178,o),
(239,114,o),
(300,33,c)
);
}
);
width = 320;
},
{
layerId = "A0B93036-4938-4FDF-B53E-670010F591C3";
shapes = (
{
attr = {
strokeWidth = 50;
strokeHeight = 100;
lineCapEnd = 1;
lineCapStart = 1;
};
closed = 0;
nodes = (
(300,499,l),
(239,418,o),
(159,354,o),
(67,313,cs),
(44,303,o),
(20,290,o),
(20,266,cs),
(20,242,o),
(44,230,o),
(67,219,c),
(159,178,o),
(239,114,o),
(300,33,c)
);
}
);
width = 320;
}
);
unicode = 8249;
},
{
glyphname = periodcentered;
layers = (
{
attr = {
color = 1;
};
layerId = "787108DE-7A61-4466-9FE6-B6E3F273E4CB";
shapes = (
{
attr = {
fill = 1;
strokeWidth = 10;
strokeColor = (0,255);
};
closed = 1;
nodes = (
(181,409,l),
(203,359,o),
(198,300,o),
(166,255,cs),
(138,214,o),
(91,189,o),
(40,187,c),
(31,197,l),
(69,223,o),
(101,256,o),
(127,294,cs),
(149,327,o),
(166,362,o),
(176,400,c),
(171,429,l),
(181,434,l)
);
}
);
width = 225;
},
{
attr = {
color = 1;
};
layerId = "A0B93036-4938-4FDF-B53E-670010F591C3";
shapes = (
{
attr = {
fill = 1;
strokeWidth = 50;
strokeHeight = 100;
strokeColor = (0,255);
};
closed = 1;
nodes = (
(181,409,l),
(203,359,o),
(198,300,o),
(166,255,cs),
(138,214,o),
(91,189,o),
(40,187,c),
(31,197,l),
(69,223,o),
(101,256,o),
(127,294,cs),
(149,327,o),
(166,362,o),
(176,400,c),
(171,429,l),
(181,434,l)
);
}
);
width = 225;
}
);
unicode = 183;
},
{
glyphname = bullet;
layers = (
{
attr = {
color = 1;
};
layerId = "787108DE-7A61-4466-9FE6-B6E3F273E4CB";
shapes = (
{
attr = {
fill = 1;
strokeWidth = 10;
strokeColor = (0,255);
};
closed = 1;
nodes = (
(455,629,l),
(518,487,o),
(504,320,o),
(414,192,cs),
(333,77,o),
(201,5,o),
(56,-1,c),
(30,27,l),
(138,101,o),
(230,196,o),
(303,303,cs),
(366,395,o),
(414,495,o),
(441,603,c),
(427,686,l),
(455,700,l)
);
}
);
width = 524;
},
{
attr = {
color = 1;
};
layerId = "A0B93036-4938-4FDF-B53E-670010F591C3";
shapes = (
{
attr = {
fill = 1;
strokeWidth = 50;
strokeHeight = 100;
strokeColor = (0,255);
};
closed = 1;
nodes = (
(455,629,l),
(518,487,o),
(504,320,o),
(414,192,cs),
(333,77,o),
(201,5,o),
(56,-1,c),
(30,27,l),
(138,101,o),
(230,196,o),
(303,303,cs),
(366,395,o),
(414,495,o),
(441,603,c),
(427,686,l),
(455,700,l)
);
}
);
width = 524;
}
);
unicode = 8226;
},
{
glyphname = at;
layers = (
{
layerId = "787108DE-7A61-4466-9FE6-B6E3F273E4CB";
shapes = (
{
attr = {
strokeWidth = 10;
lineCapEnd = 1;
lineCapStart = 1;
};
closed = 0;
nodes = (
(625.932,500.057,l),
(625.932,111.501,l),
(626.043,83.375,o),
(640.42,45.328,o),
(679.351,45.328,cs),
(752.668,45.328,o),
(814.918,160.825,o),
(813.732,301.714,cs),
(811.768,534.874,o),
(659.121,668.458,o),
(462.854,668.458,cs),
(265.993,668.458,o),
(95.479,526.16,o),
(95.479,285.396,cs),
(95.479,47.764,o),
(249.996,-104.13,o),
(435.954,-104.13,cs),
(455.431,-104.13,o),
(478.981,-102.397,o),
(503.436,-98.035,c)
);
},
{
alignment = -1;
pos = (215.711,60.348);
ref = o;
scale = (0.879,0.879);
}
);
width = 909;
},
{
layerId = "A0B93036-4938-4FDF-B53E-670010F591C3";
shapes = (
{
attr = {
strokeWidth = 50;
strokeHeight = 100;
lineCapEnd = 1;
lineCapStart = 1;
};
closed = 0;
nodes = (
(625.932,500.057,l),
(625.932,111.501,l),
(626.043,83.375,o),
(640.42,45.328,o),
(679.351,45.328,cs),
(752.668,45.328,o),
(814.918,160.825,o),
(813.732,301.714,cs),
(811.768,534.874,o),
(659.121,668.458,o),
(462.854,668.458,cs),
(265.993,668.458,o),
(95.479,526.16,o),
(95.479,285.396,cs),
(95.479,47.764,o),
(249.996,-104.13,o),
(435.954,-104.13,cs),
(455.431,-104.13,o),
(478.981,-102.397,o),
(503.436,-98.035,cs)
);
},
{
alignment = -1;
pos = (215.711,60.348);
ref = o;
scale = (0.879,0.879);
}
);
width = 909;
}
);
unicode = 64;
},
{
glyphname = OE;
leftMetricsKey = O;
rightMetricsKey = E;
layers = (
{
attr = {
color = 1;
};
layerId = "787108DE-7A61-4466-9FE6-B6E3F273E4CB";
shapes = (
{
attr = {
fill = 1;
strokeWidth = 10;
strokeColor = (0,255);
lineCapEnd = 1;
lineCapStart = 1;
};
closed = 0;
nodes = (
(492.622,601.252,l),
(445.849,670.903,o),
(378.07,716.41,o),
(295.95,716.41,cs),
(134.555,716.41,o),
(29.505,540.632,o),
(29.505,351.251,cs),
(29.505,160.825,o),
(134.555,-14.954,o),
(295.95,-14.954,cs),
(351.352,-14.954,o),
(400.228,5.759,o),
(440.529,40.667,c)
);
},
{
alignment = -1;
pos = (403,0);
ref = E;
}
);
width = 1007;
},
{
attr = {
color = 1;
};
layerId = "A0B93036-4938-4FDF-B53E-670010F591C3";
shapes = (
{
attr = {
fill = 1;
strokeWidth = 50;
strokeHeight = 100;
strokeColor = (0,255);
lineCapEnd = 1;
lineCapStart = 1;
};
closed = 0;
nodes = (
(492.622,601.252,l),
(445.849,670.903,o),
(378.07,716.41,o),
(295.95,716.41,cs),
(134.555,716.41,o),
(29.505,540.632,o),
(29.505,351.251,cs),
(29.505,160.825,o),
(134.555,-14.954,o),
(295.95,-14.954,cs),
(351.352,-14.954,o),
(400.228,5.759,o),
(440.529,40.667,cs)
);
},
{
alignment = -1;
pos = (403,0);
ref = E;
}
);
width = 1007;
}
);
unicode = 338;
},
{
glyphname = jcircumflex;
layers = (
{
layerId = "787108DE-7A61-4466-9FE6-B6E3F273E4CB";
shapes = (
{
attr = {
strokeWidth = 10;
lineCapEnd = 1;
lineCapStart = 1;
};
closed = 0;
nodes = (
(-319,-266,l),
(-297,-174,o),
(-209,-116,o),
(-116,-131,cs),
(-4,-150,o),
(71,-277,o),
(188,-266,cs),
(279,-257,o),
(333,-166,o),
(290,-97,cs),
(272.299,-68.679,o),
(237.717,-52.634,o),
(207.857,-34.379,cs),
(178.674,-16.539,o),
(154,3.413,o),
(154,39,cs),
(156,451,ls),
(156,483,o),
(132,509,o),
(105,502,cs),
(83,496,o),
(74,469,o),
(88,451,c)
);
},
{
alignment = -1;
pos = (-82,0);
ref = circumflex;
}
);
width = 246;
},
{
layerId = "A0B93036-4938-4FDF-B53E-670010F591C3";
shapes = (
{
attr = {
strokeWidth = 50;
strokeHeight = 100;
lineCapEnd = 1;
lineCapStart = 1;
};
closed = 0;
nodes = (
(-319,-266,l),
(-297,-174,o),
(-209,-116,o),
(-116,-131,cs),
(-4,-150,o),
(71,-277,o),
(188,-266,cs),
(279,-257,o),
(333,-166,o),
(290,-97,cs),
(272.299,-68.679,o),
(237.717,-52.634,o),
(207.857,-34.379,cs),
(178.674,-16.539,o),
(154,3.413,o),
(154,39,cs),
(156,451,l),
(156,483,o),
(132,509,o),
(105,502,cs),
(83,496,o),
(74,469,o),
(88,451,c)
);
},
{
alignment = -1;
pos = (-82,0);
ref = circumflex;
}
);
width = 246;
}
);
unicode = 309;
},
{
glyphname = underscore;
layers = (
{
layerId = "787108DE-7A61-4466-9FE6-B6E3F273E4CB";
shapes = (
{
attr = {
strokeWidth = 10;
lineCapEnd = 1;
lineCapStart = 1;
};
closed = 0;
nodes = (
(520.625,0,l),
(20.814,0,l)
);
}
);
width = 541;
},
{
layerId = "A0B93036-4938-4FDF-B53E-670010F591C3";
shapes = (
{
attr = {
strokeWidth = 50;
strokeHeight = 100;
lineCapEnd = 1;
lineCapStart = 1;
};
closed = 0;
nodes = (
(520.625,0,l),
(20.814,0,l)
);
}
);
width = 541;
}
);
unicode = 95;
},
{
glyphname = f_f;
layers = (
{
layerId = "787108DE-7A61-4466-9FE6-B6E3F273E4CB";
shapes = (
{
attr = {
strokeWidth = 10;
lineCapEnd = 1;
lineCapStart = 1;
};
closed = 0;
nodes = (
(316,2,l),
(316,525,l),
(299,614,o),
(365,697,o),
(455,700,cs),
(521,702,o),
(579,659,o),
(595,595,c)
);
},
{
attr = {
strokeWidth = 10;
lineCapEnd = 1;
lineCapStart = 1;
};
closed = 0;
nodes = (
(20,493,l),
(449,493,l)
);
},
{
attr = {
strokeWidth = 10;
lineCapEnd = 1;
lineCapStart = 1;
};
closed = 0;
nodes = (
(91,2,l),
(91,525,l),
(74,614,o),
(140,697,o),
(230,700,cs),
(276.16,701.399,o),
(318.406,680.786,o),
(345.108,646.372,cs)
);
}
);
width = 515;
},
{
layerId = "A0B93036-4938-4FDF-B53E-670010F591C3";
shapes = (
{
attr = {
strokeWidth = 50;
strokeHeight = 100;
lineCapEnd = 1;
lineCapStart = 1;
};
closed = 0;
nodes = (
(316,2,l),
(316,525,l),
(299,614,o),
(365,697,o),
(455,700,cs),
(521,702,o),
(579,659,o),
(595,595,c)
);
},
{
attr = {
strokeWidth = 50;
strokeHeight = 100;
lineCapEnd = 1;
lineCapStart = 1;
};
closed = 0;
nodes = (
(20,493,l),
(449,493,l)
);
},
{
attr = {
strokeWidth = 50;
strokeHeight = 100;
lineCapEnd = 1;
lineCapStart = 1;
};
closed = 0;
nodes = (
(91,2,l),
(91,525,l),
(74,614,o),
(140,697,o),
(230,700,cs),
(276.16,701.399,o),
(318.406,680.786,o),
(345.108,646.372,c)
);
}
);
width = 515;
}
);
unicode = 64256;
},
{
glyphname = ampersand;
layers = (
{
layerId = "787108DE-7A61-4466-9FE6-B6E3F273E4CB";
shapes = (
{
attr = {
strokeWidth = 10;
lineCapEnd = 1;
lineCapStart = 1;
};
closed = 0;
nodes = (
(639,0,l),
(186,513,l),
(117.052,581.948,o),
(174.669,699.944,o),
(270,708,cs),
(350,715,o),
(416,648,o),
(409,568,cs),
(394,399,o),
(146,421,o),
(74,289,cs),
(-14,126,o),
(162,-66,o),
(353,10,cs),
(479,60,o),
(521.173,204.447,o),
(521.173,343.447,c)
);
},
{
attr = {
strokeWidth = 10;
lineCapEnd = 1;
lineCapStart = 1;
};
closed = 0;
nodes = (
(437,317,l),
(426,346,o),
(448,376,o),
(479,373,cs),
(514,370,o),
(524.627,320.139,o),
(563,317,cs),
(593.049,314.542,o),
(616,345,o),
(605,373,c)
);
}
);
width = 689;
},
{
layerId = "A0B93036-4938-4FDF-B53E-670010F591C3";
shapes = (
{
attr = {
strokeWidth = 50;
strokeHeight = 100;
lineCapEnd = 1;
lineCapStart = 1;
};
closed = 0;
nodes = (
(639,0,l),
(186,513,l),
(117.052,581.948,o),
(174.669,699.944,o),
(270,708,cs),
(350,715,o),
(416,648,o),
(409,568,c),
(394,399,o),
(146,421,o),
(74,289,cs),
(-14,126,o),
(162,-66,o),
(353,10,cs),
(479,60,o),
(521,206,o),
(521,345,c)
);
},
{
attr = {
strokeWidth = 50;
strokeHeight = 100;
lineCapEnd = 1;
lineCapStart = 1;
};
closed = 0;
nodes = (
(437,317,l),
(426,346,o),
(448,376,o),
(479,373,cs),
(514,370,o),
(524.627,320.139,o),
(563,317,cs),
(593.049,314.542,o),
(616,345,o),
(605,373,c)
);
}
);
width = 689;
}
);
unicode = 38;
},
{
glyphname = percent;
layers = (
{
layerId = "787108DE-7A61-4466-9FE6-B6E3F273E4CB";
shapes = (
{
attr = {
strokeWidth = 10;
lineCapEnd = 1;
lineCapStart = 1;
};
closed = 0;
nodes = (
(497,1,l),
(435,21,o),
(386,75,o),
(385,141,cs),
(384,215,o),
(428,282,o),
(497,281,cs),
(564,279,o),
(608,213,o),
(609,141,cs),
(609,68,o),
(565,1,o),
(497,1,cs),
(398,2,o),
(276,127,o),
(246,1,c),
(413,700,l),
(384,578,o),
(261,700,o),
(162,700,cs),
(94,700,o),
(50,633,o),
(50,560,cs),
(50,488,o),
(94,422,o),
(162,421,cs),
(231,419,o),
(274,487,o),
(274,560,cs),
(274,624,o),
(224,681,o),
(162,700,c)
);
}
);
width = 661;
},
{
layerId = "A0B93036-4938-4FDF-B53E-670010F591C3";
shapes = (
{
attr = {
strokeWidth = 50;
strokeHeight = 100;
lineCapEnd = 1;
lineCapStart = 1;
};
closed = 0;
nodes = (
(497,1,l),
(435,21,o),
(386,75,o),
(385,141,cs),
(384,215,o),
(428,282,o),
(497,281,cs),
(564,279,o),
(608,213,o),
(609,141,cs),
(609,68,o),
(565,1,o),
(497,1,cs),
(398,2,o),
(276,127,o),
(246,1,c),
(413,700,l),
(384,578,o),
(261,700,o),
(162,700,cs),
(94,700,o),
(50,633,o),
(50,560,cs),
(50,488,o),
(94,422,o),
(162,421,cs),
(231,419,o),
(274,487,o),
(274,560,cs),
(274,624,o),
(224,681,o),
(162,700,c)
);
}
);
width = 661;
}
);
unicode = 37;
},
{
glyphname = asterisk;
layers = (
{
layerId = "787108DE-7A61-4466-9FE6-B6E3F273E4CB";
shapes = (
{
alignment = -1;
angle = 90;
pos = (530.869,472.081);
ref = hyphen;
scale = (0,0);
},
{
alignment = -1;
angle = 161.999;
pos = (406.863,774.319);
ref = hyphen;
scale = (0.94,1.);
slant = (-0.003,0);
},
{
alignment = -1;
angle = -126.004;
pos = (81.433,749.777);
ref = hyphen;
scale = (0.94,1.);
slant = (-0.006,0);
},
{
alignment = -1;
angle = -54.004;
pos = (4.11,432.358);
ref = hyphen;
scale = (0.94,1.);
slant = (-0.007,0);
},
{
alignment = -1;
angle = 17.993;
pos = (282.11,260.722);
ref = hyphen;
scale = (0.94,1.);
slant = (-0.009,0);
}
);
width = 522;
},
{
layerId = "A0B93036-4938-4FDF-B53E-670010F591C3";
shapes = (
{
attr = {
strokeWidth = 50;
strokeHeight = 100;
lineCapEnd = 1;
lineCapStart = 1;
};
closed = 0;
nodes = (
(260.869,759.313,l),
(260.869,538.129,l)
);
},
{
attr = {
strokeWidth = 50;
strokeHeight = 100;
lineCapEnd = 1;
lineCapStart = 1;
};
closed = 0;
nodes = (
(260.869,538.129,l),
(471.227,606.478,l)
);
},
{
attr = {
strokeWidth = 50;
strokeHeight = 100;
lineCapEnd = 1;
lineCapStart = 1;
};
closed = 0;
nodes = (
(50.51,606.478,l),
(260.869,538.129,l)
);
},
{
attr = {
strokeWidth = 50;
strokeHeight = 100;
lineCapEnd = 1;
lineCapStart = 1;
};
closed = 0;
nodes = (
(130.86,359.187,l),
(260.869,538.129,l)
);
},
{
attr = {
strokeWidth = 50;
strokeHeight = 100;
lineCapEnd = 1;
lineCapStart = 1;
};
closed = 0;
nodes = (
(390.877,359.187,l),
(260.869,538.129,l)
);
}
);
width = 522;
}
);
unicode = 42;
},
{
color = (255, 153, 254, 255);
glyphname = A_E;
leftMetricsKey = A;
rightMetricsKey = E;
layers = (
{
layerId = "787108DE-7A61-4466-9FE6-B6E3F273E4CB";
shapes = (
{
attr = {
strokeWidth = 10;
lineCapEnd = 1;
lineCapStart = 1;
};
closed = 0;
nodes = (
(32,-1,l),
(42,16,o),
(51,34,o),
(59,52,c),
(117,193,o),
(85,352,o),
(112,502,cs),
(131,611,o),
(189,714,o),
(297,714,cs),
(406,714,o),
(466,608,o),
(484,499,c)
);
},
{
attr = {
strokeWidth = 10;
lineCapEnd = 1;
lineCapStart = 1;
};
closed = 0;
nodes = (
(908,715,l),
(881,601,o),
(745,556,o),
(657,630,cs),
(620,662,o),
(595,715,o),
(545,715,cs),
(485,715,o),
(472,644,o),
(477,575,cs),
(485,409,o),
(556,250,o),
(517,88,c),
(510,54,o),
(493,22,o),
(462,17,cs),
(435,13,o),
(409,32,o),
(406,60,cs),
(391,173,o),
(541,118,o),
(679,25,cs),
(769,-35,o),
(899,7,o),
(935,109,c)
);
},
{
attr = {
strokeWidth = 10;
lineCapEnd = 1;
lineCapStart = 1;
};
closed = 0;
nodes = (
(51,325,l),
(210,325,o),
(684,325,o),
(843,325,c)
);
}
);
width = 976;
},
{
layerId = "A0B93036-4938-4FDF-B53E-670010F591C3";
shapes = (
{
attr = {
strokeWidth = 50;
strokeHeight = 100;
lineCapEnd = 1;
lineCapStart = 1;
};
closed = 0;
nodes = (
(31,-1,l),
(41,16,o),
(50,34,o),
(58,52,cs),
(116,193,o),
(84,352,o),
(111,502,cs),
(130,611,o),
(188,714,o),
(296,714,cs),
(405,714,o),
(465,608,o),
(483,499,c)
);
},
{
attr = {
strokeWidth = 50;
strokeHeight = 100;
lineCapEnd = 1;
lineCapStart = 1;
};
closed = 0;
nodes = (
(907,715,l),
(880,601,o),
(744,556,o),
(656,630,cs),
(619,662,o),
(594,715,o),
(544,715,cs),
(484,715,o),
(471,644,o),
(476,575,cs),
(484,409,o),
(555,250,o),
(516,88,c),
(509,54,o),
(492,22,o),
(461,17,cs),
(434,13,o),
(408,32,o),
(405,60,cs),
(390,173,o),
(540,118,o),
(678,25,cs),
(768,-35,o),
(898,7,o),
(934,109,c)
);
},
{
attr = {
strokeWidth = 50;
strokeHeight = 100;
lineCapEnd = 1;
lineCapStart = 1;
};
closed = 0;
nodes = (
(50,325,l),
(209,325,o),
(683,325,o),
(842,325,c)
);
}
);
width = 975;
}
);
unicode = 987152;
},
{
color = (255, 153, 254, 255);
glyphname = A_L;
leftMetricsKey = A;
rightMetricsKey = L;
layers = (
{
layerId = "787108DE-7A61-4466-9FE6-B6E3F273E4CB";
shapes = (
{
attr = {
strokeWidth = 10;
lineCapEnd = 1;
lineCapStart = 1;
};
closed = 0;
nodes = (
(615,661,l),
(610,688,o),
(582,716,o),
(553,716,cs),
(490,716,o),
(470,659,o),
(474,589,cs),
(483,419,o),
(559,254,o),
(518,89,c),
(511,55,o),
(495,22,o),
(462,17,cs),
(435,13,o),
(408,31,o),
(405,60,cs),
(390,176,o),
(543,120,o),
(684,25,cs),
(777,-36,o),
(909,6,o),
(946,111,c)
);
},
{
attr = {
strokeWidth = 10;
lineCapEnd = 1;
lineCapStart = 1;
};
closed = 0;
nodes = (
(32,-1,l),
(42,16,o),
(51,34,o),
(59,52,c),
(117,193,o),
(85,352,o),
(112,502,cs),
(131,611,o),
(189,714,o),
(297,714,cs),
(406,714,o),
(466,608,o),
(484,499,c)
);
},
{
attr = {
strokeWidth = 10;
lineCapEnd = 1;
lineCapStart = 1;
};
closed = 0;
nodes = (
(51,325,l),
(210,325,o),
(408,325,o),
(567,325,c)
);
}
);
width = 998;
},
{
layerId = "A0B93036-4938-4FDF-B53E-670010F591C3";
shapes = (
{
attr = {
strokeWidth = 50;
strokeHeight = 100;
lineCapEnd = 1;
lineCapStart = 1;
};
closed = 0;
nodes = (
(614,661,l),
(609,688,o),
(581,716,o),
(552,716,cs),
(489,716,o),
(469,659,o),
(473,589,cs),
(482,419,o),
(558,254,o),
(517,89,c),
(510,55,o),
(494,22,o),
(461,17,cs),
(434,13,o),
(407,31,o),
(404,60,cs),
(389,176,o),
(542,120,o),
(683,25,cs),
(776,-36,o),
(908,6,o),
(945,111,c)
);
},
{
attr = {
strokeWidth = 50;
strokeHeight = 100;
lineCapEnd = 1;
lineCapStart = 1;
};
closed = 0;
nodes = (
(31,-1,l),
(41,16,o),
(50,34,o),
(58,52,cs),
(116,193,o),
(84,352,o),
(111,502,cs),
(130,611,o),
(188,714,o),
(296,714,cs),
(405,714,o),
(465,608,o),
(483,499,c)
);
},
{
attr = {
strokeWidth = 50;
strokeHeight = 100;
lineCapEnd = 1;
lineCapStart = 1;
};
closed = 0;
nodes = (
(50,325,l),
(209,325,o),
(407,325,o),
(566,325,c)
);
}
);
width = 997;
}
);
unicode = 987168;
},
{
color = (255, 153, 254, 255);
glyphname = A_O;
leftMetricsKey = A;
rightMetricsKey = O;
layers = (
{
attr = {
color = 1;
};
layerId = "787108DE-7A61-4466-9FE6-B6E3F273E4CB";
shapes = (
{
attr = {
fill = 1;
strokeWidth = 10;
strokeColor = (0,255);
lineCapEnd = 1;
lineCapStart = 1;
};
closed = 0;
nodes = (
(32,-1,l),
(42,16,o),
(51,34,o),
(59,52,c),
(117,193,o),
(85,352,o),
(112,502,cs),
(131,611,o),
(189,714,o),
(297,714,cs),
(406,714,o),
(463,611,o),
(482,502,cs),
(492,450,o),
(495,396,o),
(496,343,c)
);
},
{
attr = {
fill = 1;
strokeWidth = 10;
strokeColor = (0,255);
lineCapEnd = 1;
lineCapStart = 1;
};
closed = 0;
nodes = (
(59,284,l),
(535,284,l)
);
},
{
alignment = -1;
pos = (465.65,-0.046);
ref = O;
}
);
width = 1059;
},
{
attr = {
color = 1;
};
layerId = "A0B93036-4938-4FDF-B53E-670010F591C3";
shapes = (
{
attr = {
fill = 1;
strokeWidth = 50;
strokeHeight = 100;
strokeColor = (0,255);
lineCapEnd = 1;
lineCapStart = 1;
};
closed = 0;
nodes = (
(31,-1,l),
(41,16,o),
(50,34,o),
(58,52,cs),
(116,193,o),
(84,352,o),
(111,502,cs),
(130,611,o),
(188,714,o),
(296,714,cs),
(405,714,o),
(462,611,o),
(481,502,cs),
(491,450,o),
(494,396,o),
(495,343,c)
);
},
{
attr = {
fill = 1;
strokeWidth = 50;
strokeHeight = 100;
strokeColor = (0,255);
lineCapEnd = 1;
lineCapStart = 1;
};
closed = 0;
nodes = (
(58,284,l),
(534,284,l)
);
},
{
alignment = -1;
pos = (464.65,-0.046);
ref = O;
}
);
width = 1058;
}
);
unicode = 987184;
},
{
color = (255, 153, 254, 255);
glyphname = a_e;
leftMetricsKey = a;
rightMetricsKey = e;
layers = (
{
layerId = "787108DE-7A61-4466-9FE6-B6E3F273E4CB";
shapes = (
{
attr = {
strokeWidth = 10;
lineCapEnd = 1;
lineCapStart = 1;
};
closed = 0;
nodes = (
(55,378,l),
(76,459,o),
(149,516,o),
(233,515,cs),
(344,514,o),
(430,420,o),
(421,310,c),
(421,223,l)
);
},
{
attr = {
strokeWidth = 10;
lineCapEnd = 1;
lineCapStart = 1;
};
closed = 0;
nodes = (
(421,310,l),
(421,95,o),
(111,287,o),
(45,173,cs),
(-9,81,o),
(95,-35,o),
(233,-9,cs),
(321,8,o),
(396,71,o),
(417,158,cs),
(421,176,o),
(422,178,o),
(423,194,c)
);
},
{
alignment = -1;
pos = (382,-0.771);
ref = e;
}
);
width = 870;
},
{
layerId = "A0B93036-4938-4FDF-B53E-670010F591C3";
shapes = (
{
attr = {
strokeWidth = 50;
strokeHeight = 100;
lineCapEnd = 1;
lineCapStart = 1;
};
closed = 0;
nodes = (
(55,378,l),
(76,459,o),
(149,516,o),
(233,515,cs),
(344,514,o),
(430,420,o),
(421,310,c),
(421,223,l)
);
},
{
attr = {
strokeWidth = 50;
strokeHeight = 100;
lineCapEnd = 1;
lineCapStart = 1;
};
closed = 0;
nodes = (
(421,310,l),
(421,95,o),
(111,287,o),
(45,173,cs),
(-9,81,o),
(95,-35,o),
(233,-9,cs),
(321,8,o),
(396,71,o),
(417,158,cs),
(421,176,o),
(422,178,o),
(423,194,c)
);
},
{
alignment = -1;
pos = (382,0);
ref = e;
}
);
width = 870;
}
);
unicode = 987408;
},
{
color = (255, 153, 254, 255);
glyphname = a_l;
leftMetricsKey = a;
rightMetricsKey = l;
layers = (
{
layerId = "787108DE-7A61-4466-9FE6-B6E3F273E4CB";
shapes = (
{
attr = {
strokeWidth = 10;
lineCapEnd = 1;
lineCapStart = 1;
};
closed = 0;
nodes = (
(55,378,l),
(76,459,o),
(149,516,o),
(233,515,cs),
(344,514,o),
(430,420,o),
(421,310,c),
(421,53,l),
(415.677,39.693,o),
(418.287,25.819,o),
(425.965,15.752,cs),
(432.712,6.906,o),
(443.372,1,o),
(456,1,cs),
(468.161,1,o),
(478.572,6.907,o),
(485.186,15.753,cs),
(492.713,25.82,o),
(495.323,39.693,o),
(490,53,c)
);
},
{
attr = {
strokeWidth = 10;
lineCapEnd = 1;
lineCapStart = 1;
};
closed = 0;
nodes = (
(421,310,l),
(421,95,o),
(111,287,o),
(45,173,cs),
(-9,81,o),
(95,-35,o),
(233,-9,cs),
(326,9,o),
(400,80,o),
(421,173,c)
);
},
{
attr = {
strokeWidth = 10;
lineCapEnd = 1;
lineCapStart = 1;
};
closed = 0;
nodes = (
(420,648,l),
(414.178,662.554,o),
(417.846,677.786,o),
(427.255,687.974,cs),
(434.008,695.286,o),
(443.718,700,o),
(455,700,cs),
(466.436,700,o),
(476.437,695.156,o),
(483.331,687.672,cs),
(492.713,677.486,o),
(496.341,662.411,o),
(490,648,c),
(490,53,l)
);
}
);
width = 565;
},
{
layerId = "A0B93036-4938-4FDF-B53E-670010F591C3";
shapes = (
{
attr = {
strokeWidth = 50;
strokeHeight = 100;
lineCapEnd = 1;
lineCapStart = 1;
};
closed = 0;
nodes = (
(55,378,l),
(76,459,o),
(149,516,o),
(233,515,cs),
(344,514,o),
(430,420,o),
(421,310,c),
(421,53,l),
(415.015,38.038,o),
(419.059,22.36,o),
(429.06,12.181,cs),
(435.769,5.353,o),
(445.159,1,o),
(456,1,cs),
(467.911,1,o),
(478.142,6.666,o),
(484.773,15.211,cs),
(492.616,25.318,o),
(495.419,39.453,o),
(490,53,c)
);
},
{
attr = {
strokeWidth = 50;
strokeHeight = 100;
lineCapEnd = 1;
lineCapStart = 1;
};
closed = 0;
nodes = (
(421,310,l),
(421,95,o),
(111,287,o),
(45,173,cs),
(-9,81,o),
(95,-35,o),
(233,-9,cs),
(326,9,o),
(400,80,o),
(421,173,c)
);
},
{
attr = {
strokeWidth = 50;
strokeHeight = 100;
lineCapEnd = 1;
lineCapStart = 1;
};
closed = 0;
nodes = (
(420,648,l),
(414.533,661.667,o),
(417.434,675.931,o),
(425.599,686.055,cs),
(432.37,694.451,o),
(442.76,700,o),
(455,700,cs),
(467.19,700,o),
(477.749,694.496,o),
(484.653,686.158,cs),
(493.041,676.028,o),
(496.034,661.713,o),
(490,648,c),
(490,53,l)
);
}
);
width = 566;
}
);
unicode = 987424;
},
{
color = (255, 153, 254, 255);
glyphname = a_o;
leftMetricsKey = a;
rightMetricsKey = o;
layers = (
{
attr = {
color = 1;
};
layerId = "787108DE-7A61-4466-9FE6-B6E3F273E4CB";
shapes = (
{
attr = {
fill = 1;
strokeWidth = 10;
strokeColor = (0,255);
lineCapEnd = 1;
lineCapStart = 1;
};
closed = 0;
nodes = (
(55,378,l),
(76,459,o),
(149,516,o),
(233,515,cs),
(344,514,o),
(430,420,o),
(421,310,c),
(421,260,l)
);
},
{
attr = {
fill = 1;
strokeWidth = 10;
strokeColor = (0,255);
lineCapEnd = 1;
lineCapStart = 1;
};
closed = 0;
nodes = (
(421,310,l),
(421,95,o),
(111,287,o),
(45,173,cs),
(-9,81,o),
(95,-36,o),
(233,-9,cs),
(326,9,o),
(406,75,o),
(426,191,c)
);
},
{
alignment = -1;
pos = (380,0);
ref = o;
}
);
width = 885;
},
{
attr = {
color = 1;
};
layerId = "A0B93036-4938-4FDF-B53E-670010F591C3";
shapes = (
{
attr = {
fill = 1;
strokeWidth = 50;
strokeHeight = 100;
strokeColor = (0,255);
lineCapEnd = 1;
lineCapStart = 1;
};
closed = 0;
nodes = (
(55,378,l),
(76,459,o),
(149,516,o),
(233,515,cs),
(344,514,o),
(430,420,o),
(421,310,c),
(421,260,l)
);
},
{
attr = {
fill = 1;
strokeWidth = 50;
strokeHeight = 100;
strokeColor = (0,255);
lineCapEnd = 1;
lineCapStart = 1;
};
closed = 0;
nodes = (
(421,310,l),
(421,95,o),
(111,287,o),
(45,173,cs),
(-9,81,o),
(95,-36,o),
(233,-9,cs),
(326,9,o),
(406,75,o),
(426,191,c)
);
},
{
alignment = -1;
pos = (380,0);
ref = o;
}
);
width = 885;
}
);
unicode = 987440;
},
{
color = (255, 153, 254, 255);
glyphname = C_H;
leftMetricsKey = C;
rightMetricsKey = H;
layers = (
{
layerId = "787108DE-7A61-4466-9FE6-B6E3F273E4CB";
shapes = (
{
attr = {
strokeWidth = 10;
lineCapEnd = 1;
lineCapStart = 1;
};
closed = 0;
nodes = (
(780,44,l),
(793,24,o),
(776,-2,o),
(752,2,c),
(734,6,o),
(727,25,o),
(724,44,cs),
(710,147,o),
(752,248,o),
(752,351,cs),
(752,455,o),
(710,555,o),
(724,658,cs),
(727,677,o),
(734,697,o),
(752,700,cs),
(776,704,o),
(793,678,o),
(780,658,c)
);
},
{
attr = {
strokeWidth = 10;
lineCapEnd = 1;
lineCapStart = 1;
};
closed = 0;
nodes = (
(306,351,l),
(752,351,l)
);
},
{
attr = {
strokeWidth = 10;
lineCapEnd = 1;
lineCapStart = 1;
};
closed = 0;
nodes = (
(324,206,l),
(315,254,o),
(306,302,o),
(306,351,cs),
(306,401,o),
(316,451,o),
(324,500,c)
);
},
{
alignment = -1;
ref = C;
}
);
width = 825;
},
{
layerId = "A0B93036-4938-4FDF-B53E-670010F591C3";
shapes = (
{
attr = {
strokeWidth = 50;
strokeHeight = 100;
lineCapEnd = 1;
lineCapStart = 1;
};
closed = 0;
nodes = (
(779,44,l),
(792,24,o),
(775,-2,o),
(751,2,c),
(733,6,o),
(726,25,o),
(723,44,cs),
(709,147,o),
(751,248,o),
(751,351,cs),
(751,455,o),
(709,555,o),
(723,658,cs),
(726,677,o),
(733,697,o),
(751,700,cs),
(775,704,o),
(792,678,o),
(779,658,c)
);
},
{
attr = {
strokeWidth = 50;
strokeHeight = 100;
lineCapEnd = 1;
lineCapStart = 1;
};
closed = 0;
nodes = (
(305,351,l),
(751,351,l)
);
},
{
attr = {
strokeWidth = 50;
strokeHeight = 100;
lineCapEnd = 1;
lineCapStart = 1;
};
closed = 0;
nodes = (
(323,206,l),
(314,254,o),
(305,302,o),
(305,351,c),
(305,401,o),
(315,451,o),
(323,500,c)
);
},
{
alignment = -1;
ref = C;
}
);
width = 824;
}
);
unicode = 988176;
},
{
color = (255, 153, 254, 255);
glyphname = C_Q;
leftMetricsKey = C;
rightMetricsKey = Q;
layers = (
{
layerId = "787108DE-7A61-4466-9FE6-B6E3F273E4CB";
shapes = (
{
attr = {
strokeWidth = 10;
lineCapEnd = 1;
lineCapStart = 1;
};
closed = 0;
nodes = (
(210,274,l),
(249,274,o),
(284,250,o),
(299,214,cs),
(358,74,o),
(156,20,o),
(60,-85,cs),
(30,-117,o),
(28,-164,o),
(60,-174,cs),
(83,-181,o),
(101,-159,o),
(120,-144,cs),
(206,-75,o),
(314,-166,o),
(419,-174,cs),
(515,-182,o),
(604,-119,o),
(628,-25,c)
);
},
{
alignment = -1;
ref = C;
}
);
width = 659;
},
{
layerId = "A0B93036-4938-4FDF-B53E-670010F591C3";
shapes = (
{
attr = {
strokeWidth = 50;
strokeHeight = 100;
lineCapEnd = 1;
lineCapStart = 1;
};
closed = 0;
nodes = (
(210,274,l),
(249,274,o),
(284,250,o),
(299,214,cs),
(358,74,o),
(156,20,o),
(60,-85,cs),
(30,-117,o),
(28,-164,o),
(60,-174,cs),
(83,-181,o),
(101,-159,o),
(120,-144,cs),
(206,-75,o),
(314,-166,o),
(419,-174,cs),
(515,-182,o),
(604,-119,o),
(628,-25,c)
);
},
{
alignment = -1;
ref = C;
}
);
width = 659;
}
);
unicode = 988224;
},
{
color = (255, 153, 254, 255);
glyphname = c_h;
leftMetricsKey = c;
rightMetricsKey = h;
layers = (
{
layerId = "787108DE-7A61-4466-9FE6-B6E3F273E4CB";
shapes = (
{
attr = {
strokeWidth = 10;
lineCapEnd = 1;
lineCapStart = 1;
};
closed = 0;
nodes = (
(421,422,l),
(384,471,o),
(332,513,o),
(269,513,cs),
(143,513,o),
(60,387,o),
(60,252,cs),
(60,116,o),
(143,-10,o),
(269,-10,cs),
(332,-10,o),
(384,22,o),
(421,70,c)
);
},
{
attr = {
strokeWidth = 10;
lineCapEnd = 1;
lineCapStart = 1;
};
closed = 0;
nodes = (
(351,648,l),
(341,673,o),
(359,700,o),
(386,700,cs),
(413,700,o),
(432,673,o),
(421,648,c),
(421,422,l),
(463,481,o),
(524,529,o),
(596,525,cs),
(671,522,o),
(732,461,o),
(735,386,c),
(735,2,l)
);
}
);
width = 805;
},
{
layerId = "A0B93036-4938-4FDF-B53E-670010F591C3";
shapes = (
{
attr = {
strokeWidth = 50;
strokeHeight = 100;
lineCapEnd = 1;
lineCapStart = 1;
};
closed = 0;
nodes = (
(421,422,l),
(384,471,o),
(332,513,o),
(269,513,cs),
(143,513,o),
(60,387,o),
(60,252,cs),
(60,116,o),
(143,-10,o),
(269,-10,cs),
(332,-10,o),
(384,22,o),
(421,70,c)
);
},
{
attr = {
strokeWidth = 50;
strokeHeight = 100;
lineCapEnd = 1;
lineCapStart = 1;
};
closed = 0;
nodes = (
(351,648,l),
(341,673,o),
(359,700,o),
(386,700,cs),
(413,700,o),
(432,673,o),
(421,648,c),
(421,422,l),
(463,481,o),
(524,529,o),
(596,525,cs),
(671,522,o),
(732,461,o),
(735,386,c),
(735,2,l)
);
}
);
width = 804;
}
);
unicode = 988432;
},
{
color = (255, 153, 254, 255);
glyphname = c_q;
leftMetricsKey = c;
rightMetricsKey = q;
layers = (
{
layerId = "787108DE-7A61-4466-9FE6-B6E3F273E4CB";
shapes = (
{
attr = {
strokeWidth = 10;
lineCapEnd = 1;
lineCapStart = 1;
};
closed = 0;
nodes = (
(491,458,l),
(497.044,471.737,o),
(494.031,486.38,o),
(485.609,496.786,cs),
(478.704,505.317,o),
(468.164,511,o),
(456,511,cs),
(444.768,511,o),
(435.094,506.154,o),
(428.344,498.695,cs),
(418.87,488.223,o),
(415.16,472.6,o),
(421,458,c),
(421,433,l),
(384,482,o),
(332,513,o),
(269,513,cs),
(143,513,o),
(60,387,o),
(60,252,cs),
(60,116,o),
(143,-10,o),
(269,-10,cs),
(332,-10,o),
(384,22,o),
(421,70,c),
(421,-189,l)
);
}
);
width = 535;
},
{
layerId = "A0B93036-4938-4FDF-B53E-670010F591C3";
shapes = (
{
attr = {
strokeWidth = 50;
strokeHeight = 100;
lineCapEnd = 1;
lineCapStart = 1;
};
closed = 0;
nodes = (
(491,458,l),
(497.025,471.694,o),
(494.049,486.289,o),
(485.688,496.688,cs),
(478.784,505.274,o),
(468.21,511,o),
(456,511,cs),
(444.746,511,o),
(435.055,506.135,o),
(428.304,498.65,cs),
(418.859,488.179,o),
(415.168,472.579,o),
(421,458,c),
(421,433,l),
(384,482,o),
(332,513,o),
(269,513,cs),
(143,513,o),
(60,387,o),
(60,252,cs),
(60,116,o),
(143,-10,o),
(269,-10,cs),
(332,-10,o),
(384,22,o),
(421,70,c),
(421,-189,l)
);
}
);
width = 535;
}
);
unicode = 988480;
},
{
color = (255, 153, 254, 255);
glyphname = D_E;
leftMetricsKey = D;
rightMetricsKey = E;
layers = (
{
layerId = "787108DE-7A61-4466-9FE6-B6E3F273E4CB";
shapes = (
{
attr = {
strokeWidth = 10;
lineCapEnd = 1;
lineCapStart = 1;
};
closed = 0;
nodes = (
(50,43,l),
(41,22,o),
(55,-1,o),
(78,-1,cs),
(100,-1,o),
(115,22,o),
(106,43,c),
(106,690,l)
);
},
{
attr = {
strokeWidth = 10;
lineCapEnd = 1;
lineCapStart = 1;
};
closed = 0;
nodes = (
(49,403,l),
(10,567,o),
(136,719,o),
(308,719,cs),
(403,719,o),
(482,667,o),
(535,581,c)
);
},
{
attr = {
strokeWidth = 10;
lineCapEnd = 1;
lineCapStart = 1;
};
closed = 0;
nodes = (
(480,54,l),
(442,22,o),
(403,4,o),
(359,-7,cs),
(271,-29,o),
(161,-4,o),
(106,51,c)
);
},
{
alignment = -1;
pos = (446,0);
ref = E;
}
);
width = 1050;
},
{
layerId = "A0B93036-4938-4FDF-B53E-670010F591C3";
shapes = (
{
attr = {
strokeWidth = 50;
strokeHeight = 100;
lineCapEnd = 1;
lineCapStart = 1;
};
closed = 0;
nodes = (
(50,43,l),
(41,22,o),
(55,-1,o),
(78,-1,cs),
(100,-1,o),
(115,22,o),
(106,43,c),
(106,690,l)
);
},
{
attr = {
strokeWidth = 50;
strokeHeight = 100;
lineCapEnd = 1;
lineCapStart = 1;
};
closed = 0;
nodes = (
(49,403,l),
(10,567,o),
(136,719,o),
(308,719,cs),
(403,719,o),
(482,667,o),
(535,581,c)
);
},
{
attr = {
strokeWidth = 50;
strokeHeight = 100;
lineCapEnd = 1;
lineCapStart = 1;
};
closed = 0;
nodes = (
(480,54,l),
(442,22,o),
(403,4,o),
(359,-7,cs),
(271,-29,o),
(161,-4,o),
(106,51,c)
);
},
{
alignment = -1;
pos = (446,0);
ref = E;
}
);
width = 1050;
}
);
unicode = 988688;
},
{
color = (255, 153, 254, 255);
glyphname = D_U_D_E_L_A;
leftMetricsKey = D;
rightMetricsKey = A;
layers = (
{
layerId = "787108DE-7A61-4466-9FE6-B6E3F273E4CB";
shapes = (
{
attr = {
strokeWidth = 10;
lineCapEnd = 1;
lineCapStart = 1;
};
closed = 0;
nodes = (
(2380,661,l),
(2375,688,o),
(2347,716,o),
(2318,716,cs),
(2255,716,o),
(2235,659,o),
(2239,589,cs),
(2248,419,o),
(2337,254,o),
(2296,89,c),
(2289,55,o),
(2273,22,o),
(2240,17,cs),
(2213,13,o),
(2186,31,o),
(2183,60,cs),
(2168,176,o),
(2321,120,o),
(2462,25,cs),
(2555,-36,o),
(2693,4,o),
(2724,111,cs),
(2760,235,o),
(2735,372,o),
(2758,502,cs),
(2777,611,o),
(2835,714,o),
(2943,714,cs),
(3052,714,o),
(3110,611,o),
(3128,502,cs),
(3155,352,o),
(3124,193,o),
(3181,52,c),
(3189,34,o),
(3198,16,o),
(3208,-1,c)
);
},
{
attr = {
strokeWidth = 10;
lineCapEnd = 1;
lineCapStart = 1;
};
closed = 0;
nodes = (
(2705,284,l),
(3181,284,l)
);
},
{
alignment = -1;
pos = (-0.61,0);
ref = D;
},
{
alignment = -1;
pos = (557.087,-0.058);
ref = U;
},
{
alignment = -1;
pos = (1182,-0.175);
ref = D_E;
}
);
width = 3239;
},
{
layerId = "A0B93036-4938-4FDF-B53E-670010F591C3";
shapes = (
{
attr = {
strokeWidth = 50;
strokeHeight = 100;
lineCapEnd = 1;
lineCapStart = 1;
};
closed = 0;
nodes = (
(2356,661,l),
(2351,688,o),
(2323,716,o),
(2294,716,cs),
(2231,716,o),
(2211,659,o),
(2215,589,cs),
(2224,419,o),
(2313,254,o),
(2272,89,c),
(2265,55,o),
(2249,22,o),
(2216,17,cs),
(2189,13,o),
(2162,31,o),
(2159,60,cs),
(2144,176,o),
(2297,120,o),
(2438,25,cs),
(2531,-36,o),
(2669,4,o),
(2700,111,cs),
(2736,235,o),
(2711,372,o),
(2734,502,cs),
(2753,611,o),
(2811,714,o),
(2919,714,cs),
(3028,714,o),
(3086,611,o),
(3104,502,cs),
(3131,352,o),
(3100,193,o),
(3157,52,c),
(3165,34,o),
(3174,16,o),
(3184,-1,c)
);
},
{
attr = {
strokeWidth = 50;
strokeHeight = 100;
lineCapEnd = 1;
lineCapStart = 1;
};
closed = 0;
nodes = (
(2681,284,l),
(3157,284,l)
);
},
{
alignment = -1;
pos = (0.101,0);
ref = D;
},
{
alignment = -1;
pos = (533.087,-0.058);
ref = U;
},
{
alignment = -1;
pos = (1158,-0.175);
ref = D_E;
}
);
width = 3214;
}
);
unicode = 988720;
},
{
color = (255, 153, 254, 255);
glyphname = d_e;
leftMetricsKey = d;
rightMetricsKey = e;
layers = (
{
attr = {
color = 1;
};
layerId = "787108DE-7A61-4466-9FE6-B6E3F273E4CB";
shapes = (
{
attr = {
fill = 1;
strokeWidth = 10;
strokeColor = (0,255);
lineCapEnd = 1;
lineCapStart = 1;
};
closed = 1;
nodes = (
(422,414,o),
(336,519,o),
(222,509,cs),
(107,499,o),
(41,382,o),
(39,260,cs),
(36,132,o),
(104,6,o),
(222,-4,cs),
(364,-16,o),
(461,134,o),
(439,292,cs)
);
},
{
attr = {
fill = 1;
strokeWidth = 10;
strokeColor = (0,255);
lineCapEnd = 1;
lineCapStart = 1;
};
closed = 0;
nodes = (
(442,252,l),
(442,699,l)
);
},
{
alignment = -1;
pos = (403,0);
ref = e;
}
);
width = 891;
},
{
attr = {
color = 1;
};
layerId = "A0B93036-4938-4FDF-B53E-670010F591C3";
shapes = (
{
attr = {
fill = 1;
strokeWidth = 50;
strokeHeight = 100;
strokeColor = (0,255);
lineCapEnd = 1;
lineCapStart = 1;
};
closed = 1;
nodes = (
(422,414,o),
(336,519,o),
(222,509,cs),
(107,499,o),
(41,382,o),
(39,260,cs),
(36,132,o),
(104,6,o),
(222,-4,cs),
(364,-16,o),
(461,134,o),
(439,292,cs)
);
},
{
attr = {
fill = 1;
strokeWidth = 50;
strokeHeight = 100;
strokeColor = (0,255);
lineCapEnd = 1;
lineCapStart = 1;
};
closed = 0;
nodes = (
(442,252,l),
(442,699,l)
);
},
{
alignment = -1;
pos = (403,0);
ref = e;
}
);
width = 891;
}
);
unicode = 988944;
},
{
color = (255, 153, 254, 255);
glyphname = E_A;
leftMetricsKey = E;
rightMetricsKey = A;
layers = (
{
layerId = "787108DE-7A61-4466-9FE6-B6E3F273E4CB";
shapes = (
{
attr = {
strokeWidth = 10;
lineCapEnd = 1;
lineCapStart = 1;
};
closed = 0;
nodes = (
(536,715,l),
(509,601,o),
(373,556,o),
(285,630,cs),
(248,662,o),
(223,715,o),
(173,715,cs),
(113,715,o),
(86,644,o),
(90,575,cs),
(98,409,o),
(184,250,o),
(145,88,c),
(138,54,o),
(121,22,o),
(90,17,cs),
(63,13,o),
(37,32,o),
(34,60,cs),
(19,173,o),
(169,118,o),
(307,25,cs),
(397,-35,o),
(533,5,o),
(563,109,cs),
(598,230,o),
(574,375,o),
(597,502,cs),
(616,611,o),
(674,714,o),
(782,714,cs),
(891,714,o),
(949,611,o),
(967,502,cs),
(994,352,o),
(963,193,o),
(1020,52,c),
(1028,34,o),
(1037,16,o),
(1047,-1,c)
);
},
{
attr = {
strokeWidth = 10;
lineCapEnd = 1;
lineCapStart = 1;
};
closed = 0;
nodes = (
(79,376,l),
(447,376,l)
);
},
{
attr = {
strokeWidth = 10;
lineCapEnd = 1;
lineCapStart = 1;
};
closed = 0;
nodes = (
(544,284,l),
(1020,284,l)
);
}
);
width = 1078;
},
{
layerId = "A0B93036-4938-4FDF-B53E-670010F591C3";
shapes = (
{
attr = {
strokeWidth = 50;
strokeHeight = 100;
lineCapEnd = 1;
lineCapStart = 1;
};
closed = 0;
nodes = (
(536,715,l),
(509,601,o),
(373,556,o),
(285,630,cs),
(248,662,o),
(223,715,o),
(173,715,cs),
(113,715,o),
(86,644,o),
(90,575,cs),
(98,409,o),
(184,250,o),
(145,88,c),
(138,54,o),
(121,22,o),
(90,17,cs),
(63,13,o),
(37,32,o),
(34,60,cs),
(19,173,o),
(169,118,o),
(307,25,cs),
(397,-35,o),
(533,5,o),
(563,109,cs),
(598,230,o),
(574,375,o),
(597,502,cs),
(616,611,o),
(674,714,o),
(782,714,cs),
(891,714,o),
(949,611,o),
(967,502,cs),
(994,352,o),
(963,193,o),
(1020,52,c),
(1028,34,o),
(1037,16,o),
(1047,-1,c)
);
},
{
attr = {
strokeWidth = 50;
strokeHeight = 100;
lineCapEnd = 1;
lineCapStart = 1;
};
closed = 0;
nodes = (
(79,376,l),
(447,376,l)
);
},
{
attr = {
strokeWidth = 50;
strokeHeight = 100;
lineCapEnd = 1;
lineCapStart = 1;
};
closed = 0;
nodes = (
(544,284,l),
(1020,284,l)
);
}
);
width = 1077;
}
);
unicode = 989200;
},
{
color = (255, 153, 254, 255);
glyphname = Eacute_E;
leftMetricsKey = E;
rightMetricsKey = E;
layers = (
{
layerId = "787108DE-7A61-4466-9FE6-B6E3F273E4CB";
shapes = (
{
attr = {
strokeWidth = 10;
lineCapEnd = 1;
lineCapStart = 1;
};
closed = 0;
nodes = (
(78,376,l),
(860,376,l)
);
},
{
attr = {
strokeWidth = 10;
lineCapEnd = 1;
lineCapStart = 1;
};
closed = 0;
nodes = (
(949,715,l),
(922,601,o),
(785.693,555.636,o),
(698,630,cs),
(660.69,661.638,o),
(636,715,o),
(586,715,cs),
(526,715,o),
(499.475,644.026,o),
(503,575,cs),
(511.475,409.024,o),
(597,250,o),
(558,88,c),
(551,54,o),
(534.029,21.815,o),
(503,17,cs),
(476.028,12.815,o),
(450.566,32.066,o),
(447,60,cs),
(432.565,173.074,o),
(581.817,117.728,o),
(720,25,cs),
(809.818,-35.272,o),
(940,7,o),
(976,109,c)
);
},
{
attr = {
strokeWidth = 10;
lineCapEnd = 1;
lineCapStart = 1;
};
closed = 0;
nodes = (
(522,674,l),
(477,591,o),
(360.587,565.506,o),
(284,630,cs),
(246.582,661.51,o),
(222,715,o),
(172,715,cs),
(112,715,o),
(85.475,644.026,o),
(89,575,cs),
(97.475,409.024,o),
(183,250,o),
(144,88,c),
(137,54,o),
(120.029,21.815,o),
(89,17,cs),
(62.028,12.815,o),
(36.566,32.066,o),
(33,60,cs),
(18.565,173.074,o),
(167.87,117.806,o),
(306,25,cs),
(359.87,-11.194,o),
(430,-10,o),
(484,18,c)
);
},
{
attr = {
strokeWidth = 10;
lineCapEnd = 1;
lineCapStart = 1;
};
closed = 0;
nodes = (
(181,785,l),
(423,889,l)
);
}
);
width = 1017;
},
{
layerId = "A0B93036-4938-4FDF-B53E-670010F591C3";
shapes = (
{
attr = {
strokeWidth = 50;
strokeHeight = 100;
lineCapEnd = 1;
lineCapStart = 1;
};
closed = 0;
nodes = (
(78,376,l),
(860,376,l)
);
},
{
attr = {
strokeWidth = 50;
strokeHeight = 100;
lineCapEnd = 1;
lineCapStart = 1;
};
closed = 0;
nodes = (
(949,715,l),
(922,601,o),
(785.693,555.636,o),
(698,630,cs),
(660.69,661.638,o),
(636,715,o),
(586,715,cs),
(526,715,o),
(499.475,644.026,o),
(503,575,cs),
(511.475,409.024,o),
(597,250,o),
(558,88,c),
(551,54,o),
(534.029,21.815,o),
(503,17,cs),
(476.028,12.815,o),
(450.566,32.066,o),
(447,60,cs),
(432.565,173.074,o),
(581.817,117.728,o),
(720,25,cs),
(809.818,-35.272,o),
(940,7,o),
(976,109,c)
);
},
{
attr = {
strokeWidth = 50;
strokeHeight = 100;
lineCapEnd = 1;
lineCapStart = 1;
};
closed = 0;
nodes = (
(522,674,l),
(477,591,o),
(360.587,565.506,o),
(284,630,cs),
(246.582,661.51,o),
(222,715,o),
(172,715,cs),
(112,715,o),
(85.475,644.026,o),
(89,575,cs),
(97.475,409.024,o),
(183,250,o),
(144,88,c),
(137,54,o),
(120.029,21.815,o),
(89,17,cs),
(62.028,12.815,o),
(36.566,32.066,o),
(33,60,cs),
(18.565,173.074,o),
(167.87,117.806,o),
(306,25,cs),
(359.87,-11.194,o),
(430,-10,o),
(484,18,c)
);
},
{
attr = {
strokeWidth = 50;
strokeHeight = 100;
lineCapEnd = 1;
lineCapStart = 1;
};
closed = 0;
nodes = (
(181,785,l),
(423,889,l)
);
}
);
width = 1017;
}
);
unicode = 989216;
},
{
color = (255, 153, 254, 255);
glyphname = E_T;
leftMetricsKey = E;
rightMetricsKey = T;
layers = (
{
layerId = "787108DE-7A61-4466-9FE6-B6E3F273E4CB";
shapes = (
{
attr = {
strokeWidth = 10;
lineCapEnd = 1;
lineCapStart = 1;
};
closed = 0;
nodes = (
(1165,637,l),
(1160,652,o),
(1151,665,o),
(1139,675,cs),
(1050,753,o),
(939,637,o),
(832,637,cs),
(734.202,637,o),
(582.874,766.81,o),
(511,659,c),
(460,589,o),
(357,570,o),
(285,630,cs),
(248,662,o),
(223,715,o),
(173,715,cs),
(113,715,o),
(86,644,o),
(90,575,cs),
(98,409,o),
(184,250,o),
(145,88,c),
(138,54,o),
(121,22,o),
(90,17,cs),
(63,13,o),
(37,32,o),
(34,60,cs),
(19,173,o),
(169,118,o),
(307,25,cs),
(397,-35,o),
(527,7,o),
(563,109,c)
);
},
{
attr = {
strokeWidth = 10;
lineCapEnd = 1;
lineCapStart = 1;
};
closed = 0;
nodes = (
(79,376,l),
(447,376,l)
);
},
{
attr = {
strokeWidth = 10;
lineCapEnd = 1;
lineCapStart = 1;
};
closed = 0;
nodes = (
(832,636,l),
(832,0,l)
);
}
);
width = 1186;
},
{
layerId = "A0B93036-4938-4FDF-B53E-670010F591C3";
shapes = (
{
attr = {
strokeWidth = 50;
strokeHeight = 100;
lineCapEnd = 1;
lineCapStart = 1;
};
closed = 0;
nodes = (
(1165,637,l),
(1160,652,o),
(1151,665,o),
(1139,675,cs),
(1050,753,o),
(939,637,o),
(832,637,cs),
(734.202,637,o),
(582.874,766.81,o),
(511,659,cs),
(460,589,o),
(357,570,o),
(285,630,cs),
(248,662,o),
(223,715,o),
(173,715,cs),
(113,715,o),
(86,644,o),
(90,575,cs),
(98,409,o),
(184,250,o),
(145,88,c),
(138,54,o),
(121,22,o),
(90,17,cs),
(63,13,o),
(37,32,o),
(34,60,cs),
(19,173,o),
(169,118,o),
(307,25,cs),
(397,-35,o),
(527,7,o),
(563,109,c)
);
},
{
attr = {
strokeWidth = 50;
strokeHeight = 100;
lineCapEnd = 1;
lineCapStart = 1;
};
closed = 0;
nodes = (
(79,376,l),
(447,376,l)
);
},
{
attr = {
strokeWidth = 50;
strokeHeight = 100;
lineCapEnd = 1;
lineCapStart = 1;
};
closed = 0;
nodes = (
(832,636,l),
(832,0,l)
);
}
);
width = 1186;
}
);
unicode = 989280;
},
{
color = (255, 153, 254, 255);
glyphname = Ecircumflex_T_E;
leftMetricsKey = E;
rightMetricsKey = E;
layers = (
{
layerId = "787108DE-7A61-4466-9FE6-B6E3F273E4CB";
shapes = (
{
attr = {
strokeWidth = 10;
lineCapEnd = 1;
lineCapStart = 1;
};
closed = 0;
nodes = (
(1164,637,l),
(1159,652,o),
(1149.777,664.739,o),
(1138,675,cs),
(1048.774,752.741,o),
(938,637,o),
(831,637,cs),
(724,637,o),
(614.093,752.893,o),
(524,675,cs),
(518.092,669.892,o),
(514.228,664.842,o),
(510,659,cs),
(459.224,588.837,o),
(355.622,569.549,o),
(284,630,cs),
(246.617,661.552,o),
(222,715,o),
(172,715,cs),
(112,715,o),
(85.475,644.026,o),
(89,575,cs),
(97.475,409.024,o),
(183,250,o),
(144,88,c),
(137,54,o),
(120.029,21.815,o),
(89,17,cs),
(62.028,12.815,o),
(36.566,32.066,o),
(33,60,cs),
(18.565,173.074,o),
(167.817,117.728,o),
(306,25,cs),
(395.818,-35.272,o),
(526,7,o),
(562,109,c)
);
},
{
attr = {
strokeWidth = 10;
lineCapEnd = 1;
lineCapStart = 1;
};
closed = 0;
nodes = (
(78,376,l),
(446,376,l)
);
},
{
attr = {
strokeWidth = 10;
lineCapEnd = 1;
lineCapStart = 1;
};
closed = 0;
nodes = (
(831,636,l),
(831,0,l)
);
},
{
attr = {
strokeWidth = 10;
lineCapEnd = 1;
lineCapStart = 1;
};
closed = 0;
nodes = (
(181,785,l),
(302,889,l),
(423,785,l)
);
},
{
alignment = -1;
pos = (1070,0);
ref = E;
}
);
width = 1674;
},
{
layerId = "A0B93036-4938-4FDF-B53E-670010F591C3";
shapes = (
{
attr = {
strokeWidth = 50;
strokeHeight = 100;
lineCapEnd = 1;
lineCapStart = 1;
};
closed = 0;
nodes = (
(1164,637,l),
(1159,652,o),
(1149.777,664.739,o),
(1138,675,cs),
(1048.774,752.741,o),
(938,637,o),
(831,637,cs),
(724,637,o),
(614.093,752.893,o),
(524,675,cs),
(518.092,669.892,o),
(514.228,664.842,o),
(510,659,cs),
(459.224,588.837,o),
(355.622,569.549,o),
(284,630,cs),
(246.617,661.552,o),
(222,715,o),
(172,715,cs),
(112,715,o),
(85.475,644.026,o),
(89,575,cs),
(97.475,409.024,o),
(183,250,o),
(144,88,c),
(137,54,o),
(120.029,21.815,o),
(89,17,cs),
(62.028,12.815,o),
(36.566,32.066,o),
(33,60,cs),
(18.565,173.074,o),
(167.817,117.728,o),
(306,25,cs),
(395.818,-35.272,o),
(526,7,o),
(562,109,c)
);
},
{
attr = {
strokeWidth = 50;
strokeHeight = 100;
lineCapEnd = 1;
lineCapStart = 1;
};
closed = 0;
nodes = (
(78,376,l),
(446,376,l)
);
},
{
attr = {
strokeWidth = 50;
strokeHeight = 100;
lineCapEnd = 1;
lineCapStart = 1;
};
closed = 0;
nodes = (
(831,636,l),
(831,0,l)
);
},
{
attr = {
strokeWidth = 50;
strokeHeight = 100;
lineCapEnd = 1;
lineCapStart = 1;
};
closed = 0;
nodes = (
(181,785,l),
(302,889,l),
(423,785,l)
);
},
{
alignment = -1;
pos = (1070,0);
ref = E;
}
);
width = 1674;
}
);
unicode = 989328;
},
{
color = (255, 153, 254, 255);
glyphname = E_U;
leftMetricsKey = E;
rightMetricsKey = U;
layers = (
{
layerId = "787108DE-7A61-4466-9FE6-B6E3F273E4CB";
shapes = (
{
attr = {
strokeWidth = 10;
lineCapEnd = 1;
lineCapStart = 1;
};
closed = 0;
nodes = (
(1033,656,l),
(1045,671,o),
(1038,694,o),
(1018,699,cs),
(996,705,o),
(976,682,o),
(976,656,cs),
(976,472,o),
(1103,292,o),
(1018,123,cs),
(976,37,o),
(906,-13,o),
(809,-21,cs),
(690,-32,o),
(608,18,o),
(556,123,cs),
(472,292,o),
(585,472,o),
(585,656,cs),
(585,676,o),
(575,697,o),
(556,699,c),
(542,701,o),
(529,693,o),
(524,682,cs),
(481,593,o),
(364,563,o),
(285,630,cs),
(248,662,o),
(223,715,o),
(173,715,cs),
(113,715,o),
(86,644,o),
(90,575,cs),
(98,409,o),
(184,250,o),
(145,88,c),
(138,54,o),
(121,22,o),
(90,17,cs),
(63,13,o),
(37,32,o),
(34,60,cs),
(19,173,o),
(169,118,o),
(307,25,cs),
(397,-35,o),
(527,7,o),
(563,109,c)
);
},
{
attr = {
strokeWidth = 10;
lineCapEnd = 1;
lineCapStart = 1;
};
closed = 0;
nodes = (
(79,376,l),
(447,376,l)
);
}
);
width = 1102;
},
{
layerId = "A0B93036-4938-4FDF-B53E-670010F591C3";
shapes = (
{
attr = {
strokeWidth = 50;
strokeHeight = 100;
lineCapEnd = 1;
lineCapStart = 1;
};
closed = 0;
nodes = (
(1033,656,l),
(1045,671,o),
(1038,694,o),
(1018,699,cs),
(996,705,o),
(976,682,o),
(976,656,cs),
(976,472,o),
(1103,292,o),
(1018,123,cs),
(976,37,o),
(906,-13,o),
(809,-21,cs),
(690,-32,o),
(608,18,o),
(556,123,cs),
(472,292,o),
(585,472,o),
(585,656,cs),
(585,676,o),
(575,697,o),
(556,699,cs),
(542,701,o),
(529,693,o),
(524,682,cs),
(481,593,o),
(364,563,o),
(285,630,cs),
(248,662,o),
(223,715,o),
(173,715,cs),
(113,715,o),
(86,644,o),
(90,575,cs),
(98,409,o),
(184,250,o),
(145,88,c),
(138,54,o),
(121,22,o),
(90,17,cs),
(63,13,o),
(37,32,o),
(34,60,cs),
(19,173,o),
(169,118,o),
(307,25,cs),
(397,-35,o),
(527,7,o),
(563,109,c)
);
},
{
attr = {
strokeWidth = 50;
strokeHeight = 100;
lineCapEnd = 1;
lineCapStart = 1;
};
closed = 0;
nodes = (
(79,376,l),
(447,376,l)
);
}
);
width = 1102;
}
);
unicode = 989344;
},
{
color = (255, 153, 254, 255);
glyphname = E_S_S_E;
leftMetricsKey = E;
rightMetricsKey = E;
layers = (
{
layerId = "787108DE-7A61-4466-9FE6-B6E3F273E4CB";
shapes = (
{
attr = {
strokeWidth = 10;
lineCapEnd = 1;
lineCapStart = 1;
};
closed = 0;
nodes = (
(2000,715,l),
(1973,601,o),
(1836.693,555.636,o),
(1749,630,cs),
(1711.69,661.638,o),
(1687,715,o),
(1637,715,cs),
(1577,715,o),
(1550.475,644.026,o),
(1554,575,cs),
(1562.475,409.024,o),
(1648,250,o),
(1609,88,c),
(1602,54,o),
(1585.029,21.815,o),
(1554,17,cs),
(1527.028,12.815,o),
(1501.566,32.066,o),
(1498,60,cs),
(1483.565,173.074,o),
(1632.817,117.728,o),
(1771,25,cs),
(1860.818,-35.272,o),
(1991,7,o),
(2027,109,c)
);
},
{
attr = {
strokeWidth = 10;
lineCapEnd = 1;
lineCapStart = 1;
};
closed = 0;
nodes = (
(1006,529,l),
(959,642,o),
(872.015,708.177,o),
(768,717,cs),
(648.015,727.177,o),
(538.498,649.957,o),
(548,541,cs),
(568.498,305.956,o),
(955.991,418.703,o),
(1015,220,cs),
(1053.993,88.697,o),
(923.003,-31.971,o),
(768,-14,cs),
(647.003,0.029,o),
(547,87,o),
(519,206,c)
);
},
{
attr = {
strokeWidth = 10;
lineCapEnd = 1;
lineCapStart = 1;
};
closed = 0;
nodes = (
(1013,119,l),
(1060,45,o),
(1137.016,-3.862,o),
(1225,-14,cs),
(1380.016,-31.862,o),
(1510.993,88.697,o),
(1472,220,cs),
(1412.991,418.703,o),
(1025.498,305.956,o),
(1005,541,cs),
(995.498,649.957,o),
(1105.052,727.6,o),
(1225,717,cs),
(1320.055,708.6,o),
(1419.269,660.076,o),
(1449,555,cs),
(1492.269,402.076,o),
(1514.001,377.588,o),
(1661,377,cs),
(1911,376,l)
);
},
{
alignment = -1;
ref = E;
}
);
width = 2068;
},
{
attr = {
color = 1;
};
layerId = "A0B93036-4938-4FDF-B53E-670010F591C3";
shapes = (
{
attr = {
fill = 1;
strokeWidth = 50;
strokeHeight = 100;
strokeColor = (0,255);
lineCapEnd = 1;
lineCapStart = 1;
};
closed = 0;
nodes = (
(2000,715,l),
(1973,601,o),
(1836.693,555.636,o),
(1749,630,cs),
(1711.69,661.638,o),
(1687,715,o),
(1637,715,cs),
(1577,715,o),
(1550.475,644.026,o),
(1554,575,cs),
(1562.475,409.024,o),
(1648,250,o),
(1609,88,c),
(1602,54,o),
(1585.029,21.815,o),
(1554,17,cs),
(1527.028,12.815,o),
(1501.566,32.066,o),
(1498,60,cs),
(1483.565,173.074,o),
(1632.817,117.728,o),
(1771,25,cs),
(1860.818,-35.272,o),
(1991,7,o),
(2027,109,c)
);
},
{
attr = {
fill = 1;
strokeWidth = 50;
strokeHeight = 100;
strokeColor = (0,255);
lineCapEnd = 1;
lineCapStart = 1;
};
closed = 0;
nodes = (
(1006,529,l),
(959,642,o),
(872.015,708.177,o),
(768,717,cs),
(648.015,727.177,o),
(538.498,649.957,o),
(548,541,cs),
(568.498,305.956,o),
(955.991,418.703,o),
(1015,220,cs),
(1053.993,88.697,o),
(923.003,-31.971,o),
(768,-14,cs),
(647.003,0.029,o),
(547,87,o),
(519,206,c)
);
},
{
attr = {
fill = 1;
strokeWidth = 50;
strokeHeight = 100;
strokeColor = (0,255);
lineCapEnd = 1;
lineCapStart = 1;
};
closed = 0;
nodes = (
(1013,119,l),
(1060,45,o),
(1137.016,-3.862,o),
(1225,-14,cs),
(1380.016,-31.862,o),
(1510.993,88.697,o),
(1472,220,cs),
(1412.991,418.703,o),
(1025.498,305.956,o),
(1005,541,cs),
(995.498,649.957,o),
(1105.052,727.6,o),
(1225,717,cs),
(1320.055,708.6,o),
(1419.269,660.076,o),
(1449,555,cs),
(1492.269,402.076,o),
(1514.001,377.588,o),
(1661,377,cs),
(1911,376,l)
);
},
{
alignment = -1;
ref = E;
}
);
width = 2068;
}
);
unicode = 989376;
},
{
color = (255, 153, 254, 255);
glyphname = E_S_S_E_S;
leftMetricsKey = E;
rightMetricsKey = S;
layers = (
{
layerId = "787108DE-7A61-4466-9FE6-B6E3F273E4CB";
shapes = (
{
attr = {
strokeWidth = 10;
lineCapEnd = 1;
lineCapStart = 1;
};
closed = 0;
nodes = (
(2000,715,l),
(1973,601,o),
(1836.693,555.636,o),
(1749,630,cs),
(1711.69,661.638,o),
(1687,715,o),
(1637,715,cs),
(1577,715,o),
(1550.475,644.026,o),
(1554,575,cs),
(1562.475,409.024,o),
(1648,250,o),
(1609,88,c),
(1602,54,o),
(1585.029,21.815,o),
(1554,17,cs),
(1527.028,12.815,o),
(1501.566,32.066,o),
(1498,60,cs),
(1483.565,173.074,o),
(1632.817,117.728,o),
(1771,25,cs),
(1860.818,-35.272,o),
(1991,7,o),
(2027,109,c)
);
},
{
attr = {
strokeWidth = 10;
lineCapEnd = 1;
lineCapStart = 1;
};
closed = 0;
nodes = (
(1006,529,l),
(959,642,o),
(872.015,708.177,o),
(768,717,cs),
(648.015,727.177,o),
(538.498,649.957,o),
(548,541,cs),
(568.498,305.956,o),
(955.991,418.703,o),
(1015,220,cs),
(1053.993,88.697,o),
(923.003,-31.971,o),
(768,-14,cs),
(647.003,0.029,o),
(547,87,o),
(519,206,c)
);
},
{
attr = {
strokeWidth = 10;
lineCapEnd = 1;
lineCapStart = 1;
};
closed = 0;
nodes = (
(1013,119,l),
(1060,45,o),
(1137.016,-3.862,o),
(1225,-14,cs),
(1380.016,-31.862,o),
(1510.993,88.697,o),
(1472,220,cs),
(1412.991,418.703,o),
(1025.498,305.956,o),
(1005,541,cs),
(995.498,649.957,o),
(1105.052,727.6,o),
(1225,717,cs),
(1320.055,708.6,o),
(1419.269,660.076,o),
(1449,555,cs),
(1492.269,402.076,o),
(1514.001,377.588,o),
(1661,377,cs),
(1911,376,l)
);
},
{
alignment = -1;
ref = E;
},
{
alignment = -1;
pos = (1941,0);
ref = S;
}
);
width = 2523;
},
{
attr = {
color = 1;
};
layerId = "A0B93036-4938-4FDF-B53E-670010F591C3";
shapes = (
{
attr = {
fill = 1;
strokeWidth = 50;
strokeHeight = 100;
strokeColor = (0,255);
lineCapEnd = 1;
lineCapStart = 1;
};
closed = 0;
nodes = (
(2000,715,l),
(1973,601,o),
(1836.693,555.636,o),
(1749,630,cs),
(1711.69,661.638,o),
(1687,715,o),
(1637,715,cs),
(1577,715,o),
(1550.475,644.026,o),
(1554,575,cs),
(1562.475,409.024,o),
(1648,250,o),
(1609,88,c),
(1602,54,o),
(1585.029,21.815,o),
(1554,17,cs),
(1527.028,12.815,o),
(1501.566,32.066,o),
(1498,60,cs),
(1483.565,173.074,o),
(1632.817,117.728,o),
(1771,25,cs),
(1860.818,-35.272,o),
(1991,7,o),
(2027,109,c)
);
},
{
attr = {
fill = 1;
strokeWidth = 50;
strokeHeight = 100;
strokeColor = (0,255);
lineCapEnd = 1;
lineCapStart = 1;
};
closed = 0;
nodes = (
(1006,529,l),
(959,642,o),
(872.015,708.177,o),
(768,717,cs),
(648.015,727.177,o),
(538.498,649.957,o),
(548,541,cs),
(568.498,305.956,o),
(955.991,418.703,o),
(1015,220,cs),
(1053.993,88.697,o),
(923.003,-31.971,o),
(768,-14,cs),
(647.003,0.029,o),
(547,87,o),
(519,206,c)
);
},
{
attr = {
fill = 1;
strokeWidth = 50;
strokeHeight = 100;
strokeColor = (0,255);
lineCapEnd = 1;
lineCapStart = 1;
};
closed = 0;
nodes = (
(1013,119,l),
(1060,45,o),
(1137.016,-3.862,o),
(1225,-14,cs),
(1380.016,-31.862,o),
(1510.993,88.697,o),
(1472,220,cs),
(1412.991,418.703,o),
(1025.498,305.956,o),
(1005,541,cs),
(995.498,649.957,o),
(1105.052,727.6,o),
(1225,717,cs),
(1320.055,708.6,o),
(1419.269,660.076,o),
(1449,555,cs),
(1492.269,402.076,o),
(1514.001,377.588,o),
(1661,377,cs),
(1911,376,l)
);
},
{
alignment = -1;
ref = E;
},
{
alignment = -1;
pos = (1941,0);
ref = S;
}
);
width = 2523;
}
);
unicode = 989392;
},
{
color = (255, 153, 254, 255);
glyphname = e_a;
leftMetricsKey = e;
rightMetricsKey = a;
layers = (
{
layerId = "787108DE-7A61-4466-9FE6-B6E3F273E4CB";
shapes = (
{
attr = {
strokeWidth = 10;
lineCapEnd = 1;
lineCapStart = 1;
};
closed = 0;
nodes = (
(440.15,143.751,l),
(417.15,65.751,o),
(346,2,o),
(259,-10,cs),
(135,-26,o),
(57,59,o),
(45,174,cs),
(41.71,206.077,o),
(105.39,216.337,o),
(183.533,229.54,cs),
(295.408,248.443,o),
(436.926,273.378,o),
(454,377,cs),
(468,465,o),
(360,531,o),
(259,514,cs),
(181,500,o),
(117,467,o),
(70,376,cs),
(18,275,o),
(39,139,o),
(74,79,c)
);
},
{
attr = {
strokeWidth = 10;
lineCapEnd = 1;
lineCapStart = 1;
};
closed = 0;
nodes = (
(453,377,l),
(467,465,o),
(556,516,o),
(640,515,cs),
(751,514,o),
(837,420,o),
(828,310,c),
(828,53,l),
(821.977,37.943,o),
(826.111,22.16,o),
(836.252,11.987,cs),
(842.948,5.27,o),
(852.262,1,o),
(863,1,cs),
(874.139,1,o),
(883.809,5.955,o),
(890.439,13.586,cs),
(899.284,23.767,o),
(902.716,38.71,o),
(897,53,c)
);
},
{
attr = {
strokeWidth = 10;
lineCapEnd = 1;
lineCapStart = 1;
};
closed = 0;
nodes = (
(828,310,l),
(828,95,o),
(518,287,o),
(452,173,cs),
(398,81,o),
(502,-35,o),
(640,-9,cs),
(733,9,o),
(807,80,o),
(828,173,c)
);
}
);
width = 930;
},
{
layerId = "A0B93036-4938-4FDF-B53E-670010F591C3";
shapes = (
{
attr = {
strokeWidth = 50;
strokeHeight = 100;
lineCapEnd = 1;
lineCapStart = 1;
};
closed = 0;
nodes = (
(435,143,l),
(412,65,o),
(346,2,o),
(259,-10,cs),
(135,-26,o),
(57,59,o),
(45,174,cs),
(41.71,206.077,o),
(105.39,216.337,o),
(183.533,229.54,cs),
(295.408,248.443,o),
(436.926,273.378,o),
(454,377,cs),
(468,465,o),
(360,531,o),
(259,514,cs),
(181,500,o),
(117,467,o),
(70,376,cs),
(18,275,o),
(39,139,o),
(74,79,c)
);
},
{
attr = {
strokeWidth = 50;
strokeHeight = 100;
lineCapEnd = 1;
lineCapStart = 1;
};
closed = 0;
nodes = (
(454,377,l),
(468,465,o),
(557,516,o),
(641,515,cs),
(752,514,o),
(838,420,o),
(829,310,c),
(829,53,l),
(822.977,37.943,o),
(827.111,22.16,o),
(837.252,11.987,cs),
(843.948,5.27,o),
(853.262,1,o),
(864,1,cs),
(875.139,1,o),
(884.809,5.955,o),
(891.439,13.586,cs),
(900.284,23.767,o),
(903.716,38.71,o),
(898,53,c)
);
},
{
attr = {
strokeWidth = 50;
strokeHeight = 100;
lineCapEnd = 1;
lineCapStart = 1;
};
closed = 0;
nodes = (
(829,310,l),
(829,95,o),
(519,287,o),
(453,173,cs),
(399,81,o),
(503,-35,o),
(641,-9,cs),
(734,9,o),
(808,80,o),
(829,173,c)
);
}
);
width = 931;
}
);
unicode = 989456;
},
{
color = (255, 153, 254, 255);
glyphname = e_s;
leftMetricsKey = e;
rightMetricsKey = s;
layers = (
{
layerId = "787108DE-7A61-4466-9FE6-B6E3F273E4CB";
shapes = (
{
attr = {
strokeWidth = 10;
lineCapEnd = 1;
lineCapStart = 1;
};
closed = 0;
nodes = (
(427,115,l),
(396,48,o),
(334,0,o),
(259,-10,cs),
(135,-26,o),
(57,59,o),
(45,174,cs),
(41.848,204.729,o),
(97.987,215.437,o),
(168.961,227.891,cs),
(278.14,247.048,o),
(422.425,270.338,o),
(440,377,cs),
(454,465,o),
(360,531,o),
(259,514,cs),
(181,500,o),
(117,467,o),
(70,376,cs),
(18,275,o),
(39,139,o),
(74,79,c)
);
},
{
alignment = -1;
pos = (393,0);
ref = s;
}
);
width = 872;
},
{
layerId = "A0B93036-4938-4FDF-B53E-670010F591C3";
shapes = (
{
attr = {
strokeWidth = 50;
strokeHeight = 100;
lineCapEnd = 1;
lineCapStart = 1;
};
closed = 0;
nodes = (
(427,115,l),
(396,48,o),
(334,0,o),
(259,-10,cs),
(135,-26,o),
(57,59,o),
(45,174,cs),
(41.955,203.688,o),
(93.258,214.602,o),
(159.907,226.213,cs),
(269.934,245.379,o),
(421.783,266.444,o),
(440,377,cs),
(454,465,o),
(360,531,o),
(259,514,cs),
(181,500,o),
(117,467,o),
(70,376,cs),
(18,275,o),
(39,139,o),
(74,79,c)
);
},
{
alignment = -1;
pos = (393,0);
ref = s;
}
);
width = 872;
}
);
unicode = 989520;
},
{
color = (255, 153, 254, 255);
glyphname = e_t;
leftMetricsKey = e;
rightMetricsKey = t;
layers = (
{
layerId = "787108DE-7A61-4466-9FE6-B6E3F273E4CB";
shapes = (
{
attr = {
strokeWidth = 10;
lineCapEnd = 1;
lineCapStart = 1;
};
closed = 0;
nodes = (
(448,676,l),
(448,493,l)
);
},
{
attr = {
strokeWidth = 10;
lineCapEnd = 1;
lineCapStart = 1;
};
closed = 0;
nodes = (
(380.279,493,l),
(692,493,l)
);
},
{
attr = {
strokeWidth = 10;
lineCapEnd = 1;
lineCapStart = 1;
};
closed = 0;
nodes = (
(446,161,l),
(429,74,o),
(494,-10,o),
(583,-13,cs),
(648,-15,o),
(705,27,o),
(721,91,c)
);
},
{
alignment = -1;
ref = e;
}
);
width = 762;
},
{
layerId = "A0B93036-4938-4FDF-B53E-670010F591C3";
shapes = (
{
attr = {
strokeWidth = 50;
strokeHeight = 100;
lineCapEnd = 1;
lineCapStart = 1;
};
closed = 0;
nodes = (
(448,676,l),
(448,493,l)
);
},
{
attr = {
strokeWidth = 50;
strokeHeight = 100;
lineCapEnd = 1;
lineCapStart = 1;
};
closed = 0;
nodes = (
(380.279,493,l),
(692,493,l)
);
},
{
attr = {
strokeWidth = 50;
strokeHeight = 100;
lineCapEnd = 1;
lineCapStart = 1;
};
closed = 0;
nodes = (
(446,161,l),
(429,74,o),
(494,-10,o),
(583,-13,cs),
(648,-15,o),
(705,27,o),
(721,91,c)
);
},
{
alignment = -1;
ref = e;
}
);
width = 762;
}
);
unicode = 989536;
},
{
color = (255, 153, 254, 255);
glyphname = ecircumflex_t_e;
leftMetricsKey = e;
rightMetricsKey = e;
layers = (
{
layerId = "787108DE-7A61-4466-9FE6-B6E3F273E4CB";
shapes = (
{
attr = {
strokeWidth = 10;
lineCapEnd = 1;
lineCapStart = 1;
};
closed = 0;
nodes = (
(448,676,l),
(448,493,l)
);
},
{
attr = {
strokeWidth = 10;
lineCapEnd = 1;
lineCapStart = 1;
};
closed = 0;
nodes = (
(380.279,493,l),
(692,493,l)
);
},
{
attr = {
strokeWidth = 10;
lineCapEnd = 1;
lineCapStart = 1;
};
closed = 0;
nodes = (
(446,161,l),
(429,74,o),
(494,-10,o),
(583,-13,cs),
(648,-15,o),
(705,27,o),
(721,91,c)
);
},
{
alignment = -1;
ref = ecircumflex;
},
{
alignment = -1;
pos = (654,0);
ref = e;
}
);
width = 1142;
},
{
layerId = "A0B93036-4938-4FDF-B53E-670010F591C3";
shapes = (
{
attr = {
strokeWidth = 50;
strokeHeight = 100;
lineCapEnd = 1;
lineCapStart = 1;
};
closed = 0;
nodes = (
(448,676,l),
(448,493,l)
);
},
{
attr = {
strokeWidth = 50;
strokeHeight = 100;
lineCapEnd = 1;
lineCapStart = 1;
};
closed = 0;
nodes = (
(380.279,493,l),
(692,493,l)
);
},
{
attr = {
strokeWidth = 50;
strokeHeight = 100;
lineCapEnd = 1;
lineCapStart = 1;
};
closed = 0;
nodes = (
(446,161,l),
(429,74,o),
(494,-10,o),
(583,-13,cs),
(648,-15,o),
(705,27,o),
(721,91,c)
);
},
{
alignment = -1;
ref = ecircumflex;
},
{
alignment = -1;
pos = (654,0);
ref = e;
}
);
width = 1142;
}
);
unicode = 989584;
},
{
color = (255, 153, 254, 255);
glyphname = e_u;
leftMetricsKey = e;
rightMetricsKey = u;
layers = (
{
layerId = "787108DE-7A61-4466-9FE6-B6E3F273E4CB";
shapes = (
{
attr = {
strokeWidth = 10;
lineCapEnd = 1;
lineCapStart = 1;
};
closed = 0;
nodes = (
(457,176,l),
(439,79,o),
(359,4,o),
(259,-10,cs),
(135,-26,o),
(57,59,o),
(45,174,cs),
(42.1,202.272,o),
(89.386,213.596,o),
(152.238,224.925,cs),
(262.793,244.851,o),
(421.511,264.792,o),
(440,377,cs),
(454,465,o),
(360,531,o),
(259,514,cs),
(181,500,o),
(117,467,o),
(70,376,cs),
(18,275,o),
(39,139,o),
(74,79,c)
);
},
{
alignment = -1;
pos = (366,0);
ref = u;
}
);
width = 921;
},
{
layerId = "A0B93036-4938-4FDF-B53E-670010F591C3";
shapes = (
{
attr = {
strokeWidth = 50;
strokeHeight = 100;
lineCapEnd = 1;
lineCapStart = 1;
};
closed = 0;
nodes = (
(457,176,l),
(439,79,o),
(359,4,o),
(259,-10,cs),
(135,-26,o),
(57,59,o),
(45,174,cs),
(42.228,201.023,o),
(85.307,212.563,o),
(144.005,223.422,cs),
(254.735,243.908,o),
(421.047,261.975,o),
(440,377,cs),
(454,465,o),
(360,531,o),
(259,514,cs),
(181,500,o),
(117,467,o),
(70,376,cs),
(18,275,o),
(39,139,o),
(74,79,c)
);
},
{
alignment = -1;
pos = (366,0);
ref = u;
}
);
width = 921;
}
);
unicode = 989600;
},
{
color = (255, 153, 254, 255);
glyphname = F_E;
leftMetricsKey = F;
rightMetricsKey = E;
layers = (
{
layerId = "787108DE-7A61-4466-9FE6-B6E3F273E4CB";
shapes = (
{
attr = {
strokeWidth = 10;
lineCapEnd = 1;
lineCapStart = 1;
};
closed = 0;
nodes = (
(118,44,l),
(110.878,32.496,o),
(112.76,19.491,o),
(119.863,10.74,cs),
(125.726,3.517,o),
(135.148,-0.809,o),
(146,1,cs),
(164,4,o),
(172,25,o),
(174,44,c),
(200,227,o),
(40,387,o),
(61,571,cs),
(69.166,647.212,o),
(117.667,715.193,o),
(182.604,715.193,cs),
(213.733,715.193,o),
(236.858,701.906,o),
(259.522,681.101,cs),
(278.623,663.567,o),
(296.086,642.551,o),
(317,627,c),
(377,585,o),
(453,588,o),
(509,627,c)
);
},
{
attr = {
strokeWidth = 10;
lineCapEnd = 1;
lineCapStart = 1;
};
closed = 0;
nodes = (
(952,715,l),
(925,601,o),
(789,556,o),
(701,630,cs),
(664,662,o),
(639,715,o),
(589,715,cs),
(529,715,o),
(502,644,o),
(506,575,cs),
(514,409,o),
(600,250,o),
(561,88,c),
(554,54,o),
(537,22,o),
(506,17,cs),
(479,13,o),
(453,32,o),
(450,60,cs),
(435,173,o),
(585,118,o),
(723,25,cs),
(813,-35,o),
(943,7,o),
(979,109,c)
);
},
{
attr = {
strokeWidth = 10;
lineCapEnd = 1;
lineCapStart = 1;
};
closed = 0;
nodes = (
(40,376,l),
(863,376,l)
);
}
);
width = 1020;
},
{
attr = {
color = 1;
};
layerId = "A0B93036-4938-4FDF-B53E-670010F591C3";
shapes = (
{
attr = {
fill = 1;
strokeWidth = 50;
strokeHeight = 100;
strokeColor = (0,255);
lineCapEnd = 1;
lineCapStart = 1;
};
closed = 0;
nodes = (
(118,44,l),
(111.409,33.353,o),
(112.53,21.42,o),
(118.364,12.764,cs),
(124.038,4.347,o),
(134.168,-0.972,o),
(146,1,cs),
(164,4,o),
(172,25,o),
(174,44,c),
(200,227,o),
(40,387,o),
(61,571,cs),
(69.166,647.212,o),
(117.667,715.193,o),
(182.604,715.193,cs),
(213.733,715.193,o),
(236.858,701.906,o),
(259.522,681.101,cs),
(278.623,663.567,o),
(296.086,642.551,o),
(317,627,c),
(377,585,o),
(453,588,o),
(509,627,c)
);
},
{
attr = {
fill = 1;
strokeWidth = 50;
strokeHeight = 100;
strokeColor = (0,255);
lineCapEnd = 1;
lineCapStart = 1;
};
closed = 0;
nodes = (
(952,715,l),
(925,601,o),
(789,556,o),
(701,630,cs),
(664,662,o),
(639,715,o),
(589,715,cs),
(529,715,o),
(502,644,o),
(506,575,cs),
(514,409,o),
(600,250,o),
(561,88,c),
(554,54,o),
(537,22,o),
(506,17,cs),
(479,13,o),
(453,32,o),
(450,60,cs),
(435,173,o),
(585,118,o),
(723,25,cs),
(813,-35,o),
(943,7,o),
(979,109,c)
);
},
{
attr = {
fill = 1;
strokeWidth = 50;
strokeHeight = 100;
strokeColor = (0,255);
lineCapEnd = 1;
lineCapStart = 1;
};
closed = 0;
nodes = (
(40,376,l),
(863,376,l)
);
}
);
width = 1020;
}
);
unicode = 991248;
},
{
color = (255, 153, 254, 255);
glyphname = F_F_E;
leftMetricsKey = F;
rightMetricsKey = E;
layers = (
{
layerId = "787108DE-7A61-4466-9FE6-B6E3F273E4CB";
shapes = (
{
attr = {
strokeWidth = 10;
lineCapEnd = 1;
lineCapStart = 1;
};
closed = 0;
nodes = (
(117,44,l),
(109.79,32.352,o),
(111.808,19.167,o),
(119.131,10.415,cs),
(125.011,3.387,o),
(134.312,-0.781,o),
(145,1,cs),
(163,4,o),
(171,25,o),
(173,44,c),
(199,227,o),
(39,387,o),
(60,571,cs),
(69,655,o),
(127,729,o),
(202,713,cs),
(250,704,o),
(277,656,o),
(316,627,cs),
(364,593,o),
(422,589,o),
(479,611,c)
);
},
{
attr = {
strokeWidth = 10;
lineCapEnd = 1;
lineCapStart = 1;
};
closed = 0;
nodes = (
(528,44,l),
(520.771,32.322,o),
(522.819,19.099,o),
(530.188,10.347,cs),
(536.071,3.361,o),
(545.346,-0.776,o),
(556,1,cs),
(574,4,o),
(582,25,o),
(584,44,c),
(610,227,o),
(450,387,o),
(471,571,cs),
(480,655,o),
(538,729,o),
(613,713,cs),
(635.042,708.867,o),
(652.656,696.51,o),
(669.036,681.546,cs),
(688.328,663.923,o),
(705.909,642.683,o),
(727,627,c),
(787,585,o),
(863,588,o),
(919,627,c)
);
},
{
attr = {
strokeWidth = 10;
lineCapEnd = 1;
lineCapStart = 1;
};
closed = 0;
nodes = (
(1362,715,l),
(1335,601,o),
(1199,556,o),
(1111,630,cs),
(1074,662,o),
(1049,715,o),
(999,715,cs),
(939,715,o),
(912,644,o),
(916,575,cs),
(924,409,o),
(1010,250,o),
(971,88,c),
(964,54,o),
(947,22,o),
(916,17,cs),
(889,13,o),
(863,32,o),
(860,60,cs),
(845,173,o),
(995,118,o),
(1133,25,cs),
(1223,-35,o),
(1353,7,o),
(1389,109,c)
);
},
{
attr = {
strokeWidth = 10;
lineCapEnd = 1;
lineCapStart = 1;
};
closed = 0;
nodes = (
(40,376,l),
(1273,376,l)
);
}
);
width = 1430;
},
{
layerId = "A0B93036-4938-4FDF-B53E-670010F591C3";
shapes = (
{
attr = {
strokeWidth = 50;
strokeHeight = 100;
lineCapEnd = 1;
lineCapStart = 1;
};
closed = 0;
nodes = (
(117,44,l),
(109.811,32.387,o),
(111.796,19.245,o),
(119.066,10.493,cs),
(124.942,3.418,o),
(134.272,-0.788,o),
(145,1,cs),
(163,4,o),
(171,25,o),
(173,44,c),
(199,227,o),
(39,387,o),
(60,571,cs),
(69,655,o),
(127,729,o),
(202,713,cs),
(250,704,o),
(277,656,o),
(316,627,cs),
(364,593,o),
(422,589,o),
(479,611,c)
);
},
{
attr = {
strokeWidth = 50;
strokeHeight = 100;
lineCapEnd = 1;
lineCapStart = 1;
};
closed = 0;
nodes = (
(528,44,l),
(520.495,31.877,o),
(522.988,18.088,o),
(531.054,9.366,cs),
(536.96,2.979,o),
(545.855,-0.691,o),
(556,1,cs),
(574,4,o),
(582,25,o),
(584,44,c),
(610,227,o),
(450,387,o),
(471,571,cs),
(480,655,o),
(538,729,o),
(613,713,cs),
(638.847,708.154,o),
(658.605,692,o),
(677.426,673.593,cs),
(693.557,657.816,o),
(709,640.385,o),
(727,627,c),
(787,585,o),
(863,588,o),
(919,627,c)
);
},
{
attr = {
strokeWidth = 50;
strokeHeight = 100;
lineCapEnd = 1;
lineCapStart = 1;
};
closed = 0;
nodes = (
(1362,715,l),
(1335,601,o),
(1199,556,o),
(1111,630,cs),
(1074,662,o),
(1049,715,o),
(999,715,cs),
(939,715,o),
(912,644,o),
(916,575,cs),
(924,409,o),
(1010,250,o),
(971,88,c),
(964,54,o),
(947,22,o),
(916,17,cs),
(889,13,o),
(863,32,o),
(860,60,cs),
(845,173,o),
(995,118,o),
(1133,25,cs),
(1223,-35,o),
(1353,7,o),
(1389,109,c)
);
},
{
attr = {
strokeWidth = 50;
strokeHeight = 100;
lineCapEnd = 1;
lineCapStart = 1;
};
closed = 0;
nodes = (
(40,376,l),
(1273,376,l)
);
}
);
width = 1430;
}
);
unicode = 991280;
},
{
color = (255, 153, 254, 255);
glyphname = f_v;
leftMetricsKey = f;
rightMetricsKey = v;
layers = (
{
layerId = "787108DE-7A61-4466-9FE6-B6E3F273E4CB";
shapes = (
{
attr = {
strokeWidth = 10;
lineCapEnd = 1;
lineCapStart = 1;
};
closed = 0;
nodes = (
(90,493,l),
(90,525,l),
(73,614,o),
(139,697,o),
(229,700,cs),
(295,702,o),
(353,659,o),
(369,595,c)
);
},
{
attr = {
strokeWidth = 10;
lineCapEnd = 1;
lineCapStart = 1;
};
closed = 0;
nodes = (
(20,493,l),
(229,493,l)
);
},
{
attr = {
strokeWidth = 10;
lineCapEnd = 1;
lineCapStart = 1;
};
closed = 0;
nodes = (
(90,493,l),
(178,361,o),
(233,209,o),
(252,51,c),
(254,27,o),
(263,1,o),
(285,1,cs),
(307,1,o),
(315,27,o),
(318,51,cs),
(336,209,o),
(391,361,o),
(480,493,c)
);
}
);
width = 511;
},
{
layerId = "A0B93036-4938-4FDF-B53E-670010F591C3";
shapes = (
{
attr = {
strokeWidth = 50;
strokeHeight = 100;
lineCapEnd = 1;
lineCapStart = 1;
};
closed = 0;
nodes = (
(90,493,l),
(90,525,l),
(73,614,o),
(139,697,o),
(229,700,cs),
(295,702,o),
(353,659,o),
(369,595,c)
);
},
{
attr = {
strokeWidth = 50;
strokeHeight = 100;
lineCapEnd = 1;
lineCapStart = 1;
};
closed = 0;
nodes = (
(20,493,l),
(229,493,l)
);
},
{
attr = {
strokeWidth = 50;
strokeHeight = 100;
lineCapEnd = 1;
lineCapStart = 1;
};
closed = 0;
nodes = (
(90,493,l),
(178,361,o),
(233,209,o),
(252,51,c),
(254,27,o),
(263,1,o),
(285,1,cs),
(307,1,o),
(315,27,o),
(318,51,cs),
(336,209,o),
(391,361,o),
(480,493,c)
);
}
);
width = 511;
}
);
unicode = 991568;
},
{
color = (255, 153, 254, 255);
glyphname = H_O_F;
leftMetricsKey = H;
rightMetricsKey = F;
layers = (
{
layerId = "787108DE-7A61-4466-9FE6-B6E3F273E4CB";
shapes = (
{
attr = {
strokeWidth = 10;
lineCapEnd = 1;
lineCapStart = 1;
};
closed = 0;
nodes = (
(47,44,l),
(34,24,o),
(51,-2,o),
(75,2,c),
(93,6,o),
(100,25,o),
(103,44,cs),
(117,147,o),
(75,248,o),
(75,351,cs),
(75,455,o),
(117,555,o),
(103,658,cs),
(100,677,o),
(93,697,o),
(75,700,cs),
(51,704,o),
(34,678,o),
(47,658,c)
);
},
{
attr = {
strokeWidth = 10;
lineCapEnd = 1;
lineCapStart = 1;
};
closed = 0;
nodes = (
(75,351,l),
(474,351,l)
);
},
{
attr = {
strokeWidth = 10;
lineCapEnd = 1;
lineCapStart = 1;
};
closed = 0;
nodes = (
(966,351,l),
(1339,351,l)
);
},
{
attr = {
strokeWidth = 10;
lineCapEnd = 1;
lineCapStart = 1;
};
closed = 0;
nodes = (
(995,460,l),
(990,476,o),
(981,514,o),
(987,571,cs),
(996,655,o),
(1054,729,o),
(1129,713,cs),
(1177,704,o),
(1204,656,o),
(1243,627,c),
(1336,562,o),
(1465,605,o),
(1499,713,c)
);
},
{
alignment = -1;
pos = (444.495,-0.046);
ref = O;
}
);
width = 1480;
},
{
layerId = "A0B93036-4938-4FDF-B53E-670010F591C3";
shapes = (
{
attr = {
strokeWidth = 50;
strokeHeight = 100;
lineCapEnd = 1;
lineCapStart = 1;
};
closed = 0;
nodes = (
(47,44,l),
(34,24,o),
(51,-2,o),
(75,2,c),
(93,6,o),
(100,25,o),
(103,44,cs),
(117,147,o),
(75,248,o),
(75,351,c),
(75,455,o),
(117,555,o),
(103,658,cs),
(100,677,o),
(93,697,o),
(75,700,cs),
(51,704,o),
(34,678,o),
(47,658,c)
);
},
{
attr = {
strokeWidth = 50;
strokeHeight = 100;
lineCapEnd = 1;
lineCapStart = 1;
};
closed = 0;
nodes = (
(75,351,l),
(474,351,l)
);
},
{
attr = {
strokeWidth = 50;
strokeHeight = 100;
lineCapEnd = 1;
lineCapStart = 1;
};
closed = 0;
nodes = (
(966,351,l),
(1339,351,l)
);
},
{
attr = {
strokeWidth = 50;
strokeHeight = 100;
lineCapEnd = 1;
lineCapStart = 1;
};
closed = 0;
nodes = (
(995,460,l),
(990,476,o),
(981,514,o),
(987,571,cs),
(996,655,o),
(1054,729,o),
(1129,713,cs),
(1177,704,o),
(1204,656,o),
(1243,627,c),
(1336,562,o),
(1465,605,o),
(1499,713,c)
);
},
{
alignment = -1;
pos = (444.495,-0.046);
ref = O;
}
);
width = 1481;
}
);
unicode = 992272;
},
{
color = (255, 153, 254, 255);
glyphname = h_o_f;
leftMetricsKey = h;
rightMetricsKey = f;
layers = (
{
layerId = "787108DE-7A61-4466-9FE6-B6E3F273E4CB";
shapes = (
{
attr = {
strokeWidth = 10;
lineCapEnd = 1;
lineCapStart = 1;
};
closed = 0;
nodes = (
(914,2,l),
(914,250,l)
);
},
{
attr = {
strokeWidth = 10;
lineCapEnd = 1;
lineCapStart = 1;
};
closed = 0;
nodes = (
(844,493,l),
(1053,493,l)
);
},
{
attr = {
strokeWidth = 10;
lineCapEnd = 1;
lineCapStart = 1;
};
closed = 0;
nodes = (
(914,493,l),
(914,525,l),
(897,614,o),
(963,697,o),
(1053,700,cs),
(1119,702,o),
(1177,659,o),
(1193,595,c)
);
},
{
alignment = -1;
ref = h;
},
{
alignment = -1;
pos = (450,0);
ref = o;
}
);
width = 1164;
},
{
layerId = "A0B93036-4938-4FDF-B53E-670010F591C3";
shapes = (
{
attr = {
strokeWidth = 50;
strokeHeight = 100;
lineCapEnd = 1;
lineCapStart = 1;
};
closed = 0;
nodes = (
(914,2,l),
(914,250,l)
);
},
{
attr = {
strokeWidth = 50;
strokeHeight = 100;
lineCapEnd = 1;
lineCapStart = 1;
};
closed = 0;
nodes = (
(844,493,l),
(1053,493,l)
);
},
{
attr = {
strokeWidth = 50;
strokeHeight = 100;
lineCapEnd = 1;
lineCapStart = 1;
};
closed = 0;
nodes = (
(914,493,l),
(914,525,l),
(897,614,o),
(963,697,o),
(1053,700,cs),
(1119,702,o),
(1177,659,o),
(1193,595,c)
);
},
{
alignment = -1;
ref = h;
},
{
alignment = -1;
pos = (450,0);
ref = o;
}
);
width = 1164;
}
);
unicode = 992528;
},
{
color = (255, 153, 254, 255);
glyphname = i_e;
leftMetricsKey = i;
rightMetricsKey = e;
layers = (
{
attr = {
color = 1;
};
layerId = "787108DE-7A61-4466-9FE6-B6E3F273E4CB";
shapes = (
{
attr = {
fill = 1;
strokeWidth = 10;
strokeColor = (0,255);
};
closed = 1;
nodes = (
(113,312,o),
(123,238,o),
(121,171,c),
(121,172,o),
(121,173,o),
(121,174,cs),
(121,215.311,o),
(228.153,218.754,o),
(330.889,239.891,cs),
(422.129,258.663,o),
(509.885,291.392,o),
(516,377,cs),
(522,466,o),
(436,531,o),
(335,514,cs),
(257,500,o),
(193,467,o),
(146,376,cs)
);
},
{
alignment = -1;
ref = i;
}
);
width = 558;
},
{
attr = {
color = 1;
};
layerId = "A0B93036-4938-4FDF-B53E-670010F591C3";
shapes = (
{
attr = {
fill = 1;
strokeWidth = 50;
strokeHeight = 100;
strokeColor = (0,255);
};
closed = 1;
nodes = (
(113,312,o),
(123,238,o),
(121,171,c),
(121,172,o),
(121,173,o),
(121,174,cs),
(121,217.252,o),
(238.457,218.994,o),
(345.326,242.993,cs),
(431.185,262.274,o),
(510.209,295.921,o),
(516,377,cs),
(522,466,o),
(436,531,o),
(335,514,cs),
(257,500,o),
(193,467,o),
(146,376,cs)
);
},
{
alignment = -1;
ref = i;
}
);
width = 558;
}
);
unicode = 993040;
},
